<?xml version="1.0" encoding="UTF-8"?>
<svg width="16px" height="16px" viewBox="0 0 16 16" version="1.1" xmlns="http://www.w3.org/2000/svg" xmlns:xlink="http://www.w3.org/1999/xlink">
    <!-- Generator: Sketch 64 (93537) - https://sketch.com -->
    <title>Star+selected备份</title>
    <desc>Created with Sketch.</desc>
    <g id="页面-1" stroke="none" stroke-width="1" fill="none" fill-rule="evenodd">
        <g id="指标对比" transform="translate(-422.000000, -851.000000)" fill="#FADB14">
            <g id="编组-12" transform="translate(365.000000, 848.000000)">
                <g id="编组-10">
                    <g id="Rate/_Resource/Star+selected" transform="translate(57.000000, 3.000000)">
                        <path d="M12.7899411,5.66792188 C12.6041425,5.48682598 12.5193701,5.22591056 12.5632493,4.97019843 L13.2599715,0.908665121 C13.3144719,0.586830098 13.2600609,0.356168851 12.9961594,0.163933265 C12.8468375,0.0553794328 12.6691926,2.85275507e-06 12.4915298,2.85275507e-06 C12.355082,2.85275507e-06 12.2181873,0.0326172803 12.0924679,0.0987044097 L8.36677026,2.10667315 C8.1371461,2.22738587 7.86282014,2.22738587 7.63319597,2.10667315 L4.06390092,0.0986865289 C3.77468033,-0.0536392977 3.42454013,-0.0278910655 3.15976248,0.163915384 C2.89586098,0.356150971 2.68506521,0.58638308 2.74044179,0.90864724 L3.59394204,5.05450601 C3.63780344,5.31021814 3.55303096,5.57113356 3.36725031,5.75222946 L0.259760537,8.19648769 C0.0250403671,8.42434166 -0.0586413877,8.76548786 0.041776718,9.07614743 C0.143035217,9.38682489 0.41124597,9.61296231 0.73477966,9.6601674 L4.77676934,10.3695133 C5.03342915,10.4068483 5.25529309,10.568025 5.37012305,10.8005638 L7.23100501,14.7275804 C7.37519511,15.0206454 7.67342759,15.2060327 8.00039438,15.2060327 C8.32736116,15.2060327 8.62473536,15.0206633 8.76978374,14.7275804 L10.5576766,10.8006532 C10.6724887,10.5680429 10.8943884,10.4067946 11.1511018,10.3694776 L15.2660091,9.6601674 C15.5887024,9.61339145 15.8577535,9.38682489 15.9581716,9.07614743 C16.0590189,8.76548786 15.9740497,8.42435954 15.7406348,8.19650557 L12.7899411,5.66792188 Z" id="Shape" transform="translate(8.000000, 7.603016) scale(1, -1) translate(-8.000000, -7.603016) "></path>
                    </g>
                </g>
            </g>
        </g>
    </g>
</svg>