<svg id="智慧校务新" xmlns="http://www.w3.org/2000/svg" width="105" height="102" viewBox="0 0 105 102">
  <metadata><?xpacket begin="﻿" id="W5M0MpCehiHzreSzNTczkc9d"?>
<x:xmpmeta xmlns:x="adobe:ns:meta/" x:xmptk="Adobe XMP Core 5.6-c142 79.160924, 2017/07/13-01:06:39        ">
   <rdf:RDF xmlns:rdf="http://www.w3.org/1999/02/22-rdf-syntax-ns#">
      <rdf:Description rdf:about=""/>
   </rdf:RDF>
</x:xmpmeta>
                                                                                                    
                                                                                                    
                                                                                                    
                                                                                                    
                                                                                                    
                                                                                                    
                                                                                                    
                                                                                                    
                                                                                                    
                                                                                                    
                                                                                                    
                                                                                                    
                                                                                                    
                                                                                                    
                                                                                                    
                                                                                                    
                                                                                                    
                                                                                                    
                                                                                                    
                                                                                                    
                           
<?xpacket end="w"?></metadata>
<defs>
    <style>
      .cls-1 {
        fill: #019f6c;
      }

      .cls-1, .cls-10, .cls-11, .cls-2, .cls-3, .cls-4, .cls-5, .cls-6, .cls-7, .cls-8, .cls-9 {
        fill-rule: evenodd;
      }

      .cls-2, .cls-4, .cls-6 {
        fill: #fff;
      }

      .cls-3 {
        fill: #1468f0;
      }

      .cls-4 {
        opacity: 0.8;
      }

      .cls-5 {
        fill: #01b67b;
      }

      .cls-6, .cls-8 {
        opacity: 0.5;
      }

      .cls-7 {
        fill: #35d09d;
      }

      .cls-8 {
        fill: #dcdcdc;
      }

      .cls-9 {
        fill: #00c282;
      }

      .cls-10 {
        fill: #01c283;
      }

      .cls-11 {
        fill: #34d19d;
      }
    </style>
  </defs>
  <g id="组_3_拷贝" data-name="组 3 拷贝">
    <path id="矩形_6" data-name="矩形 6" class="cls-1" d="M226.289,557V499.82l58.345-33.612v78.43L263.176,557H226.289Z" transform="translate(-207 -455)"/>
    <path id="矩形_6_拷贝_6" data-name="矩形 6 拷贝 6" class="cls-2" d="M271.2,489.159l-29.238,16.818a8.58,8.58,0,0,0-3.9,6.728v21.3c0,2.477,1.745,3.481,3.9,2.243L271.2,519.433a8.58,8.58,0,0,0,3.9-6.728V491.4C275.1,488.925,273.356,487.921,271.2,489.159Z" transform="translate(-207 -455)"/>
    <path id="矩形_6_拷贝_7" data-name="矩形 6 拷贝 7" class="cls-3" d="M263.893,497.288l-20.466,11.773a4.287,4.287,0,0,0-1.949,3.364v4.485a1.187,1.187,0,0,0,1.949,1.121l20.466-11.773a4.288,4.288,0,0,0,1.95-3.364v-4.485A1.188,1.188,0,0,0,263.893,497.288Z" transform="translate(-207 -455)"/>
    <path id="矩形_6_拷贝_8" data-name="矩形 6 拷贝 8" class="cls-3" d="M256.584,516.629l-14.132,8.129a2.146,2.146,0,0,0-.974,1.682V527a0.593,0.593,0,0,0,.974.56l14.132-8.128a2.147,2.147,0,0,0,.975-1.682V517.19A0.594,0.594,0,0,0,256.584,516.629Z" transform="translate(-207 -455)"/>
    <path id="矩形_6_拷贝_11" data-name="矩形 6 拷贝 11" class="cls-4" d="M277.906,535.677l-14.132,8.129a2.143,2.143,0,0,0-.974,1.681v0.561a0.594,0.594,0,0,0,.974.561l14.132-8.129a2.147,2.147,0,0,0,.975-1.682v-0.561A0.594,0.594,0,0,0,277.906,535.677Z" transform="translate(-207 -455)"/>
    <path id="矩形_6_拷贝_9" data-name="矩形 6 拷贝 9" class="cls-3" d="M268.279,514.948L242.452,529.8a2.143,2.143,0,0,0-.974,1.682v0.56a0.593,0.593,0,0,0,.974.561l25.827-14.856a2.147,2.147,0,0,0,.975-1.682v-0.561A0.594,0.594,0,0,0,268.279,514.948Z" transform="translate(-207 -455)"/>
    <path id="矩形_7" data-name="矩形 7" class="cls-5" d="M207.027,557V488.616l19.437,11.2V557H207.027Z" transform="translate(-207 -455)"/>
    <path id="矩形_8" data-name="矩形 8" class="cls-6" d="M207.049,488.615L265.359,455,284.8,466.208l-58.31,33.612Z" transform="translate(-207 -455)"/>
    <path id="矩形_9" data-name="矩形 9" class="cls-7" d="M207.009,488.615L265.319,455l1.944,1.121-58.31,33.612Z" transform="translate(-207 -455)"/>
    <path id="矩形_9_拷贝_3" data-name="矩形 9 拷贝 3" class="cls-8" d="M214.784,493.1l58.31-33.612,1.944,1.121-58.31,33.611Z" transform="translate(-207 -455)"/>
    <path id="矩形_9_拷贝_6" data-name="矩形 9 拷贝 6" class="cls-8" d="M210.856,490.856l58.31-33.612,1.944,1.121L212.8,491.977Z" transform="translate(-207 -455)"/>
    <path id="矩形_9_拷贝_4" data-name="矩形 9 拷贝 4" class="cls-8" d="M218.712,495.338l58.31-33.612,1.943,1.12-58.309,33.612Z" transform="translate(-207 -455)"/>
    <path id="矩形_9_拷贝_5" data-name="矩形 9 拷贝 5" class="cls-8" d="M222.64,497.579l58.309-33.612,1.944,1.12L224.583,498.7Z" transform="translate(-207 -455)"/>
  </g>
  <g id="组_3" data-name="组 3">
    <path id="矩形_6-2" data-name="矩形 6" class="cls-9" d="M252.486,557V511.584L312,478v79H252.486Z" transform="translate(-207 -455)"/>
    <path id="矩形_6_拷贝_6-2" data-name="矩形 6 拷贝 6" class="cls-2" d="M298.4,500.924l-29.238,16.818a8.577,8.577,0,0,0-3.9,6.727v21.3c0,2.477,1.745,3.481,3.9,2.243L298.4,531.2a8.577,8.577,0,0,0,3.9-6.727v-21.3C302.3,500.689,300.552,499.685,298.4,500.924Z" transform="translate(-207 -455)"/>
    <path id="矩形_6_拷贝_7-2" data-name="矩形 6 拷贝 7" class="cls-10" d="M291.089,509.053l-20.466,11.772a4.29,4.29,0,0,0-1.949,3.364v4.485a1.187,1.187,0,0,0,1.949,1.121l20.466-11.772a4.291,4.291,0,0,0,1.95-3.364v-4.485A1.188,1.188,0,0,0,291.089,509.053Z" transform="translate(-207 -455)"/>
    <path id="矩形_6_拷贝_8-2" data-name="矩形 6 拷贝 8" class="cls-1" d="M283.78,528.394l-14.132,8.129a2.143,2.143,0,0,0-.974,1.682v0.56a0.594,0.594,0,0,0,.974.561L283.78,531.2a2.147,2.147,0,0,0,.975-1.682v-0.56A0.594,0.594,0,0,0,283.78,528.394Z" transform="translate(-207 -455)"/>
    <path id="矩形_6_拷贝_11-2" data-name="矩形 6 拷贝 11" class="cls-4" d="M305.1,550.244L293.357,557h-3.321a2.151,2.151,0,0,1,.934-1.43l14.132-8.129a0.594,0.594,0,0,1,.975.561v0.561A2.144,2.144,0,0,1,305.1,550.244Z" transform="translate(-207 -455)"/>
    <path id="矩形_6_拷贝_9-2" data-name="矩形 6 拷贝 9" class="cls-1" d="M295.475,526.712l-25.827,14.856a2.146,2.146,0,0,0-.974,1.682v0.561a0.593,0.593,0,0,0,.974.56l25.827-14.856a2.144,2.144,0,0,0,.975-1.681v-0.561A0.594,0.594,0,0,0,295.475,526.712Z" transform="translate(-207 -455)"/>
    <path id="矩形_7-2" data-name="矩形 7" class="cls-5" d="M234.223,557V500.381l19.437,11.2V557H234.223Z" transform="translate(-207 -455)"/>
    <path id="矩形_8-2" data-name="矩形 8" class="cls-2" d="M234.245,500.38l58.31-33.612,19.438,11.2-58.31,33.612Z" transform="translate(-207 -455)"/>
    <path id="矩形_9-2" data-name="矩形 9" class="cls-11" d="M234.205,500.38l58.31-33.612,1.944,1.12L236.149,501.5Z" transform="translate(-207 -455)"/>
    <path id="矩形_9_拷贝_3-2" data-name="矩形 9 拷贝 3" class="cls-8" d="M241.98,504.862l58.31-33.612,1.944,1.12-58.31,33.612Z" transform="translate(-207 -455)"/>
    <path id="矩形_9_拷贝_6-2" data-name="矩形 9 拷贝 6" class="cls-8" d="M238.052,502.621l58.31-33.612,1.944,1.12L240,503.741Z" transform="translate(-207 -455)"/>
    <path id="矩形_9_拷贝_4-2" data-name="矩形 9 拷贝 4" class="cls-8" d="M245.908,507.1l58.31-33.611,1.943,1.12-58.309,33.612Z" transform="translate(-207 -455)"/>
    <path id="矩形_9_拷贝_5-2" data-name="矩形 9 拷贝 5" class="cls-8" d="M249.836,509.343l58.309-33.612,1.944,1.121-58.31,33.612Z" transform="translate(-207 -455)"/>
  </g>
</svg>
