<svg id="智慧评价新" xmlns="http://www.w3.org/2000/svg" width="119" height="87" viewBox="0 0 119 87">
  <metadata><?xpacket begin="﻿" id="W5M0MpCehiHzreSzNTczkc9d"?>
<x:xmpmeta xmlns:x="adobe:ns:meta/" x:xmptk="Adobe XMP Core 5.6-c142 79.160924, 2017/07/13-01:06:39        ">
   <rdf:RDF xmlns:rdf="http://www.w3.org/1999/02/22-rdf-syntax-ns#">
      <rdf:Description rdf:about=""/>
   </rdf:RDF>
</x:xmpmeta>
                                                                                                    
                                                                                                    
                                                                                                    
                                                                                                    
                                                                                                    
                                                                                                    
                                                                                                    
                                                                                                    
                                                                                                    
                                                                                                    
                                                                                                    
                                                                                                    
                                                                                                    
                                                                                                    
                                                                                                    
                                                                                                    
                                                                                                    
                                                                                                    
                                                                                                    
                                                                                                    
                           
<?xpacket end="w"?></metadata>
<defs>
    <style>
      .cls-1 {
        fill: #e58d16;
      }

      .cls-1, .cls-2, .cls-3, .cls-4, .cls-5, .cls-6 {
        fill-rule: evenodd;
      }

      .cls-2 {
        fill: #d47a00;
      }

      .cls-3 {
        fill: #feb34d;
      }

      .cls-4 {
        fill: #ffe19f;
      }

      .cls-5 {
        fill: #ffc85d;
      }

      .cls-6 {
        fill: #ffa324;
      }
    </style>
  </defs>
  <g id="组_12" data-name="组 12">
    <path id="形状_35_拷贝" data-name="形状 35 拷贝" class="cls-1" d="M1245,524l-19.1,8.768c-2.34,5.688-7.34,10.855-14.51,14.99-21.34,12.3-56.07,12.3-77.41,0a46.481,46.481,0,0,1-4.98-3.311V506.453a46.327,46.327,0,0,1,4.98-3.31c21.34-12.3,56.07-12.3,77.41,0a39.694,39.694,0,0,1,9.9,7.856H1226v6.942L1244,519c1.03,0.3,3,2.335,3,3A2.852,2.852,0,0,1,1245,524Z" transform="translate(-1129 -470)"/>
    <path id="形状_35_拷贝_3" data-name="形状 35 拷贝 3" class="cls-2" d="M1246.19,526.908L1226,532.739v-14.8l20.19,5.832c1.03,0.3,1.76.564,1.81,1.226C1248.09,526.162,1247.22,526.611,1246.19,526.908Z" transform="translate(-1129 -470)"/>
    <path id="形状_37" data-name="形状 37" class="cls-2" d="M1226,529V510h3l19-3v18Z" transform="translate(-1129 -470)"/>
    <path id="形状_35" data-name="形状 35" class="cls-3" d="M1246.19,508.424l-20.29,5.86c-2.34,5.689-7.34,10.856-14.51,14.991-21.34,12.3-56.07,12.3-77.41,0a46.331,46.331,0,0,1-4.98-3.311V487.97a46.331,46.331,0,0,1,4.98-3.311c21.34-12.3,56.07-12.3,77.41,0,7.04,4.061,12,9.141,14.39,14.733l20.41,5.9A2.266,2.266,0,0,1,1248,507C1248,507.662,1247.22,508.128,1246.19,508.424Z" transform="translate(-1129 -470)"/>
  </g>
  <g id="组_12_拷贝" data-name="组 12 拷贝">
    <path id="形状_31_拷贝_2" data-name="形状 31 拷贝 2" class="cls-4" d="M1145.79,500.63a1.446,1.446,0,0,1-.41,2l-9.56,7.374c-3.6,2.9.08,6.969,6.35,7.041l16.15,0.032a5.294,5.294,0,0,1,3.2.926l9.53,7.73c3.8,2.98,11.68,2.356,13.32-1.073l4.58-8.822a2.9,2.9,0,0,1,2.38-1.392l15.41-2.645c5.92-.941,7.01-5.477,1.85-7.653l-13.42-5.484a2.485,2.485,0,0,1-1.64-1.875l-0.06-9.257c-0.12-3.629-7.2-5.744-12.2-3.688l-12.78,5.493a6.431,6.431,0,0,1-3.48.271l-15.49-3.23c-6-1.279-11.54,1.911-9.32,5.373Zm0,0" transform="translate(-1129 -470)"/>
    <path id="形状_32" data-name="形状 32" class="cls-4" d="M1139.68,476.847v13.577l8.89,2.611-1.58-11.488-2.61-5.223Z" transform="translate(-1129 -470)"/>
    <path id="形状_33" data-name="形状 33" class="cls-4" d="M1134.41,499.824V512.88l23.06,2.611-1.57-10.445-2.62-5.222h-18.87Z" transform="translate(-1129 -470)"/>
    <path id="形状_31_拷贝_3" data-name="形状 31 拷贝 3" class="cls-5" d="M1206.74,511.805l-15.41,2.645a2.9,2.9,0,0,0-2.38,1.392l-4.58,8.822c-0.88,1.847-3.58,2.871-6.47,2.966V485.3l3.37-1.45c5-2.056,12.08.059,12.2,3.688l0.06,9.257a2.485,2.485,0,0,0,1.64,1.875l13.42,5.484C1213.75,506.328,1212.66,510.864,1206.74,511.805Z" transform="translate(-1129 -470)"/>
    <path id="形状_34" data-name="形状 34" class="cls-5" d="M1211.96,494.6V508.18l-14.68-.523-2.62-10.966,6.29-2.611Z" transform="translate(-1129 -470)"/>
    <path id="形状_31" data-name="形状 31" class="cls-6" d="M1145.79,487.574a1.448,1.448,0,0,1-.41,2l-9.56,7.374c-3.6,2.9.08,6.969,6.35,7.041l16.15,0.031a5.3,5.3,0,0,1,3.2.927l9.53,7.73c3.8,2.98,11.68,2.355,13.32-1.074l4.58-8.821a2.9,2.9,0,0,1,2.38-1.392l15.41-2.646c5.92-.94,7.01-5.477,1.85-7.652l-13.42-5.484a2.485,2.485,0,0,1-1.64-1.875l-0.06-9.257c-0.12-3.63-7.2-5.745-12.2-3.688l-12.78,5.493a6.431,6.431,0,0,1-3.48.271l-15.49-3.231c-6-1.278-11.54,1.912-9.32,5.374Zm0,0" transform="translate(-1129 -470)"/>
  </g>
</svg>
