<?xml version="1.0" encoding="UTF-8"?>
<svg width="88px" height="122px" viewBox="0 0 88 122" version="1.1" xmlns="http://www.w3.org/2000/svg" xmlns:xlink="http://www.w3.org/1999/xlink">
    <!-- Generator: Sketch 64 (93537) - https://sketch.com -->
    <title>huaban-</title>
    <desc>Created with Sketch.</desc>
    <defs>
        <polygon id="path-1" points="0.0124485632 0.113074449 87.4689996 0.113074449 87.4689996 85.8948788 0.0124485632 85.8948788"></polygon>
        <polygon id="path-3" points="0.0124485632 0.0912894637 87.4689996 0.0912894637 87.4689996 110.714202 0.0124485632 110.714202"></polygon>
    </defs>
    <g id="页面-1" stroke="none" stroke-width="1" fill="none" fill-rule="evenodd">
        <g id="首页备份-8" transform="translate(-80.000000, -1809.000000)">
            <g id="编组-22" transform="translate(80.000000, 1681.000000)">
                <g id="huaban-" transform="translate(0.000000, 128.000000)">
                    <polygon id="Fill-1" fill="#D1D5E0" points="20.8853695 121.997164 27.0115149 118.460528 34.5706975 96.073239 30.4437913 93.6930738"></polygon>
                    <polygon id="Fill-2" fill="#E1E4EF" points="14.1002801 118.078772 20.8853695 121.997164 30.4437913 93.6930738 23.6587019 89.7744735"></polygon>
                    <polygon id="Fill-3" fill="#D1D5E0" points="57.6766831 109.416646 67.2409143 148.760123 73.3622878 145.223279 65.8031052 114.106643"></polygon>
                    <g id="编组" transform="translate(0.000000, 62.865244)">
                        <mask id="mask-2" fill="white">
                            <use xlink:href="#path-1"></use>
                        </mask>
                        <g id="Clip-5"></g>
                        <polygon id="Fill-4" fill="#E1E4EF" mask="url(#mask-2)" points="50.8915938 42.6336319 60.454995 81.9779384 67.2409143 85.8948788 57.6766831 46.5514022"></polygon>
                        <polygon id="Fill-6" fill="#00A66E" mask="url(#mask-2)" points="0.00165980843 4.52609011 35.6047581 25.0799129 37.0353055 25.9098171 53.7329783 35.5445901 60.5166154 39.4623604 63.340157 41.0920848 79.1083371 50.1975864 87.4689996 45.374598 82.2918496 42.3848681 82.2918496 45.89889 78.9089526 47.8489574 62.7040354 38.4946921 62.4502922 38.3463467 55.6668626 34.4277465 37.6705972 24.0425326 37.5386424 23.9641066 30.7527231 20.0471662 7.6531692 6.7087382 7.6531692 0.113074449"></polygon>
                        <polygon id="Fill-7" fill="#02CE8A" mask="url(#mask-2)" points="0 4.52774992 0 13.2523255 23.6587019 26.9092292 30.4437913 30.8278295 34.5706975 33.2079947 57.6766831 46.5514022 79.1083371 58.921332 79.1083371 50.1975864 63.340157 41.0920848 60.5166154 39.4623604 53.731526 35.5445901 37.0353055 25.9098171 35.6047581 25.0815727 28.8188388 21.1638023"></polygon>
                    </g>
                    <polygon id="Fill-8" fill="#009664" points="79.1083371 113.062831 79.1083371 121.786576 87.4689996 116.963588 87.4689996 108.239842"></polygon>
                    <polygon id="Fill-9" fill="#E1E4EF" points="7.6531692 18.0591307 7.6531692 69.5739825 30.7527231 82.9124105 37.5386424 86.8293509 37.6705972 86.9077769 55.6668626 97.2929908 62.4502922 101.211591 62.7040354 101.359936 78.9089526 110.714202 78.9089526 59.1935406"></polygon>
                    <g id="编组">
                        <mask id="mask-4" fill="white">
                            <use xlink:href="#path-3"></use>
                        </mask>
                        <g id="Clip-11"></g>
                        <polygon id="Fill-10" fill="#D1D5E0" mask="url(#mask-4)" points="78.9089526 59.1935406 78.9089526 110.714202 82.2918496 108.764134 82.2918496 57.4737716 79.1083371 59.3103496"></polygon>
                        <polygon id="Fill-12" fill="#00A66E" mask="url(#mask-4)" points="0.00165980843 4.91427781 7.6531692 9.33455514 78.9089526 50.4697949 79.1083371 50.5857741 82.2918496 48.7500259 87.4689996 45.7627857 8.36066254 0.0912894637"></polygon>
                        <polygon id="Fill-13" fill="#02CE8A" mask="url(#mask-4)" points="0.00165980843 4.91427781 0.00165980843 13.6388533 7.6531692 18.0591307 78.9089526 59.1935406 78.9089526 50.4697949 7.6531692 9.33455514"></polygon>
                    </g>
                    <polygon id="Fill-14" fill="#009664" points="78.9089526 50.4697949 78.9089526 59.1935406 79.1083371 59.3103496 87.4689996 54.4865313 87.4689996 45.7627857 82.2918496 48.7500259 79.1083371 50.5857741"></polygon>
                </g>
            </g>
        </g>
    </g>
</svg>