<?xml version="1.0" encoding="UTF-8"?>
<svg width="119px" height="88px" viewBox="0 0 119 88" version="1.1" xmlns="http://www.w3.org/2000/svg" xmlns:xlink="http://www.w3.org/1999/xlink">
    <!-- Generator: Sketch 64 (93537) - https://sketch.com -->
    <title>编组</title>
    <desc>Created with Sketch.</desc>
    <defs>
        <path d="M1.08992248,0.157364341 C1.07674419,0.165891473 1.06356589,0.173643411 1.0496124,0.180620155 L1.0496124,0.180620155 C1.04108527,0.186046512 1.03333333,0.190697674 1.0248062,0.195348837 L1.0248062,0.195348837 L0.957364341,24.2077519 C0.987596899,24.1899225 1.01705426,24.172093 1.04728682,24.155814 L1.04728682,24.155814 L1.04806202,24.1542636 L1.04806202,24.0868217 L1.11550388,0.142635659 C1.10775194,0.147286822 1.09844961,0.152713178 1.08992248,0.157364341 L1.08992248,0.157364341 Z" id="path-1"></path>
        <path d="M0.429457364,0.602325581 C0.425581395,0.60620155 0.420155039,0.609302326 0.41627907,0.613178295 L0.41627907,0.613178295 C0.411627907,0.615503876 0.408527132,0.619379845 0.403875969,0.621705426 L0.403875969,0.621705426 C0.294573643,0.708527132 0.190697674,0.796899225 0.0937984496,0.886821705 L0.0937984496,0.886821705 L0.0255813953,24.8984496 C0.289147287,24.6550388 0.6,24.424031 0.957364341,24.2085271 L0.957364341,24.2085271 L1.0248062,0.196124031 C0.809302326,0.326356589 0.610852713,0.46124031 0.429457364,0.602325581 L0.429457364,0.602325581 Z" id="path-3"></path>
        <path d="M0.810852713,0.165891473 C0.80620155,0.170542636 0.800775194,0.175193798 0.796124031,0.179844961 L0.796124031,0.179844961 C0.793023256,0.182945736 0.789922481,0.186046512 0.787596899,0.188372093 L0.787596899,0.188372093 C0.668992248,0.303875969 0.560465116,0.420930233 0.462790698,0.540310078 L0.462790698,0.540310078 C0.448062016,0.558139535 0.434108527,0.575968992 0.420155039,0.59379845 L0.420155039,0.59379845 L0.351937984,24.6062016 C0.482170543,24.4410853 0.631782946,24.2790698 0.800775194,24.124031 L0.800775194,24.124031 L0.868992248,0.110852713 C0.849612403,0.129457364 0.830232558,0.147286822 0.810852713,0.165891473 L0.810852713,0.165891473 Z" id="path-5"></path>
        <path d="M1.13953488,0.666666667 C1.05116279,0.784496124 0.972868217,0.904651163 0.904651163,1.0255814 L0.904651163,1.0255814 L0.836434109,25.0379845 C0.919379845,24.8914729 1.01627907,24.7472868 1.12635659,24.6062016 L1.12635659,24.6062016 L1.19534884,0.59379845 C1.17674419,0.617829457 1.15813953,0.641860465 1.13953488,0.666666667 L1.13953488,0.666666667 Z" id="path-7"></path>
        <path d="M0.719379845,0.644186047 C0.719379845,0.644186047 0.719379845,0.64496124 0.719379845,0.645736434 L0.719379845,0.645736434 C0.717829457,0.648062016 0.717054264,0.651162791 0.715503876,0.653488372 L0.715503876,0.653488372 L0.647286822,24.6658915 C0.698449612,24.5302326 0.76124031,24.396124 0.836434109,24.2627907 L0.836434109,24.2627907 L0.904651163,0.250387597 C0.831007752,0.379844961 0.769767442,0.511627907 0.719379845,0.644186047 L0.719379845,0.644186047 Z" id="path-9"></path>
        <path d="M0.704651163,0.684496124 C0.659689922,0.806976744 0.625581395,0.929457364 0.600775194,1.05193798 L0.600775194,1.05193798 L0.533333333,25.0635659 C0.559689922,24.9302326 0.597674419,24.7984496 0.647286822,24.6666667 L0.647286822,24.6666667 L0.715503876,0.653488372 C0.711627907,0.664341085 0.707751938,0.674418605 0.704651163,0.684496124 L0.704651163,0.684496124 Z" id="path-11"></path>
        <path d="M0.560465116,0.575968992 C0.558914729,0.609302326 0.556589147,0.643410853 0.555813953,0.676744186 L0.555813953,0.676744186 L0.487596899,24.6883721 C0.491472868,24.5550388 0.506976744,24.4217054 0.53255814,24.2891473 L0.53255814,24.2891473 L0.600775194,0.27751938 C0.581395349,0.376744186 0.56744186,0.475968992 0.560465116,0.575968992 L0.560465116,0.575968992 Z" id="path-13"></path>
        <path d="M0.596821705,0.737209302 L0.486821705,24.7100775 C0.486821705,24.7031008 0.486821705,24.696124 0.488071705,24.6891473 L0.488071705,24.6891473 L0.598071705,0.675968992 C0.596821705,0.696899225 0.596821705,0.717054264 0.596821705,0.737209302 L0.596821705,0.737209302 Z" id="path-15"></path>
        <path d="M0.523255814,0.550387597 C0.520930233,0.550387597 0.519379845,0.551937984 0.517829457,0.552713178 L0.517829457,0.552713178 C0.511627907,0.556589147 0.505426357,0.560465116 0.499224806,0.563565891 L0.499224806,0.563565891 L0.431782946,24.5775194 C0.46124031,24.5589147 0.491472868,24.5410853 0.521705426,24.524031 L0.521705426,24.524031 L0.589922481,0.510077519 C0.56744186,0.523255814 0.545736434,0.536434109 0.523255814,0.550387597 L0.523255814,0.550387597 Z" id="path-17"></path>
        <path d="M0.551162791,1.07286822 C0.478294574,1.13333333 0.407751938,1.19379845 0.340310078,1.25581395 L0.340310078,1.25581395 L0.273643411,25.2682171 C0.536434109,25.024031 0.848062016,24.7930233 1.20620155,24.5782946 L1.20620155,24.5782946 L1.2744186,0.563565891 C1.00775194,0.724806202 0.765891473,0.895348837 0.551162791,1.07286822 L0.551162791,1.07286822 Z" id="path-19"></path>
        <path d="M0.666666667,0.964341085 L0.598449612,24.9767442 C0.728682171,24.8108527 0.879069767,24.6496124 1.04806202,24.4937984 L1.04806202,24.4937984 L1.11550388,0.480620155 C0.946511628,0.637984496 0.796899225,0.799224806 0.666666667,0.964341085 L0.666666667,0.964341085 Z" id="path-21"></path>
        <path d="M0.375968992,0.620930233 L0.308527132,24.6317829 C0.390697674,24.4868217 0.487596899,24.3426357 0.598449612,24.2023256 L0.598449612,24.2023256 L0.666666667,0.189147287 C0.55503876,0.331782946 0.458914729,0.474418605 0.375968992,0.620930233 L0.375968992,0.620930233 Z" id="path-23"></path>
        <path d="M0.962015504,1.02403101 L0.89379845,25.0364341 C0.945736434,24.9 1.00852713,24.7651163 1.08372093,24.6325581 L1.08372093,24.6325581 L1.15116279,0.620155039 C1.07674419,0.752713178 1.01395349,0.887596899 0.962015504,1.02403101 L0.962015504,1.02403101 Z" id="path-25"></path>
        <path d="M0.933333333,0.329457364 C0.931782946,0.334883721 0.929457364,0.341085271 0.927906977,0.346511628 L0.927906977,0.346511628 C0.927906977,0.346511628 0.927906977,0.346511628 0.927131783,0.346511628 L0.927131783,0.346511628 C0.896124031,0.444186047 0.869767442,0.541860465 0.848837209,0.640310078 L0.848837209,0.640310078 C0.848837209,0.642635659 0.848837209,0.644186047 0.848837209,0.645736434 L0.848837209,0.645736434 L0.779844961,24.6581395 C0.806976744,24.5248062 0.84496124,24.3937984 0.894573643,24.2620155 L0.894573643,24.2620155 L0.962015504,0.248837209 C0.952713178,0.275193798 0.942635659,0.303100775 0.933333333,0.329457364 L0.933333333,0.329457364 Z" id="path-27"></path>
        <path d="M0.803100775,1.04496124 L0.734108527,25.0573643 C0.737984496,24.924031 0.754263566,24.7906977 0.779844961,24.6589147 L0.779844961,24.6589147 L0.848837209,0.645736434 C0.821705426,0.778294574 0.806976744,0.911627907 0.803100775,1.04496124 L0.803100775,1.04496124 Z" id="path-29"></path>
        <path d="M0.801550388,0.331782946 L0.733333333,24.344186 C0.733333333,24.324031 0.734108527,24.3031008 0.734108527,24.2829457 L0.734108527,24.2829457 L0.802325581,0.282170543 C0.801550388,0.299224806 0.801550388,0.315503876 0.801550388,0.331782946 L0.801550388,0.331782946 Z" id="path-31"></path>
        <path d="M0,24.548062 L2.76821705,28.5457364 L2.83565891,4.53255814 C0.962790698,3.45116279 0.0635658915,1.99922481 0.0682170543,0.534108527 L0.0682170543,0.534108527 L0,24.548062 Z" id="path-33"></path>
        <path d="M47.4968992,2.20852713 L3.11007752,28.003876 C-0.745736434,30.2434109 -1.04496124,34.075969 2.83565891,36.3155039 L2.83565891,36.3155039 L64.5147287,71.9255814 C68.3945736,74.1666667 74.9744186,73.9612403 78.8302326,71.720155 L78.8302326,71.720155 L123.217054,45.9255814 C127.072868,43.6852713 126.717829,40.2728682 122.837209,38.0325581 L122.837209,38.0325581 L116.026357,34.1007752 L112.004651,36.4379845 C109.245736,38.0418605 104.835659,38.1046512 102.064341,36.503876 L102.064341,36.503876 C99.2875969,34.9007752 99.3829457,32.3465116 102.14031,30.7426357 L102.14031,30.7426357 L106.162791,28.4062016 L77.7976744,12.0294574 L73.7767442,14.3666667 C71.0170543,15.9697674 66.6023256,16.0302326 63.8302326,14.4294574 L63.8302326,14.4294574 C61.0589147,12.8294574 61.1488372,10.272093 63.9062016,8.66899225 L63.9062016,8.66899225 L67.9286822,6.33100775 L61.1581395,2.42248062 C59.1263566,1.24883721 56.5317829,0.631007752 53.9682171,0.631007752 L53.9682171,0.631007752 C51.6379845,0.631007752 49.3325581,1.14186047 47.4968992,2.20852713 L47.4968992,2.20852713 Z" id="path-35"></path>
        <linearGradient x1="50%" y1="0%" x2="50%" y2="100%" id="linearGradient-37">
            <stop stop-color="#F2F2F2" offset="0%"></stop>
            <stop stop-color="#DADADA" offset="100%"></stop>
        </linearGradient>
        <polygon id="path-38" points="0.343410853 18.9178295 64.2782946 55.8317829 95.8868217 37.4627907 31.9511628 0.549612403"></polygon>
        <polygon id="path-40" points="0.712403101 18.6224806 0.645736434 42.6356589 32.251938 24.2674419 32.3209302 0.253488372"></polygon>
        <polygon id="path-42" points="0.275968992 24.3271318 64.2116279 61.2410853 64.2790698 37.2271318 0.343410853 0.313178295"></polygon>
    </defs>
    <g id="页面-1" stroke="none" stroke-width="1" fill="none" fill-rule="evenodd">
        <g id="首页备份-8" transform="translate(-80.000000, -492.000000)">
            <g id="编组-16" transform="translate(80.000000, 330.000000)">
                <g id="编组" transform="translate(0.000000, 162.000000)">
                    <polygon id="Fill-1" fill="#DCDCDC" points="63.9065891 8.81325581 63.8391473 32.8256589 67.8608527 30.4892248 67.9290698 6.47527132"></polygon>
                    <g transform="translate(62.790698, 8.671318)">
                        <mask id="mask-2" fill="white">
                            <use xlink:href="#path-1"></use>
                        </mask>
                        <g id="Clip-3"></g>
                        <polygon id="Fill-2" fill="#D4D4D4" mask="url(#mask-2)" points="-2.91860465 28.0837209 4.99224806 28.0837209 4.99224806 -3.73410853 -2.91860465 -3.73410853"></polygon>
                    </g>
                    <g transform="translate(62.790698, 8.671318)">
                        <mask id="mask-4" fill="white">
                            <use xlink:href="#path-3"></use>
                        </mask>
                        <g id="Clip-5"></g>
                        <polygon id="Fill-4" fill="#D1D1D1" mask="url(#mask-4)" points="-3.8503876 28.7736434 4.90155039 28.7736434 4.90155039 -3.68062016 -3.8503876 -3.68062016"></polygon>
                    </g>
                    <g transform="translate(62.015504, 9.446512)">
                        <mask id="mask-6" fill="white">
                            <use xlink:href="#path-5"></use>
                        </mask>
                        <g id="Clip-7"></g>
                        <polygon id="Fill-6" fill="#CECECE" mask="url(#mask-6)" points="-3.52403101 28.4821705 4.74496124 28.4821705 4.74496124 -3.76511628 -3.52403101 -3.76511628"></polygon>
                    </g>
                    <g transform="translate(61.240310, 9.446512)">
                        <mask id="mask-8" fill="white">
                            <use xlink:href="#path-7"></use>
                        </mask>
                        <g id="Clip-9"></g>
                        <polygon id="Fill-8" fill="#CBCBCB" mask="url(#mask-8)" points="-3.03953488 28.9131783 5.07131783 28.9131783 5.07131783 -3.28217054 -3.03953488 -3.28217054"></polygon>
                    </g>
                    <g transform="translate(61.240310, 10.221705)">
                        <mask id="mask-10" fill="white">
                            <use xlink:href="#path-9"></use>
                        </mask>
                        <g id="Clip-11"></g>
                        <polygon id="Fill-10" fill="#C8C8C8" mask="url(#mask-10)" points="-3.22868217 28.5418605 4.78062016 28.5418605 4.78062016 -3.62635659 -3.22868217 -3.62635659"></polygon>
                    </g>
                    <g transform="translate(61.240310, 10.221705)">
                        <mask id="mask-12" fill="white">
                            <use xlink:href="#path-11"></use>
                        </mask>
                        <g id="Clip-13"></g>
                        <polygon id="Fill-12" fill="#C5C5C5" mask="url(#mask-12)" points="-3.34263566 28.9387597 4.59147287 28.9387597 4.59147287 -3.22248062 -3.34263566 -3.22248062"></polygon>
                    </g>
                    <g transform="translate(61.240310, 10.996899)">
                        <mask id="mask-14" fill="white">
                            <use xlink:href="#path-13"></use>
                        </mask>
                        <g id="Clip-15"></g>
                        <polygon id="Fill-14" fill="#C2C2C2" mask="url(#mask-14)" points="-3.38837209 28.5643411 4.47751938 28.5643411 4.47751938 -3.6 -3.38837209 -3.6"></polygon>
                    </g>
                    <g transform="translate(61.240310, 10.996899)">
                        <mask id="mask-16" fill="white">
                            <use xlink:href="#path-15"></use>
                        </mask>
                        <g id="Clip-17"></g>
                        <polygon id="Fill-16" fill="#BFBFBF" mask="url(#mask-16)" points="-3.38992248 28.6263566 4.43100775 28.6263566 4.43100775 -3.2 -3.38992248 -3.2"></polygon>
                    </g>
                    <polygon id="Fill-18" fill="#DCDCDC" points="102.140543 30.8883721 102.073101 54.9 106.094806 52.5627907 106.163023 28.5503876"></polygon>
                    <g transform="translate(101.550388, 30.376744)">
                        <mask id="mask-18" fill="white">
                            <use xlink:href="#path-17"></use>
                        </mask>
                        <g id="Clip-20"></g>
                        <polygon id="Fill-19" fill="#D4D4D4" mask="url(#mask-18)" points="-3.44418605 28.4534884 4.46666667 28.4534884 4.46666667 -3.36511628 -3.44418605 -3.36511628"></polygon>
                    </g>
                    <g transform="translate(100.775194, 30.376744)">
                        <mask id="mask-20" fill="white">
                            <use xlink:href="#path-19"></use>
                        </mask>
                        <g id="Clip-22"></g>
                        <polygon id="Fill-21" fill="#D1D1D1" mask="url(#mask-20)" points="-3.60310078 29.144186 5.1503876 29.144186 5.1503876 -3.31162791 -3.60310078 -3.31162791"></polygon>
                    </g>
                    <g transform="translate(100.000000, 31.151938)">
                        <mask id="mask-22" fill="white">
                            <use xlink:href="#path-21"></use>
                        </mask>
                        <g id="Clip-24"></g>
                        <polygon id="Fill-23" fill="#CECECE" mask="url(#mask-22)" points="-3.27751938 28.8534884 4.99147287 28.8534884 4.99147287 -3.39457364 -3.27751938 -3.39457364"></polygon>
                    </g>
                    <g transform="translate(100.000000, 31.927132)">
                        <mask id="mask-24" fill="white">
                            <use xlink:href="#path-23"></use>
                        </mask>
                        <g id="Clip-26"></g>
                        <polygon id="Fill-25" fill="#CBCBCB" mask="url(#mask-24)" points="-3.56744186 28.5085271 4.54263566 28.5085271 4.54263566 -3.68682171 -3.56744186 -3.68682171"></polygon>
                    </g>
                    <g transform="translate(99.224806, 31.927132)">
                        <mask id="mask-26" fill="white">
                            <use xlink:href="#path-25"></use>
                        </mask>
                        <g id="Clip-28"></g>
                        <polygon id="Fill-27" fill="#C8C8C8" mask="url(#mask-26)" points="-2.98217054 28.9116279 5.02713178 28.9116279 5.02713178 -3.25581395 -2.98217054 -3.25581395"></polygon>
                    </g>
                    <g transform="translate(99.224806, 32.702326)">
                        <mask id="mask-28" fill="white">
                            <use xlink:href="#path-27"></use>
                        </mask>
                        <g id="Clip-30"></g>
                        <polygon id="Fill-29" fill="#C5C5C5" mask="url(#mask-28)" points="-3.09612403 28.5341085 4.8379845 28.5341085 4.8379845 -3.62713178 -3.09612403 -3.62713178"></polygon>
                    </g>
                    <g transform="translate(99.224806, 32.702326)">
                        <mask id="mask-30" fill="white">
                            <use xlink:href="#path-29"></use>
                        </mask>
                        <g id="Clip-32"></g>
                        <polygon id="Fill-31" fill="#C2C2C2" mask="url(#mask-30)" points="-3.14186047 28.9333333 4.72403101 28.9333333 4.72403101 -3.23100775 -3.14186047 -3.23100775"></polygon>
                    </g>
                    <g transform="translate(99.224806, 33.477519)">
                        <mask id="mask-32" fill="white">
                            <use xlink:href="#path-31"></use>
                        </mask>
                        <g id="Clip-34"></g>
                        <polygon id="Fill-33" fill="#BFBFBF" mask="url(#mask-32)" points="-3.14263566 28.220155 4.67829457 28.220155 4.67829457 -3.60620155 -3.14263566 -3.60620155"></polygon>
                    </g>
                    <g transform="translate(0.000000, 31.927132)">
                        <mask id="mask-34" fill="white">
                            <use xlink:href="#path-33"></use>
                        </mask>
                        <g id="Clip-36"></g>
                        <polygon id="Fill-35" fill="#B6B6B6" mask="url(#mask-34)" points="-3.87596899 32.4224806 6.71162791 32.4224806 6.71162791 -3.34108527 -3.87596899 -3.34108527"></polygon>
                    </g>
                    <polygon id="Fill-53" fill="#DCDCDC" points="78.8291473 71.864186 78.7624806 95.8773643 123.148527 70.0827907 123.217519 46.0696124"></polygon>
                    <polygon id="Fill-54" fill="#B8B8B8" points="2.7679845 60.4725581 64.4462791 96.084186 64.5144961 72.0702326 2.83542636 36.460155"></polygon>
                    <path d="M122.837209,38.1766667 C126.717054,40.4177519 127.072093,43.8293798 123.217054,46.0696899 L78.8294574,71.8642636 C74.9744186,74.1053488 68.3945736,74.3107752 64.5147287,72.0704651 L2.83565891,36.4596124 C-1.04496124,34.2200775 -0.745736434,30.3875194 3.10930233,28.1472093 L47.4968992,2.35263566 C51.351938,0.111550388 57.2782946,0.32627907 61.1581395,2.56658915 L67.9286822,6.47511628 L63.9062016,8.81310078 C61.148062,10.4162016 61.0589147,12.9735659 63.8302326,14.5743411 C66.6023256,16.1743411 71.0170543,16.113876 73.775969,14.5115504 L77.7976744,12.1735659 L106.162791,28.5503101 L102.14031,30.8875194 C99.3821705,32.4906202 99.2875969,35.0448837 102.064341,36.6479845 C104.835659,38.2487597 109.245736,38.185969 112.004651,36.582093 L116.026357,34.2448837 L122.837209,38.1766667 Z" id="Fill-55" fill="#FFFFFF"></path>
                    <g transform="translate(0.000000, 0.144186)">
                        <mask id="mask-36" fill="white">
                            <use xlink:href="#path-35"></use>
                        </mask>
                        <g id="Clip-58"></g>
                        <polygon id="Fill-57" fill="url(#linearGradient-37)" mask="url(#mask-36)" points="-3.80852713 77.3837209 129.810078 77.3837209 129.810078 -3.24496124 -3.80852713 -3.24496124"></polygon>
                    </g>
                    <g transform="translate(14.728682, 18.748837)">
                        <mask id="mask-39" fill="white">
                            <use xlink:href="#path-38"></use>
                        </mask>
                        <g id="Clip-82"></g>
                        <polygon id="Fill-81" fill="#02CE8A" mask="url(#mask-39)" points="-3.53255814 59.7069767 99.7620155 59.7069767 99.7620155 -3.32635659 -3.53255814 -3.32635659"></polygon>
                    </g>
                    <g transform="translate(78.294574, 55.958140)">
                        <mask id="mask-41" fill="white">
                            <use xlink:href="#path-40"></use>
                        </mask>
                        <g id="Clip-84"></g>
                        <polygon id="Fill-83" fill="#24DEA0" mask="url(#mask-41)" points="-3.23023256 46.5116279 36.1968992 46.5116279 36.1968992 -3.62170543 -3.23023256 -3.62170543"></polygon>
                    </g>
                    <g transform="translate(14.728682, 37.353488)">
                        <mask id="mask-43" fill="white">
                            <use xlink:href="#path-42"></use>
                        </mask>
                        <g id="Clip-86"></g>
                        <polygon id="Fill-85" fill="#009664" mask="url(#mask-43)" points="-3.60077519 65.1170543 68.1542636 65.1170543 68.1542636 -3.5620155 -3.60077519 -3.5620155"></polygon>
                    </g>
                </g>
            </g>
        </g>
    </g>
</svg>