<svg id="电子班牌" xmlns="http://www.w3.org/2000/svg" width="119" height="88" viewBox="0 0 119 88">
  <metadata><?xpacket begin="﻿" id="W5M0MpCehiHzreSzNTczkc9d"?>
<x:xmpmeta xmlns:x="adobe:ns:meta/" x:xmptk="Adobe XMP Core 5.6-c142 79.160924, 2017/07/13-01:06:39        ">
   <rdf:RDF xmlns:rdf="http://www.w3.org/1999/02/22-rdf-syntax-ns#">
      <rdf:Description rdf:about=""/>
   </rdf:RDF>
</x:xmpmeta>
                                                                                                    
                                                                                                    
                                                                                                    
                                                                                                    
                                                                                                    
                                                                                                    
                                                                                                    
                                                                                                    
                                                                                                    
                                                                                                    
                                                                                                    
                                                                                                    
                                                                                                    
                                                                                                    
                                                                                                    
                                                                                                    
                                                                                                    
                                                                                                    
                                                                                                    
                                                                                                    
                           
<?xpacket end="w"?></metadata>
<defs>
    <style>
      .cls-1 {
        fill: #3066c0;
      }

      .cls-1, .cls-2, .cls-3, .cls-5, .cls-6, .cls-7 {
        fill-rule: evenodd;
      }

      .cls-2 {
        fill: #1258c8;
      }

      .cls-3 {
        fill: #0d4193;
      }

      .cls-4 {
        fill: #dcdcdd;
      }

      .cls-5 {
        fill: #c5c5c5;
      }

      .cls-6 {
        fill: #0672ff;
      }

      .cls-7 {
        fill: #fff;
      }
    </style>
  </defs>
  <path id="形状_19" data-name="形状 19" class="cls-1" d="M943,240.068l-60.011,34.015a11.58,11.58,0,0,1-10.309,0L824,246.491V234.083l3.7,1.211,55.284-31.336a11.582,11.582,0,0,1,10.31,0l46.042,26.1,0.2-.532L943,227.829v12.239Z" transform="translate(-824 -193)"/>
  <path id="矩形_5" data-name="矩形 5" class="cls-2" d="M872.68,274.083L824,246.491V234.083l3.7,1.211,50.457-28.6v68.582A10.841,10.841,0,0,1,872.68,274.083Z" transform="translate(-824 -193)"/>
  <path id="形状_26" data-name="形状 26" class="cls-1" d="M909.185,266.157v-9.542h4.47v9.542h-4.47Z" transform="translate(-824 -193)"/>
  <path id="形状_24" data-name="形状 24" class="cls-3" d="M929.119,261.9v3.42l-0.1.02-6.651,3.77-8.5-.758-0.03-.017-20.6,11.675a9.551,9.551,0,0,1-8.487.012,3.408,3.408,0,0,1-1.589-1.66l-0.178-.624v-5.113l23.066-12.418v5.443l-0.327.2c-0.025.785-.559,0.506-1.615,1.105l-15.166,8.6h1.483l19.828-11.412,4.474-2.217,1.588-4.305,3.045,1.726,6.123-1.662,2.152-1.06,2.969-1.524H932.1V260.1l0.094,0.054Zm-4.053-3.5-3.034,1.719,2.574,1.459,2.083-.584,1.477-.837Z" transform="translate(-824 -193)"/>
  <rect id="矩形_6" data-name="矩形 6" class="cls-4" x="97.188" y="60.438" width="4.312" height="4.218"/>
  <path id="矩形_6_拷贝" data-name="矩形 6 拷贝" class="cls-5" d="M925.487,253.434h3.227v2.121l-3.227,2.12v-4.241Z" transform="translate(-824 -193)"/>
  <path id="形状_25" data-name="形状 25" class="cls-3" d="M885.965,262.4v8.036l6.7-2.922,11.161-6.575-1.488-3.652-4.465.73-5.952,4.383h-5.952Z" transform="translate(-824 -193)"/>
  <path id="形状_17_拷贝_2" data-name="形状 17 拷贝 2" class="cls-6" d="M926.507,258.266l2.983,1.691L922.366,264l-8.5-.758-0.03-.018-20.6,11.675a9.548,9.548,0,0,1-8.487.013c-2.334-1.323-2.324-3.481.023-4.811l16.954-9.61a0.9,0.9,0,0,0,.008-1.723,3.421,3.421,0,0,0-3.04,0l-5.29,3a9.347,9.347,0,0,1-7.6.305l2.441-1.383a3.918,3.918,0,0,0,2.791-.264l5.289-3a8.782,8.782,0,0,1,7.8-.011c2.145,1.216,2.136,3.2-.021,4.422l-16.954,9.61a1.109,1.109,0,0,0-.01,2.112,4.189,4.189,0,0,0,3.725-.006l20.616-11.685-2.305-5.324,7.135-4.044,3.045,1.726,6.123-2.91,6.7,3.73ZM922.032,255l3.455,1.612,2.679-1.575-2.679-1.606Z" transform="translate(-824 -193)"/>
  <g id="组_8" data-name="组 8">
    <path id="形状_16_拷贝_2" data-name="形状 16 拷贝 2" class="cls-6" d="M943,230.255l-59.789,33.79a12.152,12.152,0,0,1-10.792,0L824,236.684v-9.235l58.742-33.2a12.154,12.154,0,0,1,10.793,0L943,222.2v8.052Z" transform="translate(-824 -193)"/>
    <path id="矩形_3" data-name="矩形 3" class="cls-7" d="M828.742,230.607l56.816-32.11a5.821,5.821,0,0,1,5.166,0l36.156,20.434c1.427,0.806,1.427,2.113,0,2.919l-56.817,32.11a5.819,5.819,0,0,1-5.165,0l-36.157-20.434C827.316,232.72,827.316,231.413,828.742,230.607Z" transform="translate(-824 -193)"/>
    <path id="矩形_3_拷贝" data-name="矩形 3 拷贝" class="cls-6" d="M837.781,231.337l49.069-27.732a2.91,2.91,0,0,1,2.583,0L917.2,219.3a0.765,0.765,0,0,1,0,1.459l-49.069,27.732a2.908,2.908,0,0,1-2.582,0L837.781,232.8A0.765,0.765,0,0,1,837.781,231.337Z" transform="translate(-824 -193)"/>
    <path id="矩形_4" data-name="矩形 4" class="cls-7" d="M921.393,230.79l10.33-5.838a6.545,6.545,0,0,1,5.811,0c1.6,0.907,1.605,2.377,0,3.284l-10.33,5.838a6.545,6.545,0,0,1-5.811,0C919.788,233.167,919.788,231.7,921.393,230.79Z" transform="translate(-824 -193)"/>
  </g>
</svg>
