<svg xmlns="http://www.w3.org/2000/svg" viewBox="0 0 334.95 273.91"><defs><style>.cls-1{fill:#a325ad;opacity:0.2;}.cls-2{fill:#c9c9c9;}.cls-3{fill:#4196ff;}.cls-4{fill:none;}.cls-5{fill:#2db27f;}</style></defs><title>资源 2移动</title><g id="图层_2" data-name="图层 2"><g id="图层_1-2" data-name="图层 1"><circle class="cls-1" cx="221.35" cy="160.31" r="113.6"/><path class="cls-2" d="M40.91,91.36l66.84-70.15L102.81,16a16.56,16.56,0,0,0-24.22,0L10.45,87.54l32.4,34a16.66,16.66,0,0,0,24.36,0l1.24-1.3ZM194.76,52.78a71,71,0,0,0,51.37-22.32l8.81-9.25L250,16a16.56,16.56,0,0,0-24.22,0L215.67,26.65a71.34,71.34,0,0,1-44.37,22,69.38,69.38,0,0,0,23.46,4.17m-89.47,72.36c.19-6.12-6.86-9.33-11-5l-5,5.23a16.63,16.63,0,0,1-14.78,5L70.82,247.51H101.4Z"/><path class="cls-3" d="M243.12,258H79.17a10.44,10.44,0,0,1-10.44-10.77L72.42,131a27.08,27.08,0,0,1-37.13-2.2l-32.41-34a10.45,10.45,0,0,1,0-14.41L71,8.82a27,27,0,0,1,39.34,0l10.12,10.62A60.15,60.15,0,0,0,164.3,38.53a60.13,60.13,0,0,0,43.8-19.09L218.22,8.82a27,27,0,0,1,39.35,0l68.14,71.52a10.45,10.45,0,0,1,0,14.41l-32.41,34a27.1,27.1,0,0,1-39.48,0l-4.16-4.37,3.88,122.36c0,.25,0,.5,0,.76A10.44,10.44,0,0,1,243.12,258ZM90,237.06H232.34l-3.89-122.24a17.19,17.19,0,0,1,4.81-12.61A17,17,0,0,1,245.37,97a16.58,16.58,0,0,1,12.07,5.24L269,114.36a6.21,6.21,0,0,0,9.22,0l25.55-26.81L242.44,23.24a6.11,6.11,0,0,0-9.1,0L223.23,33.85a82.73,82.73,0,0,1-27,18.91,79.78,79.78,0,0,1-32,6.66,79.83,79.83,0,0,1-32-6.66,82.8,82.8,0,0,1-27-18.91L95.25,23.24a6.11,6.11,0,0,0-9.1,0L24.87,87.55l25.55,26.81a6.21,6.21,0,0,0,9.22,0l5-5.23a16.55,16.55,0,0,1,12.07-5.24,17,17,0,0,1,12.11,5.16,17.19,17.19,0,0,1,4.81,12.61Z"/><rect class="cls-4" x="0.06" width="328.96" height="258.45"/><path class="cls-5" d="M184.86,120.85h-45.7a10.45,10.45,0,0,1,0-20.89h45.7a10.45,10.45,0,1,1,0,20.89Zm0,45.7h-45.7a10.45,10.45,0,0,1,0-20.89h45.7a10.45,10.45,0,1,1,0,20.89Z"/></g></g></svg>