<?xml version="1.0" encoding="UTF-8"?>
<svg width="18px" height="18px" viewBox="0 0 18 18" version="1.1" xmlns="http://www.w3.org/2000/svg" xmlns:xlink="http://www.w3.org/1999/xlink">
    <!-- Generator: Sketch 64 (93537) - https://sketch.com -->
    <title>Star+selected</title>
    <desc>Created with Sketch.</desc>
    <g id="页面-1" stroke="none" stroke-width="1" fill="none" fill-rule="evenodd">
        <g id="评价记录" transform="translate(-818.000000, -297.000000)" fill="#FADB14">
            <g id="编组-16" transform="translate(100.000000, 224.000000)">
                <g id="编组-3" transform="translate(697.000000, 18.000000)">
                    <g id="Rate/_Resource/Star+selected" transform="translate(21.000000, 55.000000)">
                        <path d="M14.3886837,6.37641211 C14.1796604,6.17267922 14.0842913,5.87914938 14.1336555,5.59147323 L14.9174679,1.02224826 C14.9787809,0.660183861 14.9175685,0.400689958 14.6206793,0.184424923 C14.4526922,0.0623018619 14.2528417,3.20934945e-06 14.052971,3.20934945e-06 C13.8994673,3.20934945e-06 13.7454607,0.0366944403 13.6040264,0.111042461 L9.41261655,2.37000729 C9.15428936,2.5058091 8.84567266,2.5058091 8.58734547,2.37000729 L4.57188854,0.111022345 C4.24651537,-0.0603442099 3.85260765,-0.0313774487 3.55473279,0.184404807 C3.2578436,0.400669842 3.02069836,0.659680966 3.08299701,1.02222814 L4.0431848,5.68631926 C4.09252887,5.9739954 3.99715983,6.26752525 3.7881566,6.47125814 L0.292230604,9.22104865 C0.028170413,9.47738437 -0.0659715611,9.86117384 0.0469988078,10.2106659 C0.16091462,10.560178 0.462651716,10.8145826 0.826627118,10.8676883 L5.37386551,11.6657025 C5.66260779,11.7077043 5.91220472,11.8890282 6.04138843,12.1506342 L8.13488064,16.568528 C8.2970945,16.8982261 8.63260604,17.1067867 9.00044367,17.1067867 C9.36828131,17.1067867 9.70282729,16.8982462 9.86600671,16.568528 L11.8773862,12.1507348 C12.0065498,11.8890483 12.2561869,11.7076439 12.5449896,11.6656623 L17.1742602,10.8676883 C17.5372902,10.8150654 17.8399727,10.560178 17.9529431,10.2106659 C18.0663962,9.86117384 17.9708059,9.47740448 17.7082142,9.22106876 L14.3886837,6.37641211 Z" id="Shape" transform="translate(9.000000, 8.553393) scale(1, -1) translate(-9.000000, -8.553393) "></path>
                    </g>
                </g>
            </g>
        </g>
    </g>
</svg>