<?xml version="1.0" encoding="UTF-8"?>
<svg width="119px" height="100px" viewBox="0 0 119 100" version="1.1" xmlns="http://www.w3.org/2000/svg" xmlns:xlink="http://www.w3.org/1999/xlink">
    <!-- Generator: Sketch 64 (93537) - https://sketch.com -->
    <title>bingtu-</title>
    <desc>Created with Sketch.</desc>
    <defs>
        <polygon id="path-1" points="0.0112359551 0.181109525 129.93839 0.181109525 129.93839 82.5588015 0.0112359551 82.5588015"></polygon>
    </defs>
    <g id="页面-1" stroke="none" stroke-width="1" fill="none" fill-rule="evenodd">
        <g id="首页备份-8" transform="translate(-80.000000, -751.000000)">
            <g id="编组-17备份" transform="translate(80.000000, 601.000000)">
                <g id="bingtu-" transform="translate(-16.000000, 150.000000)">
                    <polygon id="Fill-1" fill="#003DAC" points="129.935393 36.7518727 129.885019 54.8990637 64.9601124 55.9516854 65.011236 37.8052434"></polygon>
                    <g id="编组">
                        <mask id="mask-2" fill="white">
                            <use xlink:href="#path-1"></use>
                        </mask>
                        <g id="Clip-3"></g>
                        <polygon id="Fill-2" fill="#0040B4" mask="url(#mask-2)" points="65.011236 37.8052434 64.9601124 55.9516854 19.1764045 82.5588015 19.2269663 64.4116105"></polygon>
                        <path d="M0.0511235955,37.6194757 L-8.60969414e-05,55.7659176 C-0.0271535581,65.4576779 6.36853933,75.1640449 19.1764045,82.5588015 L19.2269663,64.4116105 C6.42116105,57.017603 0.0241573034,47.311236 0.0511235955,37.6194757 Z" id="Fill-4" fill="#D4D4D4" mask="url(#mask-2)"></path>
                        <path d="M110.795506,11.2061798 C123.057865,18.2850187 129.439513,27.4829588 129.93839,36.759176 L65.0142322,37.8082397 L19.2269663,64.4116105 C-6.22284644,49.7170412 -6.3582397,25.8874532 18.9277154,11.1988764 C44.2131086,-3.49044944 85.3421348,-3.49494382 110.795506,11.2061798 Z" id="Fill-5" fill="#0255EA" mask="url(#mask-2)"></path>
                    </g>
                    <path d="M134.070787,40.6310861 C134.113109,41.4335206 134.113109,42.2382022 134.070787,43.0413858 C133.55206,52.2131086 127.274906,61.2867041 115.222659,68.2850187 L69.1479401,41.6837079 L134.070787,40.6310861 Z" id="Fill-6" fill="#367BF7"></path>
                    <path d="M134.100749,41.8782772 C134.100749,42.2659176 134.0897,42.6537453 134.06779,43.0413858 C134.052434,43.3157303 134.031273,43.590824 134.004869,43.8649813 C133.995318,43.9550562 133.985019,44.0449438 133.974906,44.1350187 C133.955056,44.3192884 133.935393,44.5037453 133.910487,44.6872659 C133.896629,44.7955056 133.879026,44.9029963 133.862172,45.0114232 C133.838015,45.1773408 133.812547,45.3441948 133.786142,45.5088015 C133.766292,45.6235955 133.743633,45.7376404 133.723221,45.8533708 C133.694757,46.0031835 133.666105,46.1524345 133.633333,46.311985 C133.600375,46.4707865 133.559363,46.6455056 133.522097,46.8123596 C133.492135,46.9410112 133.463483,47.0698502 133.430712,47.1985019 C133.388951,47.3689139 133.340637,47.5400749 133.294569,47.7106742 C133.260112,47.8350187 133.228652,47.9578652 133.192884,48.0822097 C133.140262,48.2621723 133.083146,48.4406367 133.02603,48.6198502 C132.990262,48.7338951 132.955805,48.8496255 132.918539,48.9629213 C132.851311,49.1655431 132.778839,49.3659176 132.705618,49.5627341 C132.672846,49.6543071 132.642697,49.7456929 132.608427,49.8363296 C132.496442,50.1363296 132.378652,50.4318352 132.255056,50.7235955 C132.226592,50.7895131 132.195131,50.8567416 132.166667,50.9226592 C132.06779,51.1524345 131.968352,51.3724719 131.866667,51.6073034 C131.817603,51.7155431 131.763483,51.8217228 131.716667,51.9277154 C131.626779,52.1134831 131.537453,52.3007491 131.443071,52.4867041 C131.383146,52.6050562 131.318727,52.7235955 131.255805,52.8421348 C131.164419,53.0155431 131.071536,53.1895131 130.974157,53.3614232 C130.909176,53.4771536 130.843258,53.5926966 130.777528,53.7059925 C130.665543,53.9065543 130.550749,54.1003745 130.432959,54.2891386 C130.363483,54.4039326 130.292509,54.5179775 130.221536,54.6322097 C130.098689,54.829588 129.96985,55.0264045 129.841199,55.2224719 C129.770974,55.3284644 129.70206,55.4353933 129.631835,55.5398876 C129.47397,55.7724719 129.310861,56.0044944 129.144757,56.2370787 C129.096442,56.302809 129.053371,56.3687266 129.005056,56.4346442 C128.789888,56.7337079 128.566105,57.0284644 128.335581,57.3181648 C128.292509,57.3752809 128.244195,57.4308989 128.201124,57.4865169 C127.98015,57.7644195 127.752622,58.0417603 127.51779,58.3174157 L127.276404,58.6005618 C127.036517,58.8771536 126.791386,59.152809 126.539139,59.4279026 L126.398689,59.5779026 C126.098689,59.8968165 125.792135,60.2149813 125.478464,60.5303371 L125.217978,60.794382 C124.967041,61.040824 124.711798,61.2867041 124.451311,61.5308989 C124.351873,61.6224719 124.255993,61.7153558 124.151498,61.8067416 C123.992697,61.9567416 123.831086,62.097191 123.667228,62.2411985 C123.539888,62.3539326 123.414045,62.4672285 123.285393,62.5799625 C123.116292,62.7299625 122.940824,62.8792135 122.767416,63.020412 C122.639513,63.1279026 122.51367,63.2361423 122.383333,63.3421348 C122.197566,63.4921348 122.008801,63.6421348 121.818727,63.7921348 C121.694382,63.890824 121.571348,63.9910112 121.445693,64.0911985 C121.231273,64.2595506 121.012547,64.4241573 120.792322,64.5900749 C120.684831,64.6713483 120.581648,64.7531835 120.47191,64.8344569 C120.141386,65.0803371 119.805618,65.3237828 119.464045,65.5651685 L119.435393,65.5850187 C119.101873,65.8205993 118.76236,66.0539326 118.417978,66.2842697 C118.300936,66.3625468 118.18015,66.4342697 118.06161,66.5183521 C117.821723,66.6771536 117.580337,66.8359551 117.335206,66.9930712 C117.185393,67.0846442 117.042697,67.17603 116.897753,67.2674157 C116.670974,67.4078652 116.44794,67.5505618 116.216105,67.6895131 C115.886142,67.8893258 115.553371,68.0882022 115.216854,68.2893258 L115.165543,86.4359551 C115.465543,86.2602996 115.764794,86.0825843 116.064607,85.9026217 L116.166292,85.8397004 C116.39382,85.7007491 116.615543,85.5610487 116.842322,85.4205993 C116.992135,85.3277154 117.141386,85.2361423 117.291386,85.1432584 C117.535768,84.9932584 117.775655,84.828839 118.014794,84.6715356 C118.133333,84.5932584 118.25618,84.5215356 118.373221,84.4359551 C118.723596,84.2003745 119.068914,83.9632959 119.408427,83.7241573 L119.418539,83.7241573 C119.76161,83.4827715 120.097378,83.2391386 120.427341,82.9934457 C120.537828,82.9106742 120.644569,82.8265918 120.753558,82.7447566 C120.970787,82.5801498 121.188202,82.4162921 121.400936,82.2501873 C121.528277,82.1514981 121.651124,82.0513109 121.775468,81.9501873 C121.964232,81.8011236 122.152996,81.6511236 122.338764,81.5011236 C122.468914,81.393633 122.594757,81.2853933 122.723596,81.1777154 C122.897566,81.0279026 123.070974,80.8779026 123.240637,80.7374532 C123.370974,80.6247191 123.496816,80.5106742 123.62397,80.397191 C123.785768,80.2473783 123.947378,80.1089888 124.104682,79.9642322 L124.232584,79.8486891 C124.290449,79.7945693 124.343071,79.7411985 124.400187,79.6870787 C124.660674,79.4434457 124.915918,79.1983146 125.165356,78.9511236 L125.417041,78.7024345 C125.73221,78.3870787 126.038764,78.0696629 126.337266,77.75 L126.477715,77.6 C126.729963,77.3256554 126.975094,77.0498127 127.214981,76.7734082 L127.457865,76.4895131 C127.691199,76.2146067 127.918727,75.9372659 128.1397,75.6586142 C128.17397,75.6146067 128.211236,75.5730337 128.244195,75.5312734 L128.274157,75.4902622 C128.503933,75.1970037 128.726966,74.9022472 128.943633,74.6067416 C128.99176,74.540824 129.036517,74.4749064 129.083333,74.409176 C129.249251,74.1765918 129.413109,73.9460674 129.57191,73.711985 C129.643633,73.6074906 129.710861,73.5013109 129.781086,73.3945693 C129.911423,73.1985019 130.039326,73.0024345 130.162172,72.8043071 C130.233895,72.690824 130.30412,72.57603 130.372846,72.461236 C130.490637,72.2672285 130.605618,72.0734082 130.717416,71.878839 C130.758427,71.8078652 130.801498,71.7391386 130.840449,71.6689139 C130.865918,71.6243446 130.888577,71.5775281 130.914232,71.5329588 C131.073783,71.2425094 131.229588,70.9513109 131.383146,70.6580524 C131.477528,70.4720974 131.568914,70.2848315 131.65824,70.0990637 C131.709363,69.9923221 131.763483,69.8863296 131.808052,69.7794007 C131.914981,69.5518727 132.015169,69.3230337 132.108052,69.0932584 C132.136517,69.0275281 132.166667,68.9616105 132.195131,68.8958801 C132.318727,68.5966292 132.436517,68.3003745 132.548502,68.0076779 L132.557116,67.9835206 C132.588577,67.9009363 132.614232,67.8191011 132.644195,67.7363296 C132.717416,67.5337079 132.794195,67.3333333 132.858614,67.1372659 C132.89588,67.023221 132.930337,66.9074906 132.966105,66.7941948 C133.023221,66.6142322 133.08015,66.4357678 133.132959,66.2565543 C133.168727,66.1337079 133.201685,66.009176 133.234644,65.8848315 C133.280712,65.7136704 133.327528,65.5432584 133.370599,65.3720974 C133.40206,65.2434457 133.432022,65.1146067 133.462172,64.9859551 C133.500936,64.8198502 133.538951,64.6514981 133.573221,64.4840824 C133.583521,64.4357678 133.59588,64.3897004 133.604682,64.3340824 C133.625281,64.229588 133.641948,64.1226592 133.663296,64.0181648 C133.683708,63.9127341 133.706367,63.7883895 133.726217,63.6750936 C133.754682,63.5089888 133.77809,63.3421348 133.803745,63.1762172 C133.820599,63.0677903 133.836704,62.9602996 133.850562,62.8520599 C133.87397,62.6685393 133.893633,62.4840824 133.914794,62.2998127 C133.923596,62.2097378 133.935393,62.1198502 133.944944,62.0297753 C133.970412,61.755618 133.99176,61.4805243 134.007865,61.2061798 C134.017228,61.0174157 134.025281,60.8286517 134.031273,60.6413858 C134.037828,60.4533708 134.040637,60.2537453 134.040637,60.041573 L134.100749,41.8782772 Z" id="Fill-7" fill="#2069EB"></path>
                    <polygon id="Fill-8" fill="#2069EB" points="115.222659 68.2893258 115.171536 86.4359551 69.090824 59.8308989 69.1413858 41.6837079"></polygon>
                    <path d="M98.7820225,94.3353933 C99.2194757,94.1810861 99.6546816,94.0222846 100.087079,93.8606742 L100.494569,93.7106742 C101.04382,93.5022472 101.588764,93.2878277 102.13015,93.0685393 L102.458614,92.9316479 C102.898315,92.7509363 103.335019,92.5666667 103.769476,92.3771536 L104.241199,92.1709738 C104.686704,91.971161 105.128652,91.7715356 105.566854,91.5717228 L105.838202,91.4458801 C106.356742,91.2009363 106.870412,90.9514981 107.378652,90.6968165 L107.770787,90.4956929 C108.16367,90.2960674 108.55206,90.0926966 108.93764,89.8850187 L109.366292,89.6537453 C109.86367,89.3831461 110.356742,89.1088015 110.84176,88.8256554 L110.892884,70.6784644 C110.407865,70.9601124 109.914794,71.2344569 109.418914,71.5058052 L108.985768,71.7303371 C108.601124,71.9374532 108.213296,72.1400749 107.822097,72.3397004 L107.426217,72.5423221 C106.91779,72.7975655 106.405056,73.0477528 105.887828,73.2913858 L105.61367,73.4172285 C105.176217,73.6168539 104.735019,73.8166667 104.291011,74.0162921 L103.818539,74.2234082 C103.385393,74.4121723 102.948689,74.5964419 102.507678,74.7779026 L102.179963,74.9138577 C101.639326,75.1333333 101.094382,75.3477528 100.544195,75.5569288 L100.134644,75.7061798 C99.7022472,75.8685393 99.2677903,76.0265918 98.8318352,76.1816479 L98.3417603,76.3535581 C97.8172285,76.5363296 97.2897004,76.7142322 96.7593633,76.8867041 L96.6335206,76.9292135 C96.1544944,77.0842697 95.6717228,77.2342697 95.1867041,77.3782772 L94.8692884,77.4726592 C94.488764,77.5868914 94.1061798,77.7001873 93.7228464,77.8099251 L93.1897004,77.9599251 C92.8750936,78.0477528 92.561985,78.1346442 92.2460674,78.2202247 L91.6359551,78.3790262 C91.3367041,78.4550562 91.05,78.5290262 90.7552434,78.6050562 L90.1078652,78.7719101 C89.823221,78.8406367 89.538764,78.9093633 89.2541199,78.976779 L88.5810861,79.1265918 C88.2996255,79.1895131 88.0192884,79.2539326 87.7378277,79.3138577 L87.047191,79.4638577 C86.7685393,79.5217228 86.4897004,79.5786517 86.2095506,79.6357678 L85.5073034,79.7726592 L84.6698502,79.9297753 L84.0582397,80.038764 C83.5842697,80.1230337 83.1080524,80.2033708 82.6310861,80.2816479 L82.1812734,80.3548689 C81.5689139,80.4550562 80.9552434,80.5464419 80.3400749,80.6307116 L79.9479401,80.6833333 C79.4483146,80.7513109 78.9486891,80.8157303 78.4498127,80.8764045 L77.8910112,80.943633 C77.3752809,81.0037453 76.8588015,81.0601124 76.341573,81.1134831 L75.9897004,81.1507491 C75.4316479,81.205618 74.871161,81.2554307 74.3101124,81.3007491 L74.0299625,81.321161 C73.5617978,81.359176 73.0928839,81.394382 72.6234082,81.4265918 L72.0432584,81.4623596 C71.6717228,81.4850187 71.3007491,81.5069288 70.9292135,81.526779 L70.2745318,81.5582397 C69.9234082,81.5743446 69.5743446,81.5889513 69.2254682,81.602809 L68.5277154,81.6269663 L67.6402622,81.6511236 L66.9123596,81.6657303 L66.0134831,81.676779 L63.6827715,81.676779 C63.3741573,81.676779 63.0640449,81.6657303 62.7552434,81.6599251 L62.064794,81.6453184 C61.7801498,81.6453184 61.4949438,81.6269663 61.2102996,81.6181648 L60.4853933,81.5925094 C60.1964419,81.5808989 59.9074906,81.5655431 59.6177903,81.5522472 L58.9061798,81.5179775 C58.6142322,81.5011236 58.3222846,81.4827715 58.0312734,81.4653558 L57.3305243,81.4213483 C57.0305243,81.4009363 56.7312734,81.376779 56.4314607,81.3541199 L55.7576779,81.3035581 C55.4445693,81.2780899 55.1329588,81.2479401 54.8213483,81.2194757 L54.191573,81.1623596 C53.8367041,81.1280899 53.4835206,81.0893258 53.1294007,81.0520599 L52.6305243,80.9992509 C52.1110487,80.941573 51.5932584,80.8794007 51.07603,80.8134831 L50.8749064,80.7865169 C50.4256554,80.7286517 49.9758427,80.6679775 49.526779,80.6050562 L49.1434457,80.5479401 C48.7462547,80.4902622 48.3475655,80.4331461 47.9524345,80.3702247 L47.3709738,80.2758427 C47.0410112,80.2217228 46.7117978,80.1691011 46.3835206,80.1127341 L45.7455056,79.9986891 C45.4456929,79.9430712 45.1325843,79.8889513 44.8282772,79.8303371 L44.1602996,79.7001873 C43.8604869,79.6430712 43.5730337,79.5853933 43.2810861,79.5252809 L42.6578652,79.3928839 C42.3198502,79.321161 41.9833333,79.2481273 41.6462547,79.1741573 L41.0142322,79.0249064 C40.6827715,78.9488764 40.3520599,78.8705993 40.0222846,78.790824 L39.4041199,78.6410112 C39.0595506,78.5554307 38.7149813,78.467603 38.3719101,78.3790262 L37.8174157,78.2290262 C37.3932584,78.1164794 36.970412,78.0009363 36.5498127,77.8816479 L36.2505618,77.8003745 C35.6507491,77.6292135 35.0544944,77.4514981 34.4599251,77.2672285 L33.9792135,77.1179775 C33.5009363,76.9664794 33.0252809,76.8129213 32.552809,76.656367 L32.1586142,76.5262172 C31.5784644,76.3264045 31.0020599,76.1237828 30.4299625,75.9189139 L30.0511236,75.7784644 C29.5865169,75.6065543 29.1249064,75.4310861 28.6670412,75.2526217 L28.1286517,75.0411985 L27.5653558,74.8136704 C27.32397,74.7134831 27.0840824,74.6140449 26.8449438,74.5138577 L26.2859551,74.2752809 C26.0483146,74.1758427 25.811985,74.0726592 25.5764045,73.9659176 L25.0249064,73.7200375 C24.7893258,73.6132959 24.5544944,73.5050562 24.320412,73.3960674 L23.7842697,73.1458801 C23.5464419,73.0338951 23.3108614,72.9183521 23.0754682,72.802809 L22.5632959,72.5511236 C22.3191011,72.4297753 22.0762172,72.3054307 21.8340824,72.179588 C21.6840824,72.0990637 21.5194757,72.0192884 21.3621723,71.9374532 C21.0966292,71.7977528 20.8348315,71.6558052 20.5707865,71.5146067 C20.4404494,71.444382 20.3088015,71.3756554 20.1801498,71.3046816 C19.7902622,71.0902622 19.4039326,70.8722846 19.0205993,70.6514981 L18.9694757,88.7986891 C19.3520599,89.0194757 19.7382022,89.2368914 20.128839,89.4518727 C20.259176,89.5235955 20.390824,89.5923221 20.5217228,89.6632959 C20.7835206,89.8037453 21.0440075,89.9464419 21.3095506,90.0838951 C21.4668539,90.1664794 21.6254682,90.2470037 21.7842697,90.3282772 C22.0256554,90.4526217 22.2670412,90.5754682 22.5106742,90.6983146 L23.0234082,90.95 C23.2582397,91.064794 23.4938202,91.1790262 23.7316479,91.2930712 L24.2685393,91.5432584 C24.5018727,91.6522472 24.7367041,91.7597378 24.9722846,91.8666667 L25.5237828,92.1123596 C25.7593633,92.2125468 25.9962547,92.3157303 26.2340824,92.4224719 L26.7928839,92.6610487 C27.0314607,92.7604869 27.2713483,92.8606742 27.511985,92.9601124 L28.0782772,93.1891386 L28.3400749,93.2958801 L28.6114232,93.3990637 C29.0707865,93.5790262 29.5331461,93.7546816 29.9983146,93.9265918 L30.3773408,94.067603 C30.95,94.2754682 31.5265918,94.4780899 32.1080524,94.6756554 L32.4986891,94.8058052 C32.9734082,94.9646067 33.4503745,95.1189139 33.929588,95.2689139 L34.4078652,95.4187266 C35.0011236,95.6016854 35.6001873,95.7794007 36.2052434,95.9520599 L36.235206,95.9608614 L36.5007491,96.0346442 C36.9205993,96.1531835 37.3434457,96.2694757 37.7677903,96.3822097 L38.3222846,96.5322097 C38.6646067,96.6205993 39.009176,96.708427 39.3543071,96.7940075 L39.973221,96.9440075 C40.3016854,97.0230337 40.6316479,97.0998127 40.9636704,97.1758427 L41.5986891,97.3258427 C41.9344569,97.4003745 42.2709738,97.4735955 42.6095506,97.5445693 L43.0140449,97.6316479 L43.2342697,97.6747191 C43.5342697,97.7348315 43.8202247,97.7917603 44.1142322,97.8503745 L44.7822097,97.9805243 C45.0820225,98.0376404 45.3900749,98.0932584 45.6958801,98.1466292 L46.3402622,98.2621723 C46.6679775,98.3192884 46.9979401,98.3719101 47.3271536,98.4252809 L47.905618,98.5196629 C48.3088015,98.5825843 48.7117978,98.6425094 49.1162921,98.7011236 L49.4565543,98.7522472 L49.4799625,98.7522472 C49.9569288,98.8189139 50.4337079,98.8831461 50.9121723,98.9440075 L51.0292135,98.9586142 C51.5479401,99.0243446 52.0672285,99.0865169 52.5872659,99.144382 L53.0473783,99.1926966 C53.4146067,99.2314607 53.7810861,99.2717228 54.1483146,99.3082397 L54.7475655,99.3631086 C55.0664794,99.3930712 55.3876404,99.4230337 55.7078652,99.4486891 L55.7679775,99.4486891 L56.3670412,99.4932584 C56.6670412,99.5174157 56.9771536,99.541573 57.2807116,99.5627341 L57.9698502,99.6059925 C58.2696629,99.6241573 58.5616105,99.6432584 58.8586142,99.6601124 L59.5644195,99.694382 C59.8548689,99.7076779 60.1453184,99.7230337 60.4357678,99.7346442 L61.1569288,99.7602996 C61.4428839,99.7691011 61.7290262,99.7799625 62.0164794,99.7872659 L62.1664794,99.7872659 L62.6968165,99.7960674 C63.008427,99.7960674 63.3200375,99.8086142 63.6316479,99.8129213 L65.9644195,99.8129213 L66.8627341,99.8020599 L67.5868914,99.7872659 L68.485206,99.7632959 L68.8282772,99.7544944 L69.1794007,99.7391386 C69.5305243,99.7265918 69.8801498,99.711236 70.2277154,99.694382 L70.882397,99.6629213 C71.2539326,99.6432584 71.6249064,99.6213483 71.9941948,99.5986891 L72.5786517,99.5627341 C73.0468165,99.5305243 73.5149813,99.4955056 73.982397,99.4574906 L74.2655431,99.4368914 C74.8258427,99.3893258 75.3855805,99.3397004 75.944382,99.2870787 L76.0299625,99.2797753 L76.2985019,99.2496255 C76.8155431,99.1962547 77.3320225,99.1398876 77.8470037,99.0799625 L78.4073034,99.0127341 C78.9069288,98.9520599 79.4065543,98.8876404 79.9054307,98.8194757 L80.2983146,98.7668539 C80.9142322,98.6812734 81.5286517,98.5891386 82.1410112,98.4911985 L82.5900749,98.4179775 C83.0685393,98.3404494 83.5455056,98.259176 84.0209738,98.1750936 L84.3207865,98.1247191 L84.6200375,98.0661049 L85.4604869,97.9073034 L86.161985,97.7705993 C86.4423221,97.7149813 86.7224719,97.6571161 87.0026217,97.5986891 L87.688764,97.4486891 C87.973221,97.3872659 88.256367,97.3228464 88.5395131,97.2599251 L89.2058052,97.1101124 C89.4934457,97.0426966 89.7786517,96.97397 90.0646067,96.9052434 L90.711985,96.747191 C91.011236,96.67397 91.3001873,96.5979401 91.5941948,96.5196629 L92.2020599,96.3610487 C92.5196629,96.2754682 92.8348315,96.1876404 93.1494382,96.0990637 L93.6782772,95.9490637 C94.0646067,95.838015 94.4479401,95.7245318 94.8297753,95.6089888 L95.1398876,95.517603 C95.6256554,95.3698502 96.108427,95.2198502 96.5889513,95.0683521 L96.6116105,95.0683521 L96.7117978,95.0340824 C97.2428839,94.8606742 97.771161,94.6829588 98.2970037,94.4985019 L98.7820225,94.3353933 Z" id="Fill-9" fill="#D2D2D2"></path>
                    <path d="M110.891386,70.671161 C85.6076779,85.3634831 44.4764045,85.3634831 19.0279026,70.671161 L64.802809,44.0662921 L110.891386,70.671161 Z" id="Fill-10" fill="#E6E6E6"></path>
                </g>
            </g>
        </g>
    </g>
</svg>