<?xml version="1.0" encoding="UTF-8"?>
<svg width="1920px" height="230px" viewBox="0 0 1920 230" version="1.1" xmlns="http://www.w3.org/2000/svg" xmlns:xlink="http://www.w3.org/1999/xlink">
    <!-- Generator: Sketch 64 (93537) - https://sketch.com -->
    <title>编组 3</title>
    <desc>Created with Sketch.</desc>
    <defs>
        <linearGradient x1="50%" y1="-5.34485376%" x2="50%" y2="79.0266047%" id="linearGradient-1">
            <stop stop-color="#3771FF" offset="0%"></stop>
            <stop stop-color="#2D5CF1" offset="100%"></stop>
        </linearGradient>
        <rect id="path-2" x="0" y="0" width="1920" height="230" rx="14"></rect>
        <linearGradient x1="17.6327285%" y1="19.1322245%" x2="113.608871%" y2="115.532594%" id="linearGradient-4">
            <stop stop-color="#285FE9" offset="0%"></stop>
            <stop stop-color="#209FF9" offset="100%"></stop>
        </linearGradient>
        <linearGradient x1="8.12270221%" y1="0%" x2="77.5111607%" y2="79.7321429%" id="linearGradient-5">
            <stop stop-color="#5995F9" stop-opacity="0" offset="0%"></stop>
            <stop stop-color="#209FF9" offset="100%"></stop>
        </linearGradient>
        <linearGradient x1="50%" y1="23.4106895%" x2="50%" y2="100%" id="linearGradient-6">
            <stop stop-color="#5995F9" stop-opacity="0" offset="0%"></stop>
            <stop stop-color="#0C48FF" offset="100%"></stop>
        </linearGradient>
        <linearGradient x1="100%" y1="91.0098805%" x2="8.12270221%" y2="33.0480239%" id="linearGradient-7">
            <stop stop-color="#5995F9" stop-opacity="0" offset="0%"></stop>
            <stop stop-color="#2056F9" offset="100%"></stop>
        </linearGradient>
        <linearGradient x1="73.7348414%" y1="17.53125%" x2="73.7348414%" y2="100%" id="linearGradient-8">
            <stop stop-color="#3062F5" stop-opacity="0.610932037" offset="0%"></stop>
            <stop stop-color="#0E4AFE" offset="100%"></stop>
        </linearGradient>
        <linearGradient x1="73.7348414%" y1="17.53125%" x2="73.7348414%" y2="100%" id="linearGradient-9">
            <stop stop-color="#3062F5" stop-opacity="0.610932037" offset="0%"></stop>
            <stop stop-color="#0E4AFE" offset="100%"></stop>
        </linearGradient>
    </defs>
    <g id="页面-1" stroke="none" stroke-width="1" fill="none" fill-rule="evenodd">
        <g id="Apple-TV备份-3" transform="translate(0.000000, -127.000000)">
            <g id="编组-3" transform="translate(0.000000, 127.000000)">
                <g id="编组-6">
                    <mask id="mask-3" fill="white">
                        <use xlink:href="#path-2"></use>
                    </mask>
                    <use id="蒙版" fill="url(#linearGradient-1)" xlink:href="#path-2"></use>
                    <g opacity="0.3" mask="url(#mask-3)" stroke-linecap="square">
                        <g transform="translate(1671.497006, 366.000000) rotate(-270.000000) translate(-1671.497006, -366.000000) translate(1420.000000, 206.000000)">
                            <g id="编组-5">
                                <line x1="0.695340621" y1="0.698689956" x2="501.340588" y2="0.698689956" id="直线" stroke="#A3BAFF"></line>
                                <line x1="0.695340621" y1="21.6593886" x2="501.340588" y2="21.6593886" id="直线备份" stroke="#A3BAFF"></line>
                                <line x1="0.695340621" y1="43.3187773" x2="501.340588" y2="43.3187773" id="直线备份-2" stroke="#A3BAFF"></line>
                                <line x1="0.695340621" y1="64.279476" x2="501.340588" y2="64.279476" id="直线备份-3" stroke="#A3BAFF"></line>
                                <line x1="0.695340621" y1="85.2401747" x2="501.340588" y2="85.2401747" id="直线备份-4" stroke="#A3BAFF"></line>
                                <line x1="0.695340621" y1="106.200873" x2="501.340588" y2="106.200873" id="直线备份-5" stroke="#A3BAFF"></line>
                                <line x1="0.695340621" y1="127.860262" x2="501.340588" y2="127.860262" id="直线备份-6" stroke="#A3BAFF"></line>
                                <line x1="0.695340621" y1="148.820961" x2="501.340588" y2="148.820961" id="直线备份-7" stroke="#A3BAFF"></line>
                                <line x1="0.695340621" y1="170.480349" x2="501.340588" y2="170.480349" id="直线备份-8" stroke="#A3BAFF"></line>
                                <line x1="0.695340621" y1="191.441048" x2="501.340588" y2="191.441048" id="直线备份-9" stroke="#A3BAFF"></line>
                                <line x1="0.695340621" y1="213.100437" x2="501.340588" y2="213.100437" id="直线备份-10" stroke="#A3BAFF"></line>
                                <line x1="0.695340621" y1="234.061135" x2="501.340588" y2="234.061135" id="直线备份-11" stroke="#A3BAFF"></line>
                                <line x1="0.695340621" y1="255.720524" x2="501.340588" y2="255.720524" id="直线备份-12" stroke="#A3BAFF"></line>
                                <line x1="0.695340621" y1="276.681223" x2="501.340588" y2="276.681223" id="直线备份-13" stroke="#A3BAFF"></line>
                                <line x1="0.695340621" y1="298.340611" x2="501.340588" y2="298.340611" id="直线备份-14" stroke="#A3BAFF"></line>
                                <line x1="0.695340621" y1="319.30131" x2="501.340588" y2="319.30131" id="直线备份-15" stroke="#A3BAFF"></line>
                            </g>
                            <g id="编组-5备份" transform="translate(157.125749, 160.000000) rotate(-90.000000) translate(-157.125749, -160.000000) translate(-1.916168, 2.874251)">
                                <line x1="0.668376929" y1="1.03834061" x2="317.365641" y2="1.03834061" id="直线" stroke="#A3BAFF"></line>
                                <line x1="0.668376929" y1="21.591062" x2="317.365641" y2="21.591062" id="直线备份" stroke="#A3BAFF"></line>
                                <line x1="0.668376929" y1="42.1437834" x2="317.365641" y2="42.1437834" id="直线备份-2" stroke="#A3BAFF"></line>
                                <line x1="0.668376929" y1="62.6965048" x2="317.365641" y2="62.6965048" id="直线备份-3" stroke="#A3BAFF"></line>
                                <line x1="0.668376929" y1="83.2492261" x2="317.365641" y2="83.2492261" id="直线备份-4" stroke="#A3BAFF"></line>
                                <line x1="0.668376929" y1="103.801948" x2="317.365641" y2="103.801948" id="直线备份-5" stroke="#A3BAFF"></line>
                            </g>
                        </g>
                    </g>
                    <g id="编组-6备份-2" opacity="0.3" mask="url(#mask-3)" stroke-linecap="square">
                        <g transform="translate(306.497006, -168.000000) rotate(-90.000000) translate(-306.497006, 168.000000) translate(55.000000, -328.000000)">
                            <g id="编组-5">
                                <line x1="0.695340621" y1="0.698689956" x2="501.340588" y2="0.698689956" id="直线" stroke="#A3BAFF"></line>
                                <line x1="0.695340621" y1="21.6593886" x2="501.340588" y2="21.6593886" id="直线备份" stroke="#A3BAFF"></line>
                                <line x1="0.695340621" y1="43.3187773" x2="501.340588" y2="43.3187773" id="直线备份-2" stroke="#A3BAFF"></line>
                                <line x1="0.695340621" y1="64.279476" x2="501.340588" y2="64.279476" id="直线备份-3" stroke="#A3BAFF"></line>
                                <line x1="0.695340621" y1="85.2401747" x2="501.340588" y2="85.2401747" id="直线备份-4" stroke="#A3BAFF"></line>
                                <line x1="0.695340621" y1="106.200873" x2="501.340588" y2="106.200873" id="直线备份-5" stroke="#A3BAFF"></line>
                                <line x1="0.695340621" y1="127.860262" x2="501.340588" y2="127.860262" id="直线备份-6" stroke="#A3BAFF"></line>
                                <line x1="0.695340621" y1="148.820961" x2="501.340588" y2="148.820961" id="直线备份-7" stroke="#A3BAFF"></line>
                                <line x1="0.695340621" y1="170.480349" x2="501.340588" y2="170.480349" id="直线备份-8" stroke="#A3BAFF"></line>
                                <line x1="0.695340621" y1="191.441048" x2="501.340588" y2="191.441048" id="直线备份-9" stroke="#A3BAFF"></line>
                                <line x1="0.695340621" y1="213.100437" x2="501.340588" y2="213.100437" id="直线备份-10" stroke="#A3BAFF"></line>
                                <line x1="0.695340621" y1="234.061135" x2="501.340588" y2="234.061135" id="直线备份-11" stroke="#A3BAFF"></line>
                                <line x1="0.695340621" y1="255.720524" x2="501.340588" y2="255.720524" id="直线备份-12" stroke="#A3BAFF"></line>
                                <line x1="0.695340621" y1="276.681223" x2="501.340588" y2="276.681223" id="直线备份-13" stroke="#A3BAFF"></line>
                                <line x1="0.695340621" y1="298.340611" x2="501.340588" y2="298.340611" id="直线备份-14" stroke="#A3BAFF"></line>
                                <line x1="0.695340621" y1="319.30131" x2="501.340588" y2="319.30131" id="直线备份-15" stroke="#A3BAFF"></line>
                            </g>
                            <g id="编组-5备份" transform="translate(157.125749, 160.000000) rotate(-90.000000) translate(-157.125749, -160.000000) translate(-1.916168, 2.874251)">
                                <line x1="0.668376929" y1="1.03834061" x2="317.365641" y2="1.03834061" id="直线" stroke="#A3BAFF"></line>
                                <line x1="0.668376929" y1="21.591062" x2="317.365641" y2="21.591062" id="直线备份" stroke="#A3BAFF"></line>
                                <line x1="0.668376929" y1="42.1437834" x2="317.365641" y2="42.1437834" id="直线备份-2" stroke="#A3BAFF"></line>
                                <line x1="0.668376929" y1="62.6965048" x2="317.365641" y2="62.6965048" id="直线备份-3" stroke="#A3BAFF"></line>
                                <line x1="0.668376929" y1="83.2492261" x2="317.365641" y2="83.2492261" id="直线备份-4" stroke="#A3BAFF"></line>
                            </g>
                        </g>
                    </g>
                    <g id="编组-15" mask="url(#mask-3)">
                        <g transform="translate(13.000000, 31.000000)">
                            <circle id="椭圆形备份-6" stroke="none" fill-opacity="0.8" fill="url(#linearGradient-4)" fill-rule="evenodd" cx="198.5" cy="175.5" r="67.5"></circle>
                            <circle id="椭圆形备份-5" stroke="none" fill-opacity="0.5" fill="url(#linearGradient-5)" fill-rule="evenodd" cx="35" cy="35" r="35"></circle>
                            <line x1="60" y1="60" x2="144" y2="136" id="直线-2" stroke="#749AFF" stroke-width="1" fill="none" stroke-linecap="square"></line>
                        </g>
                    </g>
                </g>
                <g id="编组-14" transform="translate(1259.000000, 30.000000)">
                    <g id="编组-10" transform="translate(57.979798, 33.939394)" stroke="#FFB452">
                        <polyline id="路径-8" points="2.51201977e-15 0 2.51201977e-15 35.8534564 13.3846275 25.8992266 31.7629419 25.8992266"></polyline>
                        <line x1="41.3373974" y1="26.1574732" x2="67.5183475" y2="26.1574732" id="路径-9"></line>
                    </g>
                    <g id="编组-9" transform="translate(96.161616, 43.484848) scale(1, -1) translate(-96.161616, -43.484848) translate(56.565657, 21.919192)">
                        <path d="M0,0 L11.8047664,8.00426136 L66.6565657,8.00426136 C71.6271284,8.00426136 75.6565657,12.0336986 75.6565657,17.0042614 L75.6565657,29.4083018 C75.6565657,34.3788645 71.6271284,38.4083018 66.6565657,38.4083018 L9,38.4083018 C4.02943725,38.4083018 -7.36622019e-16,34.3788645 0,29.4083018 L0,0 L0,0 Z" id="矩形备份-8" fill-opacity="0.15" fill="#000000"></path>
                        <path d="M3.53535354,4.24242424 L15.3401199,12.2466856 L70.1919192,12.2466856 C75.1624819,12.2466856 79.1919192,16.2761229 79.1919192,21.2466856 L79.1919192,33.650726 C79.1919192,38.6212888 75.1624819,42.650726 70.1919192,42.650726 L12.5353535,42.650726 C7.56479079,42.650726 3.53535354,38.6212888 3.53535354,33.650726 L3.53535354,4.24242424 L3.53535354,4.24242424 Z" id="矩形备份" fill="#FFFFFF"></path>
                        <circle id="椭圆形备份-9" fill="#FFB452" cx="31.8181818" cy="26.8686869" r="3.53535354"></circle>
                        <circle id="椭圆形备份-10" fill="#FFB452" cx="41.7171717" cy="26.8686869" r="3.53535354"></circle>
                        <circle id="椭圆形备份-11" fill="#FFB452" cx="51.6161616" cy="26.8686869" r="3.53535354"></circle>
                    </g>
                    <path d="M0,5.65656566 L11.8047664,13.660827 L66.6565657,13.660827 C71.6271284,13.660827 75.6565657,17.6902643 75.6565657,22.660827 L75.6565657,35.0648674 C75.6565657,40.0354302 71.6271284,44.0648674 66.6565657,44.0648674 L9,44.0648674 C4.02943725,44.0648674 2.38507522e-15,40.0354302 0,35.0648674 L0,5.65656566 L0,5.65656566 Z" id="矩形备份-7" fill-opacity="0.15" fill="#000000"></path>
                    <path d="M4.24242424,2.51201977e-15 L16.0471907,8.00426136 L70.8989899,8.00426136 C75.8695526,8.00426136 79.8989899,12.0336986 79.8989899,17.0042614 L79.8989899,29.4083018 C79.8989899,34.3788645 75.8695526,38.4083018 70.8989899,38.4083018 L13.2424242,38.4083018 C8.27186149,38.4083018 4.24242424,34.3788645 4.24242424,29.4083018 L4.24242424,2.51201977e-15 L4.24242424,2.51201977e-15 Z" id="矩形" fill="#FFAD42"></path>
                    <path d="M1.48380306,21.2121212 L1.48380306,33.4588068 C0.932324733,39.9697496 3.65519142,43.225221 9.65240312,43.225221 C15.6496148,43.225221 19.7364467,43.225221 21.9128987,43.225221" id="路径-7" stroke="#FFFFFF"></path>
                    <circle id="椭圆形" fill="#3961F4" cx="32.5252525" cy="22.6262626" r="3.53535354"></circle>
                    <circle id="椭圆形备份-7" fill="#3961F4" cx="42.4242424" cy="22.6262626" r="3.53535354"></circle>
                    <circle id="椭圆形备份-8" fill="#3961F4" cx="52.3232323" cy="22.6262626" r="3.53535354"></circle>
                </g>
                <circle id="椭圆形" fill="url(#linearGradient-6)" cx="960" cy="112" r="91"></circle>
                <circle id="椭圆形" stroke="" cx="960" cy="112" r="107"></circle>
                <rect id="矩形" stroke="#109CFF" transform="translate(1067.000000, 143.000000) rotate(47.000000) translate(-1067.000000, -143.000000) " x="1060" y="136" width="14" height="14" rx="3"></rect>
                <rect id="矩形" stroke="#5DBCFF" transform="translate(1072.000000, 33.000000) rotate(23.000000) translate(-1072.000000, -33.000000) " x="1061" y="22" width="22" height="22"></rect>
                <rect id="矩形" stroke="#5DBCFF" opacity="0.589122954" transform="translate(436.000000, 181.000000) rotate(23.000000) translate(-436.000000, -181.000000) " x="425" y="170" width="22" height="22"></rect>
                <circle id="椭圆形" fill="url(#linearGradient-7)" cx="886" cy="38" r="11"></circle>
                <g id="编组-8" transform="translate(642.000000, 95.000000)" fill="#FFFFFF" fill-rule="nonzero">
                    <g id="编组-4" transform="translate(0.974118, 0.188235)">
                        <path d="M14.9082353,7.04402277 L15.4776471,2.57259962 C15.5121569,2.36842505 15.4862745,2.07237192 15.4,1.68444023 C15.3137255,1.29650854 15.2015686,1.02087287 15.0635294,0.857533207 C14.9254902,0.653358634 14.7011765,0.459392789 14.3905882,0.275635674 C14.08,0.0918785579 13.8211765,1.67186526e-14 13.6141176,1.67186526e-14 L13.6141176,1.67186526e-14 L4.08941176,1.67186526e-14 C4.95215686,0.122504744 5.72,0.296053131 6.39294118,0.520645161 C7.06588235,0.745237192 7.45411765,1.02087287 7.55764706,1.34755218 L7.55764706,1.34755218 L6.78117647,7.04402277 L14.9082353,7.04402277 Z M23.76,1.67186526e-14 C24.6572549,0.122504744 25.4509804,0.30626186 26.1411765,0.551271347 C26.8313725,0.796280835 27.2109804,1.08212524 27.28,1.40880455 L27.28,1.40880455 L27.28,1.59256167 C27.2454902,1.79673624 27.2282353,1.83757116 27.2282353,1.71506641 L27.2282353,1.71506641 L22.6211765,32.28 L14.5976471,32.28 L13.8211765,37.9764706 L41.3082353,37.9764706 L42.1882353,32.28 L30.8,32.28 L32.8188235,18.9269829 L42.5505882,18.9269829 L43.2752941,13.16926 L33.6470588,13.16926 L35.1482353,3.55263757 C35.2172549,3.18512334 35.1913725,2.75635674 35.0705882,2.26633776 C34.9498039,1.77631879 34.7686275,1.3883871 34.5270588,1.10254269 C34.3890196,0.816698292 34.1043137,0.561480076 33.6729412,0.336888046 C33.2415686,0.112296015 32.8705882,1.67186526e-14 32.56,1.67186526e-14 L32.56,1.67186526e-14 L27.4870588,1.67186526e-14 L23.76,1.67186526e-14 Z M12.1129412,37.9764706 L12.9929412,32.28 L11.3364706,32.28 L15.0635294,8.08531309 L2.64,8.08531309 L1.70823529,13.7817837 L6.00470588,13.7817837 L2.48470588,37.4251992 C1.76,37.6702087 0.931764706,37.8539658 6.68746104e-14,37.9764706 L6.68746104e-14,37.9764706 L12.1129412,37.9764706 Z M79.4070588,37.9764706 L81.9952941,35.403871 L83.4964706,37.9764706 L92.1929412,37.9764706 L87.5341176,29.7686528 L93.4352941,24.0109298 L95.92,8.02406072 L97.1105882,8.02406072 L97.4729412,5.39020873 C97.5419608,5.10436433 97.5247059,4.74705882 97.4211765,4.31829222 C97.3176471,3.88952562 97.1796078,3.59347249 97.0070588,3.43013283 C96.8690196,3.22595825 96.627451,3.02178368 96.2823529,2.81760911 C95.9372549,2.61343454 95.6611765,2.51134725 95.4541176,2.51134725 L95.4541176,2.51134725 L86.7576471,2.51134725 L87.5341176,1.67186526e-14 L76.8188235,1.67186526e-14 C78.0956863,0.163339658 79.0447059,0.408349146 79.6658824,0.735028463 L79.6658824,0.735028463 L76.1458824,12.0667173 L83.7552941,12.0667173 L85.1011765,8.02406072 L87.8964706,8.02406072 L85.6705882,22.72463 L84.4282353,24.0721822 L83.5482353,22.72463 L84.9976471,13.0467552 L77.2329412,13.0467552 L75.6282353,24.0109298 L78.7341176,29.646148 L70.6070588,37.9764706 L79.4070588,37.9764706 Z M65.8447059,37.9764706 L66.9317647,30.7486907 L73.8164706,30.2586717 L74.6964706,24.5009488 L68.7435294,24.9297154 L73.7647059,20.7645541 L74.5411765,15.5581025 L63.1011765,15.5581025 L64.24,13.7205313 L75.8870588,13.7205313 L76.6635294,8.20781784 L75.5764706,8.20781784 L78.0094118,0.551271347 L70.4517647,0.551271347 L67.9670588,8.20781784 L65.1717647,8.20781784 L65.4305882,6.5540038 L67.9670588,6.5540038 L68.7435294,1.28629981 L66.1552941,1.28629981 C66.1898039,1.16379507 66.1984314,1.02087287 66.1811765,0.857533207 C66.1639216,0.694193548 66.1207843,0.551271347 66.0517647,0.428766603 C65.7411765,0.183757116 65.4823529,0.0612523719 65.2752941,0.0612523719 L65.2752941,0.0612523719 L55.3882353,0.0612523719 C56.8031373,0.22459203 57.8211765,0.490018975 58.4423529,0.857533207 L58.4423529,0.857533207 L58.3905882,1.28629981 L53.0070588,1.28629981 C53.7317647,1.36796964 54.4047059,1.51089184 55.0258824,1.71506641 L55.0258824,1.71506641 L54.3011765,6.5540038 L57.5623529,6.5540038 L57.4070588,8.20781784 L52.7482353,8.20781784 L51.9717647,13.7205313 L56.0611765,13.7205313 L50.3670588,23.3984061 L58.5458824,23.3984061 L60.0470588,20.7645541 L64.5505882,20.7645541 L59.6847059,24.7459583 L59.5811765,25.6034915 L50.0564706,26.2772676 L49.1247059,31.9737381 L58.7011765,31.3612144 L58.4941176,32.8925237 L53.4211765,32.8925237 L52.8517647,36.7514231 C52.3341176,37.282277 51.04,37.6906262 48.9694118,37.9764706 L48.9694118,37.9764706 L65.8447059,37.9764706 Z M113.054118,12.3729791 L113.312941,10.2291461 L139.298824,10.2291461 L138.988235,12.3729791 L147.167059,12.3729791 L148.254118,5.0226945 L144.112941,5.0226945 L144.941176,3.24637571 C145.010196,3.00136622 145.044706,2.71552182 145.044706,2.3888425 C145.044706,1.8171537 144.975686,1.3883871 144.837647,1.10254269 C144.699608,0.816698292 144.458039,0.561480076 144.112941,0.336888046 C143.767843,0.112296015 143.457255,1.67186526e-14 143.181176,1.67186526e-14 L143.181176,1.67186526e-14 L134.329412,1.67186526e-14 C135.882353,0.204174573 136.952157,0.510436433 137.538824,0.918785579 L137.538824,0.918785579 L135.623529,5.0226945 L131.016471,5.0226945 L130.24,1.67186526e-14 L121.957647,1.67186526e-14 L122.734118,5.0226945 L118.489412,5.0226945 L117.712941,1.67186526e-14 L106.272941,1.67186526e-14 C107.929412,0.245009488 109.016471,0.571688805 109.534118,0.980037951 L109.534118,0.980037951 L110.155294,5.0226945 L105.910588,5.0226945 L104.875294,12.3729791 L113.054118,12.3729791 Z M126.461176,37.9764706 L127.858824,28.9723719 L145.614118,28.9723719 L146.494118,23.2759013 L133.087059,23.2759013 L142.145882,18.9882353 L143.025882,13.2917647 L106.531765,13.2917647 L105.755294,18.9882353 L128.635294,18.9882353 L120.611765,22.4183681 L120.456471,23.2759013 L102.183529,23.2759013 L101.407059,28.9723719 L119.628235,28.9723719 L119.058824,32.7087666 L109.896471,32.7087666 L109.372941,36.4284561 L109.378824,36.2614042 L109.378824,36.2001518 L109.327059,36.3839089 C109.292549,36.7514231 108.904314,37.0781025 108.162353,37.3639469 C107.420392,37.6497913 106.51451,37.8539658 105.444706,37.9764706 L105.444706,37.9764706 L126.461176,37.9764706 Z M165.388235,37.6089564 L167.510588,35.5876281 L170.771765,37.6089564 L195.981176,37.6089564 L196.809412,31.8512334 L174.757647,31.8512334 L172.583529,30.9937002 L176.828235,27.0735484 L194.531765,27.0735484 L197.482353,7.53404175 L182.574118,7.53404175 L182.781176,6.12523719 L199.501176,6.12523719 L199.915294,3.43013283 C199.949804,3.14428843 199.915294,2.77677419 199.811765,2.32759013 C199.708235,1.87840607 199.552941,1.5313093 199.345882,1.28629981 C199.207843,1.08212524 198.966275,0.877950664 198.621176,0.673776091 C198.276078,0.469601518 197.982745,0.367514231 197.741176,0.367514231 L197.741176,0.367514231 L155.190588,0.367514231 C156.087843,0.490018975 156.881569,0.673776091 157.571765,0.918785579 C158.261961,1.16379507 158.641569,1.42922201 158.710588,1.71506641 L158.710588,1.71506641 L157.985882,6.12523719 L174.602353,6.12523719 L174.395294,7.53404175 L159.487059,7.53404175 L156.484706,27.0735484 L168.028235,27.0735484 L166.423529,28.4211006 L165.491765,27.992334 L155.087059,27.992334 L161.92,32.2187476 L157.468235,35.8326376 L155.967059,37.057685 C155.276863,37.2618596 154.448627,37.4251992 153.482353,37.547704 L153.482353,37.547704 L155.345882,37.547704 L155.294118,37.6089564 L165.388235,37.6089564 Z M173.308235,14.9455787 L166.527059,14.9455787 L166.785882,13.16926 L173.463529,13.16926 L173.308235,14.9455787 Z M188.216471,14.9455787 L181.487059,14.9455787 L181.642353,13.16926 L188.423529,13.16926 L188.216471,14.9455787 Z M172.324706,21.3770778 L165.543529,21.3770778 L165.854118,19.6620114 L172.531765,19.6620114 L172.324706,21.3770778 Z M187.284706,21.3770778 L180.503529,21.3770778 L180.710588,19.6620114 L187.491765,19.6620114 L187.284706,21.3770778 Z M218.395294,9.43286528 L219.482353,6.92151803 L222.484706,6.92151803 L222.743529,9.43286528 L230.145882,9.43286528 L229.938824,6.92151803 L231.284706,6.92151803 L232.112941,1.28629981 L221.915294,1.28629981 C221.949804,1.16379507 221.967059,1.02087287 221.967059,0.857533207 C221.967059,0.694193548 221.949804,0.551271347 221.915294,0.428766603 C221.846275,0.347096774 221.742745,0.255218216 221.604706,0.15313093 C221.466667,0.0510436433 221.345882,1.67186526e-14 221.242353,1.67186526e-14 L221.242353,1.67186526e-14 L210.32,1.67186526e-14 C211.907451,0.245009488 212.977255,0.571688805 213.529412,0.980037951 L213.529412,0.980037951 L209.905882,9.43286528 L218.395294,9.43286528 Z M239.722353,9.43286528 L240.602353,6.9827704 L243.242353,6.9827704 L243.656471,9.43286528 L251.214118,9.43286528 L250.8,6.9827704 L253.595294,6.9827704 L254.061176,3.79764706 C254.095686,3.55263757 254.078431,3.25658444 254.009412,2.90948767 C253.940392,2.56239089 253.836863,2.30717268 253.698824,2.14383302 C253.560784,1.98049336 253.345098,1.8171537 253.051765,1.65381404 C252.758431,1.49047438 252.508235,1.40880455 252.301176,1.40880455 L252.301176,1.40880455 L242.724706,1.40880455 C242.759216,1.2454649 242.767843,1.06170778 242.750588,0.857533207 C242.733333,0.653358634 242.707451,0.53085389 242.672941,0.490018975 C242.638431,0.408349146 242.534902,0.30626186 242.362353,0.183757116 C242.189804,0.0612523719 242.051765,1.67186526e-14 241.948235,1.67186526e-14 L241.948235,1.67186526e-14 L231.336471,1.67186526e-14 C232.923922,0.204174573 233.993725,0.53085389 234.545882,0.980037951 L234.545882,0.980037951 L231.284706,9.43286528 L239.722353,9.43286528 Z M218.188235,15.3743454 L219.12,10.1678937 L210.837647,10.1678937 L209.957647,15.3743454 L218.188235,15.3743454 Z M248.211765,37.9764706 L251.835294,13.8430361 C251.904314,13.5571917 251.878431,13.1794687 251.757647,12.7098672 C251.636863,12.2402657 251.490196,11.9033776 251.317647,11.699203 C251.145098,11.4950285 250.877647,11.2806452 250.515294,11.0560531 C250.152941,10.8314611 249.85098,10.7191651 249.609412,10.7191651 L249.609412,10.7191651 L220.776471,10.7191651 L219.948235,16.2931309 L243.294118,16.2931309 L240.861176,32.3412524 L238.894118,32.3412524 L241.068235,17.946945 L219.741176,17.946945 L217.101176,35.5876281 L237.237647,35.5876281 L236.927059,37.9764706 L248.211765,37.9764706 Z M214.823529,37.9764706 L217.981176,16.9056546 L209.750588,16.9056546 L206.652941,37.9193945 L206.644706,37.9764706 L214.823529,37.9764706 Z M232.527059,24.9909677 L226.211765,24.9909677 L226.418824,23.2759013 L232.785882,23.2759013 L232.527059,24.9909677 Z M231.802353,30.2586717 L225.383529,30.2586717 L225.694118,28.4211006 L232.061176,28.4211006 L231.802353,30.2586717 Z M206.644706,37.9764706 L206.652941,37.9193945 L206.903529,36.1388994 L206.851765,36.3839089 C206.817255,36.7514231 206.420392,37.0781025 205.661176,37.3639469 C204.901961,37.6497913 203.987451,37.8539658 202.917647,37.9764706 L202.917647,37.9764706 L206.644706,37.9764706 Z M282.842353,37.9764706 L283.515294,32.4637571 L301.374118,32.4637571 L302.305882,26.7672865 L284.447059,26.7672865 L284.757647,24.9297154 L300.235294,24.9297154 L302.823529,7.71779886 C302.892549,7.35028463 302.858039,6.87047438 302.72,6.27836812 C302.581961,5.68626186 302.409412,5.22686907 302.202353,4.90018975 C301.960784,4.57351044 301.598431,4.27745731 301.115294,4.01203036 C300.632157,3.74660342 300.218039,3.61388994 299.872941,3.61388994 L299.872941,3.61388994 L296.404706,3.61388994 L296.611765,1.9600759 C296.749804,1.75590133 296.680784,1.30671727 296.404706,0.612523719 C296.301176,0.490018975 296.12,0.357305503 295.861176,0.214383302 C295.602353,0.0714611006 295.403922,1.67186526e-14 295.265882,1.67186526e-14 L295.265882,1.67186526e-14 L285.171765,1.67186526e-14 C287.069804,0.245009488 288.208627,0.632941176 288.588235,1.16379507 L288.588235,1.16379507 L288.225882,3.61388994 L279.529412,3.61388994 L279.788235,1.9600759 C279.822745,1.83757116 279.80549,1.63339658 279.736471,1.34755218 C279.667451,1.06170778 279.581176,0.816698292 279.477647,0.612523719 C279.374118,0.490018975 279.192941,0.357305503 278.934118,0.214383302 C278.675294,0.0714611006 278.476863,1.67186526e-14 278.338824,1.67186526e-14 L278.338824,1.67186526e-14 L268.244706,1.67186526e-14 C270.177255,0.245009488 271.333333,0.632941176 271.712941,1.16379507 L271.712941,1.16379507 L271.350588,3.61388994 L262.654118,3.61388994 L264.258824,3.9201518 L261.101176,24.9297154 L276.578824,24.9297154 L276.268235,26.7672865 L258.461176,26.7672865 L257.529412,32.4637571 L275.336471,32.4637571 L274.870588,36.2001518 L274.818824,36.3839089 C274.784314,36.7514231 274.387451,37.0781025 273.628235,37.3639469 C272.86902,37.6497913 271.971765,37.8539658 270.936471,37.9764706 L270.936471,37.9764706 L282.842353,37.9764706 Z M278.597647,11.4541935 L271.298824,11.4541935 L271.661176,9.3716129 L278.96,9.3716129 L278.597647,11.4541935 Z M294.127059,11.4541935 L286.776471,11.4541935 L287.138824,9.3716129 L294.385882,9.3716129 L294.127059,11.4541935 Z M277.407059,19.2332448 L270.108235,19.2332448 L270.522353,17.1506641 L277.717647,17.1506641 L277.407059,19.2332448 Z M292.884706,19.2332448 L285.585882,19.2332448 L285.948235,17.1506641 L293.247059,17.1506641 L292.884706,19.2332448 Z" id="让教学更简单"></path>
                        <path d="M343.143529,7.04402277 L343.712941,2.57259962 C343.747451,2.36842505 343.721569,2.07237192 343.635294,1.68444023 C343.54902,1.29650854 343.436863,1.02087287 343.298824,0.857533207 C343.160784,0.653358634 342.936471,0.459392789 342.625882,0.275635674 C342.315294,0.0918785579 342.056471,1.67186526e-14 341.849412,1.67186526e-14 L341.849412,1.67186526e-14 L332.324706,1.67186526e-14 C333.187451,0.122504744 333.955294,0.296053131 334.628235,0.520645161 C335.301176,0.745237192 335.689412,1.02087287 335.792941,1.34755218 L335.792941,1.34755218 L335.016471,7.04402277 L343.143529,7.04402277 Z M351.995294,1.67186526e-14 C352.892549,0.122504744 353.686275,0.30626186 354.376471,0.551271347 C355.066667,0.796280835 355.446275,1.08212524 355.515294,1.40880455 L355.515294,1.40880455 L355.515294,1.59256167 C355.480784,1.79673624 355.463529,1.83757116 355.463529,1.71506641 L355.463529,1.71506641 L350.856471,32.28 L342.832941,32.28 L342.056471,37.9764706 L369.543529,37.9764706 L370.423529,32.28 L359.035294,32.28 L361.054118,18.9269829 L370.785882,18.9269829 L371.510588,13.16926 L361.882353,13.16926 L363.383529,3.55263757 C363.452549,3.18512334 363.426667,2.75635674 363.305882,2.26633776 C363.185098,1.77631879 363.003922,1.3883871 362.762353,1.10254269 C362.624314,0.816698292 362.339608,0.561480076 361.908235,0.336888046 C361.476863,0.112296015 361.105882,1.67186526e-14 360.795294,1.67186526e-14 L360.795294,1.67186526e-14 L355.722353,1.67186526e-14 L351.995294,1.67186526e-14 Z M340.348235,37.9764706 L341.228235,32.28 L339.571765,32.28 L343.298824,8.08531309 L330.875294,8.08531309 L329.943529,13.7817837 L334.24,13.7817837 L330.72,37.4251992 C329.995294,37.6702087 329.167059,37.8539658 328.235294,37.9764706 L328.235294,37.9764706 L340.348235,37.9764706 Z M389.421176,9.80037951 L390.715294,6.43149905 L392.475294,6.43149905 L392.630588,8.45282732 L399.981176,8.45282732 L399.877647,6.43149905 L402.465882,6.43149905 L403.190588,1.77631879 L392.785882,1.77631879 C392.820392,1.61297913 392.837647,1.41901328 392.837647,1.19442125 C392.837647,0.969829222 392.803137,0.75544592 392.734118,0.551271347 C392.665098,0.428766603 392.518431,0.30626186 392.294118,0.183757116 C392.069804,0.0612523719 391.888627,1.67186526e-14 391.750588,1.67186526e-14 L391.750588,1.67186526e-14 L381.811765,1.67186526e-14 C383.157647,0.163339658 384.158431,0.428766603 384.814118,0.796280835 L384.814118,0.796280835 L380.983529,9.80037951 L389.421176,9.80037951 Z M421.101176,9.80037951 L420.738824,6.61525617 L424.776471,6.61525617 L425.190588,3.79764706 C425.225098,3.59347249 425.207843,3.35867173 425.138824,3.09324478 C425.069804,2.82781784 424.983529,2.61343454 424.88,2.45009488 C424.776471,2.28675522 424.621176,2.14383302 424.414118,2.02132827 C424.207059,1.89882353 424.017255,1.83757116 423.844706,1.83757116 L423.844706,1.83757116 L413.698824,1.83757116 C413.733333,1.71506641 413.750588,1.52110057 413.750588,1.25567362 C413.750588,0.990246679 413.716078,0.75544592 413.647059,0.551271347 C413.543529,0.428766603 413.379608,0.30626186 413.155294,0.183757116 C412.93098,0.0612523719 412.749804,1.67186526e-14 412.611765,1.67186526e-14 L412.611765,1.67186526e-14 L402.414118,1.67186526e-14 C404.070588,0.245009488 405.157647,0.571688805 405.675294,0.980037951 L405.675294,0.980037951 L402.569412,8.45282732 L410.955294,8.45282732 L411.68,6.61525617 L413.336471,6.61525617 L413.750588,9.80037951 L421.101176,9.80037951 Z M416.701176,37.9764706 L418.202353,27.8698292 L391.077647,27.8698292 L391.232941,26.6447818 L416.649412,26.6447818 L417.736471,19.4782543 L422.343529,19.4782543 L423.741176,10.6579127 L406.917647,10.6579127 L406.917647,9.18785579 L398.428235,9.18785579 L398.531765,10.6579127 L382.018824,10.6579127 L380.672941,19.4782543 L384.141176,19.4782543 L381.656471,36.2001518 L381.604706,36.4451613 C381.535686,36.8126755 381.121569,37.1291461 380.362353,37.3945731 C379.603137,37.66 378.705882,37.8539658 377.670588,37.9764706 L377.670588,37.9764706 L416.701176,37.9764706 Z M414.527059,16.9056546 L389.214118,16.9056546 L389.421176,15.6806072 L414.785882,15.6806072 L414.527059,16.9056546 Z M409.04,22.7858824 L391.854118,22.7858824 L392.061176,21.3158254 L409.247059,21.3158254 L409.04,22.7858824 Z M409.247059,33.1987856 L390.197647,33.1987856 L390.508235,31.7287287 L409.454118,31.7287287 L409.247059,33.1987856 Z M473.124706,37.9764706 L473.952941,32.28 L464.324706,32.28 L464.687059,29.7074004 L473.124706,29.7074004 L474.056471,24.0721822 L465.515294,24.0721822 L465.877647,21.4995825 L474.677647,21.4995825 L477.214118,4.47142315 C477.248627,4.34891841 477.265882,4.16516129 477.265882,3.9201518 C477.265882,3.47096774 477.188235,2.9911575 477.032941,2.48072106 C476.877647,1.97028463 476.696471,1.61297913 476.489412,1.40880455 C476.282353,1.08212524 475.92,0.765654649 475.402353,0.459392789 C474.884706,0.15313093 474.453333,1.67186526e-14 474.108235,1.67186526e-14 L474.108235,1.67186526e-14 L449.882353,1.67186526e-14 C450.676078,0.0816698292 451.383529,0.22459203 452.004706,0.428766603 L452.004706,0.428766603 L448.847059,21.4995825 L457.698824,21.4995825 L457.336471,24.0721822 L448.691765,24.0721822 L447.76,29.7074004 L456.508235,29.7074004 L456.094118,32.28 L446,32.28 L445.430588,36.2001518 L445.378824,36.4451613 C445.309804,36.8126755 444.895686,37.1291461 444.136471,37.3945731 C443.377255,37.66 442.48,37.8539658 441.444706,37.9764706 L441.444706,37.9764706 L473.124706,37.9764706 Z M429.072941,37.3639469 L444.447059,36.2001518 L445.275294,30.5036812 L442.014118,30.7486907 L443.515294,20.5195446 L446.931765,20.5195446 L447.863529,14.7618216 L444.395294,14.7618216 L445.637647,6.30899431 L449.934118,6.30899431 L450.451765,2.75635674 C450.486275,2.55218216 450.46902,2.28675522 450.4,1.9600759 C450.33098,1.63339658 450.210196,1.3883871 450.037647,1.22504744 C449.934118,1.10254269 449.770196,0.959620493 449.545882,0.796280835 C449.321569,0.632941176 449.123137,0.551271347 448.950588,0.551271347 L448.950588,0.551271347 L430.936471,0.551271347 C431.937255,0.714611006 432.774118,0.928994307 433.447059,1.19442125 C434.12,1.4598482 434.421961,1.77631879 434.352941,2.14383302 L434.352941,2.14383302 L433.68,6.30899431 L437.458824,6.30899431 L436.216471,14.7618216 L433.058824,14.7618216 L432.230588,20.5195446 L435.336471,20.5195446 L433.731765,31.3612144 L429.952941,31.6674763 L429.072941,37.3639469 Z M460.649412,8.82034156 L458.216471,8.82034156 L458.734118,5.57396584 L461.167059,5.57396584 L460.649412,8.82034156 Z M469.035294,8.82034156 L466.654118,8.82034156 L467.171765,5.57396584 L469.552941,5.57396584 L469.035294,8.82034156 Z M459.562353,15.9256167 L457.181176,15.9256167 L457.647059,12.7404934 L460.028235,12.7404934 L459.562353,15.9256167 Z M468,15.9256167 L465.618824,15.9256167 L466.084706,12.7404934 L468.465882,12.7404934 L468,15.9256167 Z M493.623529,37.6089564 L495.745882,35.5876281 L499.007059,37.6089564 L524.216471,37.6089564 L525.044706,31.8512334 L502.992941,31.8512334 L500.818824,30.9937002 L505.063529,27.0735484 L522.767059,27.0735484 L525.717647,7.53404175 L510.809412,7.53404175 L511.016471,6.12523719 L527.736471,6.12523719 L528.150588,3.43013283 C528.185098,3.14428843 528.150588,2.77677419 528.047059,2.32759013 C527.943529,1.87840607 527.788235,1.5313093 527.581176,1.28629981 C527.443137,1.08212524 527.201569,0.877950664 526.856471,0.673776091 C526.511373,0.469601518 526.218039,0.367514231 525.976471,0.367514231 L525.976471,0.367514231 L483.425882,0.367514231 C484.323137,0.490018975 485.116863,0.673776091 485.807059,0.918785579 C486.497255,1.16379507 486.876863,1.42922201 486.945882,1.71506641 L486.945882,1.71506641 L486.221176,6.12523719 L502.837647,6.12523719 L502.630588,7.53404175 L487.722353,7.53404175 L484.72,27.0735484 L496.263529,27.0735484 L494.658824,28.4211006 L493.727059,27.992334 L483.322353,27.992334 L490.155294,32.2187476 L485.703529,35.8326376 L484.202353,37.057685 C483.512157,37.2618596 482.683922,37.4251992 481.717647,37.547704 L481.717647,37.547704 L483.581176,37.547704 L483.529412,37.6089564 L493.623529,37.6089564 Z M501.543529,14.9455787 L494.762353,14.9455787 L495.021176,13.16926 L501.698824,13.16926 L501.543529,14.9455787 Z M516.451765,14.9455787 L509.722353,14.9455787 L509.877647,13.16926 L516.658824,13.16926 L516.451765,14.9455787 Z M500.56,21.3770778 L493.778824,21.3770778 L494.089412,19.6620114 L500.767059,19.6620114 L500.56,21.3770778 Z M515.52,21.3770778 L508.738824,21.3770778 L508.945882,19.6620114 L515.727059,19.6620114 L515.52,21.3770778 Z M548.701176,37.9764706 L549.684706,31.6062239 L554.705882,31.1774573 L555.637647,25.5422391 L550.461176,25.9097533 L551.030588,22.2958634 L555.792941,22.2958634 L556.414118,18.6207211 L565.317647,18.6207211 L569.2,14.4555598 L571.581176,18.6207211 L580.122353,18.6207211 L575.049412,9.80037951 L578.051765,6.43149905 L578.517647,3.73639469 C578.552157,3.40971537 578.517647,3.03199241 578.414118,2.60322581 C578.310588,2.1744592 578.189804,1.85798861 578.051765,1.65381404 C577.879216,1.44963947 577.620392,1.25567362 577.275294,1.07191651 C576.930196,0.888159393 576.654118,0.796280835 576.447059,0.796280835 L576.447059,0.796280835 L557.501176,0.796280835 C558.70902,0.918785579 559.623529,1.14337761 560.244706,1.47005693 L560.244706,1.47005693 L559.52,6.43149905 L566.922353,6.43149905 L556.465882,17.7631879 L556.621176,16.5993928 L551.910588,16.5993928 L552.945882,9.98413662 L546.630588,9.98413662 L545.647059,16.5993928 L543.524706,16.5993928 L546.009412,8.63658444 L557.863529,8.63658444 L558.691765,3.00136622 L549.374118,3.00136622 L549.529412,2.3888425 C549.598431,2.18466793 549.615686,1.90903226 549.581176,1.56193548 C549.546667,1.21483871 549.477647,0.959620493 549.374118,0.796280835 C549.270588,0.632941176 549.080784,0.459392789 548.804706,0.275635674 C548.528627,0.0918785579 548.304314,1.67186526e-14 548.131765,1.67186526e-14 L548.131765,1.67186526e-14 L540.004706,1.67186526e-14 C540.901961,0.0816698292 541.661176,0.245009488 542.282353,0.490018975 L542.282353,0.490018975 L541.454118,3.00136622 L534.672941,3.00136622 C535.570196,3.08303605 536.355294,3.23616698 537.028235,3.46075901 C537.701176,3.68535104 538.072157,3.96098672 538.141176,4.28766603 L538.141176,4.28766603 L537.416471,8.63658444 L539.642353,8.63658444 L536.950588,16.5993928 L536.070588,22.2958634 L542.851765,22.2958634 L542.282353,26.4610247 L534.672941,26.9510436 L533.792941,32.6475142 L541.350588,32.2187476 L540.729412,36.6289184 C540.556863,36.9555977 540.09098,37.2312334 539.331765,37.4558254 C538.572549,37.6804175 537.727059,37.8539658 536.795294,37.9764706 L536.795294,37.9764706 L548.701176,37.9764706 Z M576.343529,37.9764706 L577.171765,32.28 L569.821176,32.28 L570.804706,25.9097533 L576.654118,25.9097533 L577.585882,20.2132827 L557.604706,20.2132827 L556.776471,25.9097533 L562.574118,25.9097533 L561.642353,32.28 L554.654118,32.28 L553.825882,37.9764706 L576.343529,37.9764706 Z M599.016471,37.9152182 L602.950588,11.3929412 L607.195294,11.3929412 L608.075294,5.69647059 L603.882353,5.69647059 L604.296471,3.18512334 C604.296471,2.89927894 604.236078,2.53176471 604.115294,2.08258065 C603.99451,1.63339658 603.865098,1.28629981 603.727059,1.04129032 C603.55451,0.796280835 603.278431,0.571688805 602.898824,0.367514231 C602.519216,0.163339658 602.191373,0.0612523719 601.915294,0.0612523719 L601.915294,0.0612523719 L592.908235,0.0612523719 C593.84,0.142922201 594.642353,0.30626186 595.315294,0.551271347 C595.988235,0.796280835 596.359216,1.08212524 596.428235,1.40880455 L596.428235,1.40880455 L595.755294,5.69647059 L593.167059,5.69647059 L593.167059,5.63521822 L589.44,5.63521822 C590.164706,5.71688805 590.820392,5.85981025 591.407059,6.06398482 L591.407059,6.06398482 L590.578824,11.3929412 L594.875294,11.3929412 L590.889412,37.9152182 L599.016471,37.9152182 Z M614.183529,16.9056546 L620.447059,0.0612523719 L608.592941,0.0612523719 C610.180392,0.265426945 611.232941,0.571688805 611.750588,0.980037951 L611.750588,0.980037951 L605.901176,16.9056546 L614.183529,16.9056546 Z M633.905882,16.9056546 L632.974118,3.36888046 C632.905098,2.67468691 632.516863,1.94986717 631.809412,1.19442125 C631.101961,0.438975332 630.454902,0.0612523719 629.868235,0.0612523719 L629.868235,0.0612523719 L624.432941,0.0612523719 L625.571765,16.9056546 L633.905882,16.9056546 Z M589.802353,37.9152182 L593.684706,12.8629981 L591.251765,12.8629981 L587.472941,36.6289184 C587.265882,36.9555977 586.8,37.2312334 586.075294,37.4558254 C585.350588,37.6804175 584.539608,37.8335484 583.642353,37.9152182 L583.642353,37.9152182 L589.802353,37.9152182 Z M602.432941,37.9152182 L606.108235,12.8629981 L603.571765,12.8629981 L599.948235,37.9152182 L602.432941,37.9152182 Z M630.748235,37.9152182 L630.282353,24.0721822 L622.621176,24.0721822 L622.828235,32.28 L614.131765,32.28 L624.536471,15.4968501 L615.374118,15.4968501 L605.021176,32.28 L604.141176,37.9152182 L630.748235,37.9152182 Z" id="让管理更轻松"></path>
                    </g>
                </g>
                <g id="编组-2" transform="translate(1372.000000, 100.000000)">
                    <rect id="矩形" fill="url(#linearGradient-8)" x="0" y="-7.10542736e-15" width="50" height="55.9701493"></rect>
                    <g id="mingpian_blue" transform="translate(99.567164, 35.835821)">
                        <g id="编组">
                            <path d="M82.3492856,7.50294789 L1.68056515,7.50294789 C0.840282573,7.50294789 -2.86338117e-13,8.34323047 -2.86338117e-13,9.39353057 L-2.86338117e-13,65.483614 C-2.86338117e-13,66.5338078 0.840282573,67.1641791 1.68056515,67.1641791 L82.1393743,67.1641791 C83.1895682,67.1641791 83.8199394,66.3238965 83.8199394,65.483614 L83.8199394,9.39353057 C84.029957,8.34323047 83.1895682,7.50294789 82.3492856,7.50294789 Z" id="Fill-1" fill-opacity="0.15" fill="#000000"></path>
                            <path d="M89.8119722,0.0402613268 L9.14325171,0.0402613268 C8.30296914,0.0402613268 7.46268657,0.8805439 7.46268657,1.930844 L7.46268657,58.0209274 C7.46268657,59.0711213 8.30296914,59.7014925 9.14325171,59.7014925 L89.6020609,59.7014925 C90.6522547,59.7014925 91.282626,58.86121 91.282626,58.0209274 L91.282626,1.930844 C91.4926435,0.8805439 90.6522547,0.0402613268 89.8119722,0.0402613268 Z" id="Fill-1" fill="#FFFFFF"></path>
                        </g>
                        <path d="M44.4195468,45.9060925 L16.9934335,45.9060925 C16.1674077,45.9060925 15.6716418,45.2452384 15.6716418,44.5843008 C15.6716418,41.1148586 17.9848818,38.1407645 21.2892358,37.3148222 L25.4195321,36.3236246 L25.5847038,35.4973481 C24.5935062,34.3410624 23.9326521,32.8541824 23.602058,31.3669683 C22.7761157,31.0367083 22.1151781,30.2104319 22.1151781,29.384406 L21.7849181,26.9060778 C21.6198299,26.2452237 21.9500899,25.4191979 22.4457722,24.923432 L22.9415381,24.4280839 C22.9415381,23.7671462 22.7761157,22.9408697 22.7761157,22.445438 C22.7761157,20.1322816 23.4369698,17.1585217 29.0544802,16.8279276 C31.0370425,15.6716418 33.0196884,15.6716418 33.8457142,15.6716418 C36.8197247,15.6716418 38.3066046,16.99335 38.9674587,18.1496358 C40.4543387,20.4628757 39.4628904,22.1148439 38.8023705,22.775698 L38.4717764,23.1062921 L38.4717764,24.5931721 L38.9674587,25.0889379 C39.4628904,25.5842861 39.6283128,26.4106461 39.6283128,27.0715002 L39.2977187,29.384406 C39.1326305,30.2104319 38.6368646,31.0367083 37.9760105,31.3669683 C37.6457506,32.8538482 36.8197247,34.5061506 35.8282765,35.6627705 L35.9934482,36.3236246 L40.1240787,37.3148222 C43.4284327,38.1407645 45.741255,41.1148586 45.741255,44.5843008 C45.9064267,45.2452384 45.2455726,45.9060925 44.4195468,45.9060925 Z" id="Fill-3" fill="#082268"></path>
                        <path d="M82.6692516,42.8955224 L58.3009508,42.8955224 C57.250332,42.8955224 56.6199607,42.0552398 56.6199607,41.2149572 C56.6199607,40.1646571 57.4602433,39.5342859 58.3009508,39.5342859 L82.8796941,39.5342859 C83.9298879,39.5342859 84.5602592,40.3745684 84.5602592,41.2149572 C84.5602592,42.0552398 83.7199766,42.8955224 82.6692516,42.8955224 Z M56.4100494,30.5009826 C56.4100494,29.4506825 57.250332,28.8204175 58.0906145,28.8204175 L72.1657194,28.8204175 C73.2160195,28.8204175 73.8462846,29.6607001 73.8462846,30.5009826 C73.8462846,31.3412652 73.006002,32.1815478 72.1657194,32.1815478 L58.0906145,32.1815478 C57.250332,32.3915653 56.4100494,31.5517077 56.4100494,30.5009826 Z M82.6692516,21.8880331 L58.3009508,21.8880331 C57.250332,21.8880331 56.6199607,21.0477506 56.6199607,20.207468 C56.6199607,19.3670792 57.4602433,18.5267966 58.3009508,18.5267966 L82.8796941,18.5267966 C83.9298879,18.5267966 84.5602592,19.3670792 84.5602592,20.207468 C84.5602592,21.0477506 83.7199766,21.8880331 82.6692516,21.8880331 Z" id="Fill-4" fill="#346BFB"></path>
                    </g>
                    <polygon id="矩形" stroke="#FFAD42" transform="translate(145.835821, 59.343284) rotate(-270.000000) translate(-145.835821, -59.343284) " points="114.119403 17.5522388 177.552239 17.5522388 177.552239 101.134328 114.119403 101.134328"></polygon>
                </g>
                <rect id="矩形备份-2" fill="url(#linearGradient-9)" opacity="0.533017113" transform="translate(554.000000, 95.000000) rotate(-270.000000) translate(-554.000000, -95.000000) " x="530" y="68" width="48" height="54"></rect>
                <g id="编组-11" transform="translate(510.000000, 55.000000)" fill="#FFFFFF" fill-opacity="0.248497596">
                    <circle id="椭圆形" cx="32.5" cy="1.5" r="1.5"></circle>
                    <circle id="椭圆形备份-15" cx="32.5" cy="10.5" r="1.5"></circle>
                    <circle id="椭圆形备份-19" cx="32.5" cy="20.5" r="1.5"></circle>
                    <circle id="椭圆形备份-23" cx="32.5" cy="29.5" r="1.5"></circle>
                    <circle id="椭圆形备份-27" cx="32.5" cy="38.5" r="1.5"></circle>
                    <circle id="椭圆形备份-12" cx="22.5" cy="1.5" r="1.5"></circle>
                    <circle id="椭圆形备份-16" cx="22.5" cy="10.5" r="1.5"></circle>
                    <circle id="椭圆形备份-20" cx="22.5" cy="20.5" r="1.5"></circle>
                    <circle id="椭圆形备份-24" cx="22.5" cy="29.5" r="1.5"></circle>
                    <circle id="椭圆形备份-28" cx="22.5" cy="38.5" r="1.5"></circle>
                    <circle id="椭圆形备份-13" cx="11.5" cy="1.5" r="1.5"></circle>
                    <circle id="椭圆形备份-17" cx="11.5" cy="10.5" r="1.5"></circle>
                    <circle id="椭圆形备份-21" cx="11.5" cy="20.5" r="1.5"></circle>
                    <circle id="椭圆形备份-25" cx="11.5" cy="29.5" r="1.5"></circle>
                    <circle id="椭圆形备份-29" cx="11.5" cy="38.5" r="1.5"></circle>
                    <circle id="椭圆形备份-14" cx="1.5" cy="1.5" r="1.5"></circle>
                    <circle id="椭圆形备份-18" cx="1.5" cy="10.5" r="1.5"></circle>
                    <circle id="椭圆形备份-22" cx="1.5" cy="20.5" r="1.5"></circle>
                    <circle id="椭圆形备份-26" cx="1.5" cy="29.5" r="1.5"></circle>
                    <circle id="椭圆形备份-30" cx="1.5" cy="38.5" r="1.5"></circle>
                </g>
                <g id="编组-12" transform="translate(1743.000000, 72.000000)">
                    <circle id="椭圆形" fill-opacity="0.15" fill="#000000" cx="29.1666667" cy="40.8333333" r="29.1666667"></circle>
                    <circle id="椭圆形" fill="#FFD78E" cx="30.625" cy="37.9166667" r="29.1666667"></circle>
                    <path d="M62.8900712,37.9166667 C62.8900712,21.8083615 49.8317097,8.75 33.7234045,8.75 C32.9188248,8.75 31.8860233,8.8218979 30.625,8.9656937 L27.7083333,40.1041667 L52.6386818,60.1189139 C58.9119959,54.769185 62.8900712,46.8074905 62.8900712,37.9166667 Z" id="椭圆形" fill-opacity="0.03" fill="#000000"></path>
                    <path d="M65.8067378,35.7291667 C65.8067378,19.6208615 52.7483764,6.5625 36.6400712,6.5625 C35.8354914,6.5625 34.80269,6.6343979 33.5416667,6.7781937 L30.625,37.9166667 L55.5553484,57.9314139 C61.8286626,52.581685 65.8067378,44.6199905 65.8067378,35.7291667 Z" id="椭圆形" fill="#FFB452"></path>
                    <circle id="椭圆形" stroke="" cx="38.6458333" cy="32.0833333" r="32.0833333"></circle>
                </g>
                <g id="编组-11备份" transform="translate(1742.964286, 84.000000) rotate(-90.000000) translate(-1742.964286, -84.000000) translate(1729.000000, 61.000000)" fill="#002CAF">
                    <circle id="椭圆形备份-12" cx="26.2857143" cy="1.64285714" r="1.64285714"></circle>
                    <circle id="椭圆形备份-16" cx="26.2857143" cy="12.3214286" r="1.64285714"></circle>
                    <circle id="椭圆形备份-20" cx="26.2857143" cy="23" r="1.64285714"></circle>
                    <circle id="椭圆形备份-24" cx="26.2857143" cy="33.6785714" r="1.64285714"></circle>
                    <circle id="椭圆形备份-28" cx="26.2857143" cy="44.3571429" r="1.64285714"></circle>
                    <circle id="椭圆形备份-13" cx="13.9642857" cy="1.64285714" r="1.64285714"></circle>
                    <circle id="椭圆形备份-17" cx="13.9642857" cy="12.3214286" r="1.64285714"></circle>
                    <circle id="椭圆形备份-21" cx="13.9642857" cy="23" r="1.64285714"></circle>
                    <circle id="椭圆形备份-25" cx="13.9642857" cy="33.6785714" r="1.64285714"></circle>
                    <circle id="椭圆形备份-29" cx="13.9642857" cy="44.3571429" r="1.64285714"></circle>
                    <circle id="椭圆形备份-14" cx="1.64285714" cy="1.64285714" r="1.64285714"></circle>
                    <circle id="椭圆形备份-18" cx="1.64285714" cy="12.3214286" r="1.64285714"></circle>
                    <circle id="椭圆形备份-22" cx="1.64285714" cy="23" r="1.64285714"></circle>
                    <circle id="椭圆形备份-26" cx="1.64285714" cy="33.6785714" r="1.64285714"></circle>
                    <circle id="椭圆形备份-30" cx="1.64285714" cy="44.3571429" r="1.64285714"></circle>
                </g>
                <g id="编组-13" transform="translate(561.000000, 140.000000)">
                    <g id="编组-11备份-2" transform="translate(49.572650, 41.367521)" fill="#002CAF">
                        <circle id="椭圆形备份-12" cx="21.8803419" cy="1.36752137" r="1.36752137"></circle>
                        <circle id="椭圆形备份-16" cx="21.8803419" cy="10.2564103" r="1.36752137"></circle>
                        <circle id="椭圆形备份-20" cx="21.8803419" cy="19.1452991" r="1.36752137"></circle>
                        <circle id="椭圆形备份-24" cx="21.8803419" cy="28.034188" r="1.36752137"></circle>
                        <circle id="椭圆形备份-28" cx="21.8803419" cy="36.9230769" r="1.36752137"></circle>
                        <circle id="椭圆形备份-13" cx="11.6239316" cy="1.36752137" r="1.36752137"></circle>
                        <circle id="椭圆形备份-17" cx="11.6239316" cy="10.2564103" r="1.36752137"></circle>
                        <circle id="椭圆形备份-21" cx="11.6239316" cy="19.1452991" r="1.36752137"></circle>
                        <circle id="椭圆形备份-25" cx="11.6239316" cy="28.034188" r="1.36752137"></circle>
                        <circle id="椭圆形备份-29" cx="11.6239316" cy="36.9230769" r="1.36752137"></circle>
                        <circle id="椭圆形备份-14" cx="1.36752137" cy="1.36752137" r="1.36752137"></circle>
                        <circle id="椭圆形备份-18" cx="1.36752137" cy="10.2564103" r="1.36752137"></circle>
                        <circle id="椭圆形备份-22" cx="1.36752137" cy="19.1452991" r="1.36752137"></circle>
                        <circle id="椭圆形备份-26" cx="1.36752137" cy="28.034188" r="1.36752137"></circle>
                        <circle id="椭圆形备份-30" cx="1.36752137" cy="36.9230769" r="1.36752137"></circle>
                    </g>
                    <g id="iconfile" transform="translate(0.341880, 7.179487)">
                        <path d="M-2.91869549e-14,8.25014174 C-2.91869549e-14,7.14867944 0.901554293,6.24712515 2.00301659,6.24712515 L54.0810201,6.24712515 C55.1824824,6.24712515 56.0840367,7.14867944 56.0840367,8.25014174 L56.0840367,56.322112 L44.0658515,68.3399549 L2.00301659,68.3399549 C0.901554293,68.3399549 -2.91869549e-14,67.4387429 -2.91869549e-14,66.3369383 L-2.91869549e-14,8.25014174 Z" id="Fill-1" fill-opacity="0.15" fill="#000000"></path>
                        <path d="M5.99039398,2.07147824 C5.99039398,0.96967363 6.89160596,0.0684616454 7.99341057,0.0684616454 L60.0710717,0.0684616454 C61.1728764,0.0684616454 62.0740883,0.96967363 62.0740883,2.07147824 L62.0740883,50.1434485 L50.0562455,62.1612914 L7.99341057,62.1612914 C6.89160596,62.1612914 5.99039398,61.2597371 5.99039398,60.1582748 L5.99039398,2.07147824 Z" id="Fill-2" fill="#FFFFFF"></path>
                        <path d="M18.0083224,13.0878983 C18.0083224,12.4871474 18.5090337,12.08639 19.0098307,12.08639 L49.0547372,12.08639 C49.5554486,12.08639 50.0562455,12.4871474 50.0562455,13.0878983 L50.0562455,14.0894066 C50.0562455,14.6904143 49.5554486,15.0909149 49.0547372,15.0909149 L19.0098307,15.0909149 C18.5090337,15.0909149 18.0083224,14.6904143 18.0083224,14.0894066 L18.0083224,13.0878983 Z M18.0083224,22.1012163 C18.0083224,21.5004653 18.5090337,21.1000503 19.0098307,21.1000503 L49.0547372,21.1000503 C49.5554486,21.1000503 50.0562455,21.5004653 50.0562455,22.1012163 L50.0562455,23.1027246 C50.0562455,23.7037322 49.5554486,24.1042329 49.0547372,24.1042329 L19.0098307,24.1042329 C18.5090337,24.1042329 18.0083224,23.7037322 18.0083224,23.1027246 L18.0083224,22.1012163 Z M18.0083224,31.1148765 C18.0083224,30.5138688 18.5090337,30.1133682 19.0098307,30.1133682 L49.0547372,30.1133682 C49.5554486,30.1133682 50.0562455,30.5138688 50.0562455,31.1148765 L50.0562455,32.1163848 C50.0562455,32.7171357 49.5554486,33.1178931 49.0547372,33.1178931 L19.0098307,33.1178931 C18.5090337,33.1178931 18.0083224,32.7171357 18.0083224,32.1163848 L18.0083224,31.1148765 Z M18.0083224,40.1281944 C18.0083224,39.5275291 18.4090797,39.1266861 19.0098307,39.1266861 L33.0307756,39.1266861 C33.6317833,39.1266861 34.0322839,39.5275291 34.0322839,40.1281944 L34.0322839,41.1297027 C34.0322839,41.730796 33.6317833,42.1312966 33.0307756,42.1312966 L19.0098307,42.1312966 C18.4090797,42.1312966 18.0083224,41.730796 18.0083224,41.1297027 L18.0083224,40.1281944 Z" id="Fill-3" fill="#346BFB"></path>
                        <polygon id="Fill-4" fill="#D5F7FF" points="50.0562455 50.1434485 62.0740883 50.1434485 50.0562455 62.1612914"></polygon>
                    </g>
                    <polygon id="矩形" stroke="#FFAD42" transform="translate(31.452991, 32.136752) rotate(-270.000000) translate(-31.452991, -32.136752) " points="-0.683760684 4.1025641 63.5897436 4.1025641 63.5897436 60.1709402 -0.683760684 60.1709402"></polygon>
                </g>
                <g id="tupian" transform="translate(398.000000, 25.000000)">
                    <polygon id="Fill-1" fill-opacity="0.155075393" fill="#000000" points="0 70 70 70 70 11.7894737 0 11.7894737"></polygon>
                    <polygon id="Fill-1" fill="#FFFFFF" points="6.63157895 63.3684211 76.6315789 63.3684211 76.6315789 5.15789474 6.63157895 5.15789474"></polygon>
                    <polygon id="Fill-1" fill="#8BC8FF" points="10.6047472 59.6842105 73.2363261 59.6842105 73.2363261 8.84210526 10.6047472 8.84210526"></polygon>
                    <path d="M23.0288244,27.8555212 C24.6981966,27.8555212 25.811738,27.2994854 26.923318,26.186762 C27.9794047,25.1637507 28.5805945,23.7613574 28.5923633,22.2930449 C28.5923633,20.9002666 28.0346527,19.5140883 26.923318,18.3994093 C25.8139447,17.2866859 24.6981966,16.7306502 23.0288244,16.7306502 C21.3617406,16.7306502 20.2481992,17.2866859 19.1368645,18.3994093 C18.0229962,19.5118883 17.4674923,20.6242857 17.4674923,22.2930449 C17.4674923,23.9618856 18.0252028,25.072083 19.1368645,26.186762 C20.2481992,27.2950039 21.638471,27.8555212 23.0288244,27.8555212 Z" id="Fill-2" fill="#FFFFFF"></path>
                    <polygon id="Fill-3" fill="#082268" points="73.496388 39.6520974 54.9685355 21.1805986 32.1356589 43.947293 24.8116468 36.6433357 10.5902993 50.8218624 10.5902993 59.4097007 73.496388 59.4097007"></polygon>
                    <polygon id="Fill-4" fill="#3267F8" points="34.7256266 42.6472005 26.5203264 34.7327141 10.5902993 50.0998935 10.5902993 59.4097007 51.0443756 59.4097007"></polygon>
                    <rect id="矩形" stroke="#FFAD42" x="2.94736842" y="0" width="70" height="60.4210526"></rect>
                </g>
            </g>
        </g>
    </g>
</svg>