<?xml version="1.0" encoding="UTF-8"?>
<svg width="28px" height="28px" viewBox="0 0 28 28" version="1.1" xmlns="http://www.w3.org/2000/svg" xmlns:xlink="http://www.w3.org/1999/xlink">
    <title>09-安保服务</title>
    <g id="页面-1" stroke="none" stroke-width="1" fill="none" fill-rule="evenodd">
        <g id="安防系统" transform="translate(-269.000000, -247.000000)" fill="#FFFFFF" fill-rule="nonzero">
            <g id="09-安保服务" transform="translate(269.000000, 247.000000)">
                <path d="M14.2039709,27.5892452 C8.13092975,27.5820935 3.20850811,22.4802653 3.19815436,16.1823018 L3.19815436,7.08792776 L25.2223154,7.08792776 L25.2223154,16.1823018 C25.2119494,22.4853337 20.2819034,27.5892452 14.2039709,27.5892452 Z M6.14848993,10.167023 L6.14848993,16.1823018 C6.27009921,20.7035219 9.83939524,24.3032056 14.2008389,24.3032056 C18.5622826,24.3032056 22.1315786,20.7035219 22.2531879,16.1823018 L22.2531879,10.167023 L6.14848993,10.167023 Z" id="形状"></path>
                <path d="M25.3475951,6.84757644 L27.8531879,0.00730797912 L0.535961981,0.00730797912 L3.07913869,6.90604027 L0.0223154362,10.6477256 L23.969519,10.5762698 L24.683613,8.62747536 L25.3100112,6.84757644 L25.3475951,6.84757644 Z M13.2831655,2.78109207 L14.0411074,1.18957659 L14.7990492,2.78109207 L16.4903244,3.03443534 L15.237528,4.27516779 L15.5507271,6.02908277 L14.0348434,5.20409312 L12.5252237,6.02908277 L12.8133669,4.28166378 L11.5605705,3.0409313 L13.2831655,2.78109207 Z" id="形状"></path>
                <path d="M9.12388144,12.6874637 L11.8612416,12.6874637 L11.8612416,15.5262077 L9.12388144,15.5262077 L9.12388144,12.6874637 Z M16.5467002,12.6874637 L19.2840604,12.6874637 L19.2840604,15.5262077 L16.5467002,15.5262077 L16.5467002,12.6874637 Z" id="形状"></path>
            </g>
        </g>
    </g>
</svg>