<svg id="考勤系统" xmlns="http://www.w3.org/2000/svg" width="119" height="102" viewBox="0 0 119 102">
  <metadata><?xpacket begin="﻿" id="W5M0MpCehiHzreSzNTczkc9d"?>
<x:xmpmeta xmlns:x="adobe:ns:meta/" x:xmptk="Adobe XMP Core 5.6-c142 79.160924, 2017/07/13-01:06:39        ">
   <rdf:RDF xmlns:rdf="http://www.w3.org/1999/02/22-rdf-syntax-ns#">
      <rdf:Description rdf:about=""/>
   </rdf:RDF>
</x:xmpmeta>
                                                                                                    
                                                                                                    
                                                                                                    
                                                                                                    
                                                                                                    
                                                                                                    
                                                                                                    
                                                                                                    
                                                                                                    
                                                                                                    
                                                                                                    
                                                                                                    
                                                                                                    
                                                                                                    
                                                                                                    
                                                                                                    
                                                                                                    
                                                                                                    
                                                                                                    
                                                                                                    
                           
<?xpacket end="w"?></metadata>
<defs>
    <style>
      .cls-1, .cls-3 {
        fill: #cb6a25;
      }

      .cls-1, .cls-2, .cls-3, .cls-4, .cls-5 {
        fill-rule: evenodd;
      }

      .cls-2 {
        fill: #ffa247;
      }

      .cls-3 {
        opacity: 0.3;
      }

      .cls-4 {
        fill: #ffbf81;
      }

      .cls-5 {
        fill: #ff852f;
      }
    </style>
  </defs>
  <path id="椭圆_3" data-name="椭圆 3" class="cls-1" d="M954.66,557H836.31a20.256,20.256,0,0,1-.259-5.016L836,551.915V540.432h4.4A40.453,40.453,0,0,1,853.417,529.1c23.237-13.471,60.913-13.471,84.151,0a40.143,40.143,0,0,1,13.2,11.606l4.235,0.25v12.022l-0.025,0A20.3,20.3,0,0,1,954.66,557Z" transform="translate(-836 -455)"/>
  <path id="椭圆_3_拷贝" data-name="椭圆 3 拷贝" class="cls-2" d="M842.9,557c-11.857-12.981-8.342-29.428,10.553-40.352,23.218-13.424,60.862-13.424,84.081,0,18.894,10.924,22.411,27.371,10.555,40.352H842.9Z" transform="translate(-836 -455)"/>
  <path id="椭圆_4" data-name="椭圆 4" class="cls-3" d="M915.246,553.445a32.638,32.638,0,0,1-9.5,3.555H887.254a32.6,32.6,0,0,1-9.5-3.556c-10.353-6.055-10.353-15.873,0-21.929s27.138-6.055,37.491,0S925.6,547.389,915.246,553.445Z" transform="translate(-836 -455)"/>
  <g id="组_14" data-name="组 14">
    <path id="形状_30" data-name="形状 30" class="cls-1" d="M919.955,463.82l-1.132.57a26.483,26.483,0,0,1,1.358,12.542c-0.867,8.322-4.515,17.159-9.787,25.036a7.432,7.432,0,0,1-.57.976l-20.9,29.745,3.018,4.778,1.313,3.514-9.631-4.4,0.031-.085a1.568,1.568,0,0,1-.28-0.115h0a1.511,1.511,0,0,1-.31-0.23l-0.584-.436-0.043-.033-1.058-.833-15.463-12.181a1.253,1.253,0,0,1-.381-0.445c-4.124-3.656-6.22-9.971-5.35-18.324,1.856-18.08,16.82-38.788,33.4-46.235a26.74,26.74,0,0,1,11.925-2.65l0-.017,0.257,0.029a17.319,17.319,0,0,1,2.039.228l1.643,0.184,10.226,5.465Zm-24.524,5.752c-9.933,8.627-21.7,22.034-17.939,34.82l-1.753,1.382c2.552,3.215,7.148,3.99,12.685,1.5,9.192-4.13,17.51-15.686,18.561-25.783C907.911,472.611,902.906,467.792,895.431,469.572Z" transform="translate(-836 -455)"/>
    <path id="形状_28" data-name="形状 28" class="cls-4" d="M884.058,508.8l0.132-.214a16.973,16.973,0,0,0,4.234-1.311c9.192-4.13,17.51-15.686,18.561-25.783a13.984,13.984,0,0,0-1.174-7.944l10.142-13.866c3.379,3.771,5.016,9.677,4.228,17.248-0.867,8.322-4.515,17.159-9.787,25.036a7.432,7.432,0,0,1-.57.976l-20.185,28.722Z" transform="translate(-836 -455)"/>
    <path id="形状_27" data-name="形状 27" class="cls-5" d="M903.209,462.077c16.578-7.448,28.485,1.187,26.6,19.265-0.866,8.322-4.514,17.159-9.786,25.036a7.432,7.432,0,0,1-.57.976L897.705,538.3l-0.066.094-0.037.061a6.474,6.474,0,0,1-2.54,2.252,2.287,2.287,0,0,1-2.06.086h0a1.5,1.5,0,0,1-.309-0.23l-0.585-.436-0.042-.033-1.058-.833-15.463-12.181a1.253,1.253,0,0,1-.381-0.445c-4.125-3.656-6.221-9.971-5.351-18.324C871.668,490.232,886.632,469.524,903.209,462.077Zm-5.154,49.61c9.191-4.13,17.509-15.686,18.561-25.783s-5.557-14.948-14.748-10.819-17.509,15.686-18.561,25.783S888.864,515.816,898.055,511.687Z" transform="translate(-836 -455)"/>
  </g>
  <g id="组_10" data-name="组 10">
    <path id="矩形_8" data-name="矩形 8" class="cls-1" d="M908.033,483.684c-0.044.081-.077,0.162-0.125,0.243l-9.787,16.63h1.426l-0.839,3.375h-4.193v-0.025a1.425,1.425,0,0,1-.806-0.154l-5.962-3.306c-1.057-.586-1.057-2.506,0-4.3,0.931-1.582,2.363-2.524,3.414-2.325v-0.013h4.193v2.256l0.263,0.146,8.474-14.4a4.369,4.369,0,0,1,3-2.341v0h4.193v4.218h-3.255Z" transform="translate(-836 -455)"/>
    <path id="形状_34_拷贝" data-name="形状 34 拷贝" class="cls-5" d="M897.966,503.753a1.954,1.954,0,0,0,1.909-.2,5.475,5.475,0,0,0,1.908-1.98l10.383-17.642c1.056-1.8,1.056-3.715,0-4.3s-2.76.389-3.817,2.184l-8.474,14.4-4.054-2.249c-1.056-.586-2.76.389-3.817,2.185s-1.056,3.715,0,4.3Z" transform="translate(-836 -455)"/>
  </g>
</svg>
