<svg id="第三方_新" data-name="第三方 新" xmlns="http://www.w3.org/2000/svg" width="119" height="86.781" viewBox="0 0 119 86.781">
  <metadata><?xpacket begin="﻿" id="W5M0MpCehiHzreSzNTczkc9d"?>
<x:xmpmeta xmlns:x="adobe:ns:meta/" x:xmptk="Adobe XMP Core 5.6-c142 79.160924, 2017/07/13-01:06:39        ">
   <rdf:RDF xmlns:rdf="http://www.w3.org/1999/02/22-rdf-syntax-ns#">
      <rdf:Description rdf:about=""/>
   </rdf:RDF>
</x:xmpmeta>
                                                                                                    
                                                                                                    
                                                                                                    
                                                                                                    
                                                                                                    
                                                                                                    
                                                                                                    
                                                                                                    
                                                                                                    
                                                                                                    
                                                                                                    
                                                                                                    
                                                                                                    
                                                                                                    
                                                                                                    
                                                                                                    
                                                                                                    
                                                                                                    
                                                                                                    
                                                                                                    
                           
<?xpacket end="w"?></metadata>
<defs>
    <style>
      .cls-1 {
        fill: #cb6a25;
      }

      .cls-1, .cls-2, .cls-3, .cls-4 {
        fill-rule: evenodd;
      }

      .cls-2 {
        fill: #ffa247;
      }

      .cls-3 {
        fill: #ffbf81;
      }

      .cls-4 {
        fill: #ff852f;
      }
    </style>
  </defs>
  <g id="组_6" data-name="组 6">
    <path id="形状_9" data-name="形状 9" class="cls-1" d="M699.384,259.286l-0.043-.317c-1.85,7.954-7.692,15.654-17.519,22.031H581V221.93c28.29-14.094,71.056-13.4,97.906,2.092a51.782,51.782,0,0,1,13.787,11.151l7.321-.237Z" transform="translate(-581 -194.219)"/>
    <path id="椭圆_2" data-name="椭圆 2" class="cls-2" d="M678.907,265.163c-26.849,15.5-69.616,16.185-97.907,2.089V204.3c28.29-14.094,71.056-13.4,97.906,2.092C707.028,222.619,707.028,248.934,678.907,265.163Z" transform="translate(-581 -194.219)"/>
  </g>
  <path id="形状_14" data-name="形状 14" class="cls-3" d="M661.576,252.574a32.484,32.484,0,0,1-29.037,0l-5.645-3.215,0.015-.009c-0.878-.444-1.656-0.722-1.909-1.35l-0.3-.468v-5a30.123,30.123,0,0,1-14.557-3.407l-14.9-8.481c-3.851-2.193-6.016-5.166-6.016-8.266s2.165-6.074,6.016-8.266c7.818-4.444,20.344-4.544,28.4-.325l1.98-1.955,5.563,1.831-0.8,3.95c1.186,0.775,1.646,1.838,1.189,2.85-0.514,1.139-2.1,2.019-4.113,2.284a9.056,9.056,0,0,1-4.419-.5l1.578,2.727c7.566-1.7,16.237-.714,22.05,2.585l14.9,8.482c3.852,2.192,6.016,5.166,6.016,8.266S665.427,250.382,661.576,252.574Zm-7.82-12.089-14.882-8.458a15.23,15.23,0,0,0-10.55-1.123,9.253,9.253,0,0,1-5.676-.067,4.29,4.29,0,0,1-2.3-1.654l-0.284.04V228.4a1.815,1.815,0,0,1,0-.442c0-.007,0-0.013,0-0.02v-5.124l2.451-.806a5.41,5.41,0,0,1-.5-0.292l-0.042.021-5.535-3.152a14.981,14.981,0,0,0-13.37,0c-3.688,2.1-3.687,5.509,0,7.613l14.866,8.466a15.2,15.2,0,0,0,10.55,1.123,8.354,8.354,0,0,1,1.107-.266l1.6-2.637h5.564v5.493l-0.013,0a1.774,1.774,0,0,1,0,.357c-0.134,1.157-1.373,2.179-3.226,2.66a0.238,0.238,0,0,0-.053.015l-0.239.061a32.768,32.768,0,0,1-5.045.887l2.426,1.5a7.752,7.752,0,0,1,4.2,1.114l0.038-.021,5.54,3.151a14.975,14.975,0,0,0,13.37,0C657.443,245.994,657.443,242.588,653.756,240.485Z" transform="translate(-581 -194.219)"/>
  <path id="形状_10_拷贝" data-name="形状 10 拷贝" class="cls-4" d="M623.584,218.813l-0.243.06a0.32,0.32,0,0,1-.053.018c-1.853.481-3.092,1.5-3.226,2.66s0.86,2.263,2.586,2.878a9.253,9.253,0,0,0,5.676.067,15.23,15.23,0,0,1,10.55,1.123l14.882,8.458c3.687,2.1,3.687,5.509,0,7.612a14.975,14.975,0,0,1-13.37,0l-5.54-3.151-0.038.021a8.313,8.313,0,0,0-5.462-1.042c-2.019.263-3.611,1.147-4.125,2.289s0.138,2.353,1.688,3.136l-0.015.009,5.645,3.215a32.484,32.484,0,0,0,29.037,0c3.851-2.192,6.015-5.166,6.015-8.266s-2.164-6.074-6.016-8.266l-14.9-8.482c-6.081-3.452-15.294-4.385-23.094-2.339h0Zm0,0M595.248,207.7c-3.851,2.192-6.016,5.165-6.016,8.266s2.165,6.073,6.016,8.266l14.9,8.481c6.077,3.452,15.283,4.387,23.082,2.346l0.239-.061a0.238,0.238,0,0,1,.053-0.015c1.853-.481,3.092-1.5,3.226-2.66s-0.86-2.262-2.586-2.878a9.253,9.253,0,0,0-5.676-.067,15.2,15.2,0,0,1-10.55-1.123l-14.866-8.466c-3.687-2.1-3.688-5.509,0-7.613a14.981,14.981,0,0,1,13.37,0l5.535,3.152,0.042-.022a8.335,8.335,0,0,0,5.454,1.029c2.013-.265,3.6-1.145,4.113-2.284s-0.129-2.346-1.668-3.13l0.016-.006-5.646-3.215c-8.022-4.56-21.014-4.56-29.036,0h0Zm0,0" transform="translate(-581 -194.219)"/>
</svg>
