<svg id="系统设置" xmlns="http://www.w3.org/2000/svg" width="118.938" height="86.5" viewBox="0 0 118.938 86.5">
  <metadata><?xpacket begin="﻿" id="W5M0MpCehiHzreSzNTczkc9d"?>
<x:xmpmeta xmlns:x="adobe:ns:meta/" x:xmptk="Adobe XMP Core 5.6-c142 79.160924, 2017/07/13-01:06:39        ">
   <rdf:RDF xmlns:rdf="http://www.w3.org/1999/02/22-rdf-syntax-ns#">
      <rdf:Description rdf:about=""/>
   </rdf:RDF>
</x:xmpmeta>
                                                                                                    
                                                                                                    
                                                                                                    
                                                                                                    
                                                                                                    
                                                                                                    
                                                                                                    
                                                                                                    
                                                                                                    
                                                                                                    
                                                                                                    
                                                                                                    
                                                                                                    
                                                                                                    
                                                                                                    
                                                                                                    
                                                                                                    
                                                                                                    
                                                                                                    
                                                                                                    
                           
<?xpacket end="w"?></metadata>
<defs>
    <style>
      .cls-1 {
        fill: #1258c8;
      }

      .cls-1, .cls-2, .cls-3, .cls-4 {
        fill-rule: evenodd;
      }

      .cls-2 {
        fill: #89beff;
      }

      .cls-3 {
        fill: #5ea6ff;
      }

      .cls-4 {
        fill: #0672ff;
      }
    </style>
  </defs>
  <path id="形状_8" data-name="形状 8" class="cls-1" d="M700.99,524.627a2.323,2.323,0,0,1,.3,1.4,20.12,20.12,0,0,1-1.73,4.668,24.966,24.966,0,0,1-2.555,4.548c-1.132,1.387-4.216,2.464-6.85,2.413l-1.878-.044h0a27.783,27.783,0,0,0-13.155,3.27c-3.642,2.1-5.531,4.83-5.649,7.587l0.066,1.09c0.087,1.522-1.783,3.305-4.182,3.957,0,0-2.134.582-7.865,1.468s-8.091,1-8.091,1c-2.64.13-5.812-.875-7.039-2.223l-0.886-.966c-2.487-2.346-6.481-4.171-11.447-4.937a32.212,32.212,0,0,0-14.227.975l-1.581.582a13.126,13.126,0,0,1-8.032-.114,55.284,55.284,0,0,1-6.129-3.195,45.827,45.827,0,0,1-5.541-3.543,3.243,3.243,0,0,1-1.025-1.5L592.672,541l0.853-16.208a19.719,19.719,0,0,0-5.018-2.582l-1.693-.518c-1.978-.6-3.5-2-3.806-3.331l-0.344-.164V500.041l3.631-.908,8.17,6.354,0.236,0.535,1.316,0.028a27.639,27.639,0,0,0,13.126-3.262c3.62-2.09,5.5-4.805,5.645-7.546l-0.069-1.142c-0.1-1.527,1.783-3.31,4.179-3.961l0.078-.02v26.262h7.778c-4.3,4.027-1.1,4.69,4.932,8.171a16.306,16.306,0,0,0,9.078,2.723l10.05,3.685a20.779,20.779,0,0,0,4.076-1.763c6.033-3.483,6.914-8.8,2.671-12.816h9.53V495.2c0.424-.11.848-0.222,1.258-0.349l1.667-.6a12.213,12.213,0,0,1,4.395-.562L674.672,489l16-4v17.4a2.963,2.963,0,0,1,.227.979L693.672,508l-4,8-2.562-1.441c0.039,0.1.062,0.191,0.106,0.286a9.381,9.381,0,0,0,1.731,2.455l5.378-4.55,7.263-5.447v17.249Z" transform="translate(-582.656 -469.5)"/>
  <path id="椭圆_1" data-name="椭圆 1" class="cls-2" d="M626.378,494.67c8.689-4.964,22.777-4.964,31.467,0s8.69,13.012,0,17.976-22.777,4.963-31.467,0S617.688,499.634,626.378,494.67Z" transform="translate(-582.656 -469.5)"/>
  <path id="椭圆_1_拷贝" data-name="椭圆 1 拷贝" class="cls-3" d="M626.378,507.379c8.689-4.963,22.777-4.963,31.467,0s8.69,13.011,0,17.975-22.777,4.964-31.467,0S617.688,512.343,626.378,507.379Z" transform="translate(-582.656 -469.5)"/>
  <path id="形状_5" data-name="形状 5" class="cls-4" d="M678.043,476.2a13.05,13.05,0,0,0-8.027-.1l-1.667.6a32.108,32.108,0,0,1-14.118.95c-4.976-.763-8.97-2.588-11.454-4.936l-0.881-.971c-1.234-1.347-4.4-2.353-7.034-2.229,0,0-2.374.117-8.1,1s-7.867,1.469-7.867,1.469c-2.4.651-4.277,2.434-4.179,3.961l0.069,1.142c-0.142,2.741-2.025,5.456-5.645,7.546a27.639,27.639,0,0,1-13.126,3.262l-1.915-.041c-2.637-.058-5.731,1.028-6.857,2.411a24.2,24.2,0,0,0-2.553,4.546,20.321,20.321,0,0,0-1.733,4.664c-0.22,1.522,1.51,3.348,3.855,4.062l1.693,0.518c4.054,1.438,7.2,3.742,8.537,6.606s0.586,5.765-1.685,8.181l-1.022.939a3,3,0,0,0,.184,4.63,45.827,45.827,0,0,0,5.541,3.543,55.523,55.523,0,0,0,6.129,3.2,13.126,13.126,0,0,0,8.032.113l1.581-.581a32.226,32.226,0,0,1,14.227-.976c4.966,0.767,8.96,2.592,11.447,4.938l0.886,0.965c1.227,1.348,4.4,2.353,7.039,2.223,0,0,2.366-.113,8.091-1s7.865-1.467,7.865-1.467c2.4-.652,4.269-2.436,4.182-3.957l-0.066-1.09c0.118-2.757,2.007-5.484,5.649-7.588a27.794,27.794,0,0,1,13.155-3.269h0l1.878,0.044c2.634,0.051,5.718-1.027,6.85-2.413a25.017,25.017,0,0,0,2.555-4.548,20.114,20.114,0,0,0,1.73-4.669c0.22-1.521-1.517-3.342-3.852-4.062l-1.721-.531c-4.035-1.441-7.176-3.74-8.506-6.588-1.324-2.882-.583-5.786,1.685-8.211l-0.006,0,1-.918a3,3,0,0,0-.181-4.634,45.931,45.931,0,0,0-5.541-3.543A56.432,56.432,0,0,0,678.043,476.2ZM654.89,511.041c-7.072,4.083-18.519,4.094-25.568.024s-7.03-10.678.042-14.761,18.519-4.094,25.568-.024S661.962,506.958,654.89,511.041Z" transform="translate(-582.656 -469.5)"/>
</svg>
