<svg 
 xmlns="http://www.w3.org/2000/svg"
 xmlns:xlink="http://www.w3.org/1999/xlink"
 width="16px" height="16px">
<path fill-rule="evenodd"  fill="rgb(255, 92, 60)"
 d="M8.000,-0.000 C12.418,-0.000 16.000,3.582 16.000,8.000 C16.000,12.418 12.418,16.000 8.000,16.000 C3.582,16.000 -0.000,12.418 -0.000,8.000 C-0.000,3.582 3.582,-0.000 8.000,-0.000 Z"/>
<path fill-rule="evenodd"  fill="rgb(255, 255, 255)"
 d="M11.535,5.879 L9.414,8.000 L11.535,10.121 C11.926,10.512 11.926,11.145 11.535,11.535 C11.145,11.926 10.512,11.926 10.121,11.535 L8.000,9.414 L5.879,11.536 C5.488,11.926 4.855,11.926 4.464,11.536 C4.074,11.145 4.074,10.512 4.464,10.121 L6.586,8.000 L4.464,5.879 C4.074,5.488 4.074,4.855 4.464,4.464 C4.855,4.074 5.488,4.074 5.879,4.464 L8.000,6.586 L10.121,4.464 C10.512,4.074 11.145,4.074 11.535,4.464 C11.926,4.855 11.926,5.488 11.535,5.879 Z"/>
</svg>