<svg 
 xmlns="http://www.w3.org/2000/svg"
 xmlns:xlink="http://www.w3.org/1999/xlink"
 width="18px" height="15px">
<path fill-rule="evenodd"  fill="rgb(255, 255, 255)"
 d="M15.356,12.280 C15.254,12.348 15.135,12.379 15.021,12.379 C14.828,12.379 14.639,12.290 14.523,12.126 C14.336,11.861 14.408,11.503 14.683,11.326 C16.009,10.465 16.801,9.035 16.801,7.499 C16.801,5.958 16.005,4.524 14.671,3.664 C14.398,3.486 14.324,3.128 14.508,2.864 C14.691,2.601 15.065,2.529 15.340,2.707 C17.005,3.782 18.000,5.573 18.000,7.500 C18.000,9.420 17.012,11.208 15.356,12.280 ZM13.456,10.464 C13.353,10.531 13.235,10.562 13.120,10.562 C12.927,10.562 12.739,10.473 12.622,10.307 C12.435,10.042 12.507,9.685 12.783,9.507 C13.480,9.055 13.894,8.305 13.894,7.499 C13.894,6.691 13.476,5.937 12.777,5.486 C12.504,5.309 12.429,4.951 12.614,4.686 C12.799,4.423 13.170,4.352 13.446,4.530 C14.478,5.197 15.093,6.306 15.095,7.500 C15.095,8.689 14.482,9.799 13.456,10.464 ZM10.201,15.000 C10.085,15.000 9.968,14.967 9.868,14.903 L2.818,10.386 L0.301,10.386 C0.135,10.386 -0.000,10.257 -0.000,10.096 L-0.000,4.907 C-0.000,4.746 0.135,4.617 0.301,4.617 L2.818,4.617 L9.866,0.098 C10.051,-0.020 10.288,-0.032 10.483,0.069 C10.677,0.169 10.800,0.364 10.802,0.577 L10.802,14.422 C10.802,14.635 10.679,14.830 10.485,14.930 C10.396,14.977 10.300,15.000 10.201,15.000 ZM2.401,6.061 C2.401,5.900 2.266,5.771 2.099,5.771 L1.503,5.771 C1.336,5.771 1.201,5.900 1.201,6.061 L1.201,8.940 C1.201,9.101 1.336,9.230 1.503,9.230 L2.099,9.230 C2.266,9.230 2.401,9.101 2.401,8.942 L2.401,6.061 Z"/>
</svg>