<?xml version="1.0" encoding="UTF-8"?>
<svg width="58px" height="58px" viewBox="0 0 58 58" version="1.1" xmlns="http://www.w3.org/2000/svg" xmlns:xlink="http://www.w3.org/1999/xlink">
    <title>编组 8</title>
    <g id="页面-1" stroke="none" stroke-width="1" fill="none" fill-rule="evenodd">
        <g id="音乐国家课程备份" transform="translate(-377.000000, -719.000000)">
            <g id="编组-8" transform="translate(377.000000, 719.000000)">
                <circle id="椭圆形" fill="#FF6F00" cx="29" cy="29" r="29"></circle>
                <g id="编组-4" transform="translate(13.000000, 8.000000)">
                    <path d="M8.97494294,30.5096403 C3.6748473,31.3836818 0,33.2895607 0,35.5 C0,38.5375661 6.93958638,41 15.5,41 C24.0604136,41 31,38.5375661 31,35.5 C31,33.2152554 27.0739354,31.2558912 21.485127,30.4250215" id="路径" stroke="#FFFFFF" stroke-width="2" stroke-linecap="round"></path>
                    <path d="M20.8394927,13.9229783 C19.7727063,12.7343754 18.2479584,12.0518589 16.6568238,12.0518589 L13.4818162,12.0518589 C11.8906815,12.0518589 10.3658477,12.7343754 9.29845974,13.9229783 L4.18414129,19.6255826 C3.92873474,19.9107665 3.94085194,20.3469428 4.20906319,20.6171306 L5.95063162,22.3690116 C6.09126851,22.5098633 6.27740935,22.5925782 6.48009318,22.5788712 L6.4800932,22.5788712 C6.67803629,22.5724777 6.86429572,22.4836321 6.99382818,22.3338201 L10.6640082,18.108655 L10.6640082,36.7331806 C10.6640082,37.1313725 10.983825,37.4532088 11.3783645,37.4532088 L13.8406916,37.4532088 C14.2344577,37.4532088 14.5548331,37.1313295 14.5548331,36.7331806 L14.5548331,25.8842461 L15.5873304,25.8842461 L15.5873304,36.7332236 C15.5873304,37.1314155 15.9069323,37.4532088 16.3014718,37.4532088 L18.7616934,37.4532088 C19.1562759,37.4532088 19.4751904,37.1313725 19.4736864,36.7332236 L19.4736864,18.1093425 L23.1448118,22.3338631 L23.1448118,22.3338631 C23.275391,22.4834504 23.4621605,22.5721827 23.6606093,22.5789142 C23.8518634,22.5938673 24.0494769,22.5092188 24.1886099,22.3690545 L25.9282018,20.6172166 C26.1986044,20.3463412 26.2079287,19.9108095 25.9523932,19.6256256 L20.8394927,13.9229783 L20.8394927,13.9229783 Z" id="路径" fill="#FFFFFF" fill-rule="nonzero"></path>
                    <path d="M27.049769,0 C26.6076201,0 26.2486177,0.358875418 26.2486177,0.80278609 C26.2486177,1.24497801 26.6069326,1.6045839 27.049769,1.6045839 L29.9276474,1.6045839 L29.9276474,9.21276853 L27.9715357,9.21276853 C27.5278399,9.21276853 27.1705114,9.57250333 27.1705114,10.0154687 C27.1705114,10.4577036 27.5278399,10.8174813 27.9715357,10.8174813 L29.9276044,10.8174813 L29.9276044,18.4247207 L27.9715357,18.4247207 C27.5278399,18.4247207 27.1705114,18.783768 27.1705114,19.2267333 C27.1705114,19.6697416 27.5278399,20.0292616 27.9715357,20.0292616 L29.9276044,20.0292616 L29.9276044,27.6359423 L27.9715357,27.6359423 C27.5300228,27.6350623 27.171388,27.9922671 27.1705114,28.4337827 C27.1705088,28.4351021 27.1705094,28.4364215 27.1705133,28.4377409 C27.1705133,28.8823821 27.5278419,29.240484 27.9715377,29.240484 L29.9276064,29.240484 L29.9276474,36.9662773 L31.5288387,36.9662773 L31.5288387,0.801841567 C31.5288387,0.358833239 31.1715102,0 30.7294471,0 L27.049769,0 Z" id="路径" fill="#FFFFFF" fill-rule="nonzero"></path>
                    <path d="M15.069986,11.0120569 C17.2733401,11.0120569 19.0670727,9.20556266 19.0670727,6.98656789 C19.0670727,4.76753015 17.2733401,2.96185227 15.069986,2.96185227 C12.8659444,2.96185227 11.0730282,4.76753015 11.0730282,6.98656789 C11.0730282,9.20620719 12.8659444,11.0120569 15.069986,11.0120569 Z" id="路径" fill="#FFFFFF" fill-rule="nonzero"></path>
                </g>
            </g>
        </g>
    </g>
</svg>