<?xml version="1.0" encoding="UTF-8"?>
<svg width="58px" height="58px" viewBox="0 0 58 58" version="1.1" xmlns="http://www.w3.org/2000/svg" xmlns:xlink="http://www.w3.org/1999/xlink">
    <title>编组 9</title>
    <g id="页面-1" stroke="none" stroke-width="1" fill="none" fill-rule="evenodd">
        <g id="音乐国家课程备份" transform="translate(-605.000000, -719.000000)">
            <g id="编组-9" transform="translate(605.000000, 719.000000)">
                <circle id="椭圆形备份" fill="#2ABAFF" cx="29" cy="29" r="29"></circle>
                <g id="编组-5" transform="translate(16.494778, 8.000000)" fill="#FFFFFF">
                    <path d="M20.781873,27 C21.7188172,27 22.5301793,27.6504484 22.7339843,28.5649581 L24.9625557,38.5649581 C25.2028228,39.6430794 24.5236077,40.7118443 23.4454864,40.9521113 C23.3026609,40.983941 23.1567736,41 23.0104444,41 L2,41 C0.8954305,41 0,40.1045695 0,39 C0,38.8536708 0.0160590335,38.7077835 0.0478887056,38.5649581 L2.27646013,28.5649581 C2.48026514,27.6504484 3.29162725,27 4.22857143,27 L5.505,27 L5.50519752,35 C5.50523585,35.5522751 5.95294711,35.9999753 6.50522221,36 L18.5052222,36 C19.057507,36.0000247 19.5052222,35.5523094 19.5052222,35.0000247 C19.5052222,35.0000165 19.5052222,35.0000082 19.5051975,35 L19.505,27 L19.505,27 L20.781873,27 Z" id="路径"></path>
                    <path d="M14.162046,9.09000667 C15.7531806,9.09000667 17.2779285,9.77252309 18.3447149,10.961126 L18.3447149,10.961126 L23.4576154,16.6637733 C23.7131509,16.9489572 23.7038266,17.384489 23.433424,17.6553643 L23.433424,17.6553643 L21.6938321,19.4072023 C21.5546991,19.5473665 21.3570856,19.632015 21.1658315,19.6170619 C20.9673827,19.6103304 20.7806132,19.5215981 20.650034,19.3720108 L20.650034,19.3720108 L16.9789087,15.1474903 L16.9789087,33.7713713 C16.9804126,34.1695202 16.6614981,34.4913565 16.2669156,34.4913565 L16.2669156,34.4913565 L13.806694,34.4913565 C13.4121545,34.4913565 13.0925526,34.1695632 13.0925526,33.7713713 L13.0925526,33.7713713 L13.0925526,22.9223939 L12.0600553,22.9223939 L12.0600553,33.7713284 C12.0600553,34.1694773 11.7396799,34.4913565 11.3459138,34.4913565 L11.3459138,34.4913565 L8.88358674,34.4913565 C8.48904722,34.4913565 8.16923044,34.1695202 8.16923044,33.7713284 L8.16923044,33.7713284 L8.16923044,15.1468028 L4.49905039,19.3719679 C4.36951794,19.5217799 4.1832585,19.6106255 3.98531542,19.6170189 L3.98531542,19.6170189 L3.88548614,19.6160145 C3.72184861,19.6015394 3.57305124,19.5245357 3.45585384,19.4071593 L3.45585384,19.4071593 L1.71428541,17.6552784 C1.44607416,17.3850905 1.43395695,16.9489143 1.6893635,16.6637303 L1.6893635,16.6637303 L6.80368195,10.961126 C7.87106991,9.77252309 9.39590372,9.09000667 10.9870384,9.09000667 L10.9870384,9.09000667 Z M12.5752082,0 C14.7785623,0 16.5722949,1.80567788 16.5722949,4.02471562 C16.5722949,6.24371039 14.7785623,8.05020468 12.5752082,8.05020468 C10.3711666,8.05020468 8.57825042,6.24435492 8.57825042,4.02471562 C8.57825042,1.80567788 10.3711666,0 12.5752082,0 Z" id="形状结合" fill-rule="nonzero"></path>
                </g>
            </g>
        </g>
    </g>
</svg>