<?xml version="1.0" encoding="UTF-8"?>
<svg width="259px" height="147px" viewBox="0 0 259 147" version="1.1" xmlns="http://www.w3.org/2000/svg" xmlns:xlink="http://www.w3.org/1999/xlink">
    <!-- Generator: Sketch 64 (93537) - https://sketch.com -->
    <title>编组 5</title>
    <desc>Created with Sketch.</desc>
    <defs>
        <rect id="path-1" x="0.481283422" y="0" width="281.069519" height="136.684492"></rect>
        <radialGradient cx="50%" cy="50%" fx="50%" fy="50%" r="73.4087776%" gradientTransform="translate(0.500000,0.500000),scale(0.996269,1.000000),rotate(-90.000000),translate(-0.500000,-0.500000)" id="radialGradient-3">
            <stop stop-color="#C8F1FD" offset="0%"></stop>
            <stop stop-color="#CCF2FE" stop-opacity="0.428270859" offset="48.1062681%"></stop>
            <stop stop-color="#CDF3FF" stop-opacity="0" offset="67.6754832%"></stop>
            <stop stop-color="#CFF3FF" stop-opacity="0.104485358" offset="99.8979147%"></stop>
            <stop stop-color="#CFF3FF" stop-opacity="0" offset="100%"></stop>
            <stop stop-color="#CFF3FF" stop-opacity="0.623989292" offset="100%"></stop>
        </radialGradient>
    </defs>
    <g id="页面-1" stroke="none" stroke-width="1" fill="none" fill-rule="evenodd">
        <g id="暂无数据" transform="translate(-599.000000, -336.000000)">
            <g id="编组-5" transform="translate(578.000000, 303.000000)">
                <g id="椭圆形" transform="translate(-0.000000, 43.000000)">
                    <mask id="mask-2" fill="white">
                        <use xlink:href="#path-1"></use>
                    </mask>
                    <g id="蒙版"></g>
                    <ellipse fill="url(#radialGradient-3)" mask="url(#mask-2)" cx="150.641711" cy="137.165775" rx="128.983957" ry="128.502674"></ellipse>
                </g>
                <g id="undraw_lost_online_wqob" transform="translate(48.000000, 0.000000)" fill-rule="nonzero">
                    <ellipse id="椭圆形" fill="#E6E6E6" opacity="0.7" cx="163.411182" cy="174.325347" rx="37.9255142" ry="5.67465322"></ellipse>
                    <path d="M0,0 L201.10971,0 L201.10971,0 C201.10971,92.0150315 126.516923,166.607818 34.5020573,166.607818 L0,166.607818 L0,0 Z" id="路径"></path>
                    <polygon id="路径" fill="#FEB787" points="147.946381 163.679924 148.276646 166.653443 145.303354 166.322951 145.303354 162.688676"></polygon>
                    <polygon id="路径" fill="#FFB8B8" points="179.00285 163.679924 178.672358 166.653443 181.645876 166.322951 181.645876 162.688676"></polygon>
                    <path d="M147.615964,99.5846073 L146.29441,133.614595 C146.29441,133.614595 141.999365,159.05449 142.990529,159.715276 C143.981694,160.376062 142.990529,164.010323 142.990529,164.010323 L148.607128,164.671111 C148.607128,164.671111 148.607128,162.027994 149.928682,161.036825 C151.250237,160.045656 163.474599,113.460919 163.474599,113.460919 L176.029352,158.393731 C176.029352,158.393731 175.698965,161.036837 176.690129,161.036837 C177.681294,161.036837 178.011683,164.671111 178.011683,164.671111 L183.628282,164.671111 L183.628282,161.036837 C183.628282,161.036837 185.280224,160.706449 184.28906,158.063343 C183.297895,155.420237 179.663622,99.5846073 179.663622,99.5846073 L147.615964,99.5846073 Z" id="路径" fill="#008DFE"></path>
                    <path d="M145.964022,163.679924 C145.964022,163.679924 144.312081,162.68876 143.651304,163.349537 C142.990527,164.010314 137.704317,170.618087 137.704317,170.618087 C137.704317,170.618087 130.435767,175.243522 137.04354,176.565076 C143.651313,177.88663 148.607122,171.609251 148.937516,170.948474 C149.26791,170.287697 148.607128,165.001485 148.276741,165.662262 C147.946354,166.323039 146.955187,165.992652 146.624799,165.662262 C146.294412,165.331873 145.964022,163.679924 145.964022,163.679924 Z" id="路径" fill="#0070CB"></path>
                    <path d="M180.985177,163.679924 C180.985177,163.679924 182.637118,162.68876 183.297895,163.349537 C183.958672,164.010314 189.244882,170.618087 189.244882,170.618087 C189.244882,170.618087 196.513432,175.243522 189.905659,176.565076 C183.297886,177.88663 178.342077,171.609251 178.011683,170.948474 C177.681289,170.287697 178.342071,165.001485 178.672458,165.662262 C179.002845,166.323039 179.994012,165.992652 180.324399,165.662262 C180.654787,165.331873 180.985177,163.679924 180.985177,163.679924 Z" id="路径" fill="#0070CB"></path>
                    <circle id="椭圆形" fill="#FEB787" cx="167.604453" cy="43.9141892" r="6.77295965"></circle>
                    <polygon id="路径" fill="#FEB787" points="163.144237 47.7136192 162.152989 57.9556873 170.082295 59.6076923 172.064792 47.3833544"></polygon>
                    <path d="M171.403917,55.642971 C171.403917,55.642971 169.421588,59.9380184 162.153045,55.3125836 L148.607137,99.5846073 C148.607137,99.5846073 166.778492,110.487418 178.34208,102.227713 L174.377411,57.6252999 L171.403917,55.642971 Z" id="路径" fill="#D4F0FF"></path>
                    <path d="M163.474599,50.6871375 L157.197223,49.695973 L156.536444,53.9910295 C156.536444,53.9910295 147.946349,54.9821939 146.955185,58.2860769 L147.946349,82.7348073 C147.946349,82.7348073 144.972856,88.0210192 147.615962,91.3249021 C147.615962,91.3249021 143.320914,100.245384 146.624797,101.897326 C146.624797,101.897326 154.223725,98.2630509 158.849162,99.2542199 C158.849162,99.2542199 161.492268,98.5934429 161.492268,96.611114 C161.492268,94.6287851 163.474599,50.6871375 163.474599,50.6871375 Z" id="路径" fill="#B8E6FF"></path>
                    <path d="M171.07353,51.3479236 L174.707805,52.339088 L175.038192,56.9645228 C175.038192,56.9645228 183.958674,62.5811243 184.289064,65.8850073 C184.619454,69.1888903 177.681298,85.0475236 177.681298,85.0475236 C177.681298,85.0475236 180.324404,89.6729607 179.33324,92.646454 C179.33324,92.646454 183.628287,101.236549 180.985181,103.549267 C180.985181,103.549267 176.029357,104.870819 175.368582,102.88849 C174.707807,100.906161 168.760816,78.1093725 171.403922,67.2065591 C171.403917,67.2065591 168.760811,53.3302525 171.07353,51.3479236 Z" id="路径" fill="#B8E6FF"></path>
                    <path d="M174.872994,62.1075791 L174.74864,62.1075791 L174.74864,58.70091 C174.748641,58.1779839 174.54091,57.6764752 174.171145,57.3067108 C173.80138,56.9369465 173.299871,56.7292177 172.776945,56.7292177 L165.559467,56.7292177 C165.036541,56.7292177 164.535032,56.9369465 164.165267,57.3067108 C163.795503,57.6764752 163.587773,58.1779839 163.587773,58.70091 L163.587773,77.390167 C163.587773,77.9130926 163.795503,78.4146008 164.165268,78.7843646 C164.535033,79.1541285 165.036541,79.361857 165.559467,79.361857 L172.776945,79.361857 C173.299871,79.361857 173.801379,79.1541285 174.171144,78.7843646 C174.540909,78.4146008 174.74864,77.9130926 174.74864,77.390167 L174.74864,64.5325037 L174.872994,64.5325037 L174.872994,62.1075791 Z" id="路径" fill="#FFFFFF"></path>
                    <path d="M178.011683,75.4662666 C178.011683,75.4662666 175.368575,66.8761718 171.403917,69.5192686 C167.43926,72.1623654 174.047023,79.4309153 174.047023,79.4309153 L178.011683,75.4662666 Z" id="路径" fill="#FEB787"></path>
                    <path d="M159.840329,69.188888 C159.840329,69.188888 164.465764,63.5722888 166.778482,66.2153947 C169.091201,68.8585006 162.813822,74.8054895 162.813822,74.8054895 L159.840329,69.188888 Z" id="路径" fill="#FEB787"></path>
                    <path d="M147.946351,57.9556873 C147.946351,57.9556873 146.29441,57.6252976 145.303245,60.5987932 C144.312081,63.5722888 140.677811,74.8054873 140.677811,76.7878161 C140.677811,78.770145 141.999365,86.6994628 149.267905,85.377911 C156.536446,84.0563591 165.126541,74.8054873 165.126541,74.8054873 L160.501106,67.8673339 L150.589457,73.8143228 L147.946351,57.9556873 Z" id="路径" fill="#B8E6FF"></path>
                    <polygon id="路径" fill="#000000" opacity="0.1" points="149.373897 66.5210088 150.754653 73.6490542 160.996721 67.7022446 151.41541 71.3365195 149.303077 66.0956368"></polygon>
                    <polygon id="路径" fill="#000000" opacity="0.1" points="178.507339 73.6490542 179.828852 74.6403026 180.489609 70.0147793"></polygon>
                    <path d="M147.781158,86.203884 C147.781158,86.203884 157.485566,83.5638492 162.049426,77.7805195 C162.049426,77.7805195 157.362417,85.5431069 147.781158,86.203884 Z" id="路径" fill="#000000" opacity="0.1"></path>
                    <path d="M172.229888,80.2568951 C172.229888,80.2568951 174.273369,90.2577836 179.529006,90.5435501 C179.529006,90.5435501 173.221059,92.4812603 172.229888,80.2568951 Z" id="路径" fill="#000000" opacity="0.1"></path>
                    <path d="M182.967505,64.5634532 C182.967505,64.5634532 183.95867,65.2242303 184.619447,68.1977281 C185.280224,71.171226 189.575271,82.4044222 187.92333,85.0475281 C186.271388,87.690634 183.628282,93.637623 178.011683,89.6729652 L172.395082,79.4309289 L178.011683,74.144717 L180.324399,75.7966585 L182.967505,64.5634532 Z" id="路径" fill="#B8E6FF"></path>
                    <path d="M161.102395,45.6319702 C161.102395,45.6319702 155.422067,36.4259145 161.472382,35.9471009 C163.491448,35.8058813 165.462983,35.2686824 167.274602,34.3661266 C169.28014,33.3455811 171.804641,32.5698673 173.148049,34.1408678 C173.734303,34.8592228 174.417782,35.4923962 175.178776,36.0221289 C176.358861,36.8047475 177.724267,38.0734502 176.968189,39.4343909 L175.728675,41.6655148 L173.993343,46.127767 C174.397456,44.2030744 174.40762,42.5870625 173.373583,41.7894651 C173.373583,41.7894651 167.604453,44.2445697 164.69702,39.8062441 C161.44234,37.3642615 160.406852,45.0505385 161.102395,45.6319702 Z" id="路径" fill="#2F2E41"></path>
                    <circle id="椭圆形" fill="#008DFE" cx="169.256395" cy="63.4070951" r="1.65194149"></circle>
                </g>
                <g id="zanwushuju-(9)" transform="translate(34.000000, 56.000000)">
                    <path d="M94.4419358,42.2023182 L50.1309602,42.2023182 C49.3023511,42.2023182 48.6812239,42.8236102 48.6812239,43.6513953 L48.6812239,84.545924 C48.6812239,90.7575258 53.6509009,95.7272028 59.8623379,95.7272028 L117.321797,95.7272028 C118.149747,95.7272028 118.770875,95.1060756 118.770875,94.2774665 L118.770875,38.1640848 C118.770875,37.5436168 118.253406,37.0253241 117.632114,37.0253241 L95.5806966,37.0253241 C94.9594045,37.0253241 94.4419358,37.5436168 94.4419358,38.1640848 L94.4419358,42.2023182 Z" id="Fill-1" fill="#0070CB"></path>
                    <path d="M117.321797,96.2448363 L59.8623379,96.2448363 C53.4435838,96.2448363 48.1635904,90.9648429 48.1635904,84.545924 L48.1635904,43.7550538 C48.1635904,42.6162931 49.0956933,41.787684 50.1309602,41.787684 L93.9243024,41.787684 L93.9243024,38.2677434 C93.9243024,37.3362997 94.6484289,36.6113492 95.5806966,36.6113492 L117.632114,36.6113492 C118.564381,36.6113492 119.289167,37.3362997 119.289167,38.2677434 L119.289167,94.381125 C119.289167,95.4162272 118.357064,96.2448363 117.321797,96.2448363 Z M50.1309602,42.7199517 C49.6133267,42.7199517 49.1986926,43.1337618 49.1986926,43.6513953 L49.1986926,84.545924 C49.1986926,90.4472094 53.9612173,95.2097341 59.8623379,95.2097341 L117.321797,95.2097341 C117.839431,95.2097341 118.253406,94.7951 118.253406,94.2774665 L118.253406,38.1640848 C118.253406,37.8537684 117.943089,37.5436168 117.632114,37.5436168 L95.5806966,37.5436168 C95.2697209,37.5436168 94.9594045,37.8537684 94.9594045,38.1640848 L94.9594045,42.7199517 L50.1309602,42.7199517 Z" id="Fill-2" fill="#0070CB"></path>
                    <path d="M38.8460229,54.1077236 C38.8460229,53.2799385 39.4673149,52.6586465 40.2951,52.6586465 L118.667875,52.4513294 L118.667875,94.0708086 C118.667875,94.8987585 118.046748,95.5198857 117.218304,95.5198857 L57.481158,95.7272028 C47.2321468,95.7272028 38.8460229,87.4447374 38.8460229,77.195067 L38.8460229,54.1077236 Z" id="Fill-3" fill="#008DFE"></path>
                    <path d="M57.3774995,96.2448363 C52.3048231,96.2448363 47.5424632,94.2774665 43.9186992,90.6545265 C40.2951,87.0309273 38.3283894,82.2684025 38.3283894,77.0914085 L38.3283894,54.1077236 C38.3283894,52.9689629 39.2599978,52.1411778 40.2951,52.1411778 L119.185509,51.9338607 L119.185509,94.0708086 C119.185509,95.2097341 118.253406,96.0375192 117.218304,96.0375192 L57.3774995,96.2448363 C57.481158,96.2448363 57.481158,96.2448363 57.3774995,96.2448363 Z M118.149747,52.9689629 L40.2951,53.1762799 C39.7774665,53.1762799 39.3636563,53.5902549 39.3636563,54.1077236 L39.3636563,77.0914085 C39.3636563,81.9574269 41.2272028,86.5132938 44.6436497,89.8260822 C48.0599319,93.2423643 52.6157987,95.1060756 57.3774995,95.1060756 L57.481158,95.1060756 L117.218304,95.0024171 C117.735772,95.0024171 118.149747,94.5884421 118.149747,94.0708086 L118.149747,52.9689629 Z" id="Fill-4" fill="#008DFE"></path>
                    <path d="M119.194573,88.2733465 C119.257636,92.4130167 119.289167,94.5637632 119.289167,94.7255859 C119.289167,94.9683201 117.87819,96.2448363 117.665039,96.2448363 C117.522939,96.2448363 97.3474742,96.2543397 57.1386454,96.2733465 C51.3903604,96.2733465 45.1783985,93.1220477 41.9855469,88.2733465 L119.194573,88.2733465 Z" id="Fill-5" fill="#0088F5"></path>
                    <path d="M99.4109536,40.5452648 L113.698198,40.5452648 C114.112173,40.5452648 114.526807,40.9598989 114.526807,41.3738739 C114.526807,41.787684 114.112173,42.2023182 113.698198,42.2023182 L99.4109536,42.2023182 C98.9969787,42.2023182 98.5830037,41.787684 98.5830037,41.3738739 C98.5830037,40.9598989 98.9969787,40.5452648 99.4109536,40.5452648 Z" id="Fill-6" fill="#0686F9"></path>
                    <path d="M99.4109536,40.5452648 L113.698198,40.5452648 C114.112173,40.5452648 114.526807,40.9598989 114.526807,41.3738739 C114.526807,41.787684 114.112173,42.2023182 113.698198,42.2023182 L99.4109536,42.2023182 C98.9969787,42.2023182 98.5830037,41.787684 98.5830037,41.3738739 C98.5830037,40.9598989 98.9969787,40.5452648 99.4109536,40.5452648 Z" id="Fill-7" fill="#FFFFFF"></path>
                    <g id="编组" transform="translate(0.000000, 35.357284)" fill="#E6F3FE">
                        <polygon id="Fill-11" points="-5.12102873e-14 4.50822099 -5.12102873e-14 11.6420756 6.38023694 15.2823555 12.6126126 11.6420756 12.6126126 4.50822099 6.38023694 0.867941112"></polygon>
                    </g>
                    <path d="M25.2252252,32.6212907 C25.2243443,33.2649608 25.5683325,33.8603224 26.1259068,34.1817163 C26.683481,34.5039925 27.3705748,34.5039925 27.928149,34.1817163 C28.4857232,33.8603224 28.8288288,33.2649608 28.8288288,32.6212907 C28.8288288,31.9776207 28.4857232,31.3831414 27.928149,31.0608652 C27.3705748,30.7394714 26.683481,30.7394714 26.1259068,31.0608652 C25.5683325,31.3831414 25.2243443,31.9776207 25.2252252,32.6212907 Z" id="Fill-12" fill="#E6F3FE"></path>
                    <polygon id="Fill-13" fill="#E6F3FE" points="18.9920891 11 17.6684693 13.1024606 15.3153153 14.6036036 17.8157463 15.9544172 18.8457487 18.2072072 20.3164114 15.9544172 22.5225225 14.6036036 20.3164114 13.251834"></polygon>
                    <path d="M135.711712,21.1294221 L140.784553,18.6445836 L135.711712,16.1604043 L135.711712,21.1294221 Z M142.337124,2.59794551 L140.991705,2.59794551 L140.991705,1.25186772 C140.991705,0.734399033 140.577236,0.423423423 140.163261,0.423423423 C139.749286,0.423423423 139.335476,0.83805757 139.335476,1.25186772 L139.335476,2.59794551 L137.989398,2.59794551 C137.471764,2.59794551 137.160789,3.01192046 137.160789,3.42589541 C137.160789,3.83970556 137.575423,4.25433971 137.989398,4.25433971 L139.335476,4.25433971 L139.335476,5.59975829 C139.335476,6.11805098 139.749286,6.42820259 140.163261,6.42820259 C140.577236,6.42820259 140.991705,6.01439244 140.991705,5.59975829 L140.991705,4.25433971 L142.337124,4.25433971 C142.855416,4.25433971 143.165733,3.83970556 143.165733,3.42589541 C143.165733,2.90826192 142.751758,2.59794551 142.337124,2.59794551 Z" id="Fill-15" fill="#E6F3FE"></path>
                </g>
                <path d="M84.403947,66.9439103 C84.3305438,66.9010495 84.2195472,66.9010495 84.0716432,66.9439103 C83.99824,66.9869305 83.8866945,67.0297913 83.8507476,67.2021905 C83.8507476,67.2021905 83.3330835,68.6201028 82.4466198,70.6814053 C82.372119,70.8961873 82.4097124,71.1531929 82.6310197,71.2833687 C82.8158311,71.3692496 83.0367267,71.3262295 83.1481349,71.0679493 C84.072192,69.0060095 84.5893072,67.5880972 84.5893072,67.5452364 C84.6632592,67.3304543 84.5893072,67.0297913 84.4044958,66.943273 L84.403947,66.9439103 Z M82.1046298,72.835098 C82.028416,72.7941176 81.9127418,72.7941176 81.8363854,72.7941176 C81.7596017,72.835098 81.6450672,72.875628 81.6054645,72.9975182 C80.9923344,74.2119168 80.2628179,75.385185 79.5342986,76.5180734 C79.4575149,76.6798931 79.4575149,76.801333 79.4954081,76.9637532 C79.5342986,77.1249725 79.687866,77.2058824 79.8420033,77.2058824 C79.9951433,77.2058824 80.1096778,77.1655025 80.2254945,77.0041331 C80.9538713,75.8302644 81.682818,74.6158657 82.3734441,73.3616876 C82.4117647,73.2807778 82.4117647,73.1593379 82.4117647,73.078428 C82.2972302,72.9569882 82.1819834,72.9166083 82.1046298,72.835098 Z M78.5468317,78.7593839 C78.4712505,78.7175398 78.3579487,78.6764706 78.2823674,78.6764706 C78.1749551,78.6800351 78.075816,78.7431112 78.0183238,78.8429172 C77.3379522,79.8460911 76.6204209,80.807421 75.9028897,81.6010644 C75.8273084,81.6864574 75.7879052,81.8039309 75.7949164,81.923729 C75.8026288,82.0430622 75.8552132,82.1537167 75.9406102,82.2276413 C76.0994851,82.3947078 76.3488051,82.3947078 76.5069789,82.2276413 C77.2252113,81.3915339 77.9421816,80.430204 78.6597129,79.3865807 C78.6975736,79.3024276 78.7352941,79.1776701 78.7352941,79.093517 C78.6975736,78.9689145 78.6597129,78.8435371 78.5468317,78.7593839 Z M74.2063389,83.1692672 C73.0862252,83.9876686 72.0108829,84.727033 70.8901035,85.2339101 C70.6650822,85.3123691 70.576039,85.5844471 70.7100199,85.8192463 C70.7997289,86.0138767 71.113627,86.0911798 71.3829202,85.9744304 C72.5030339,85.4291185 73.7141879,84.6885982 74.8792392,83.7923157 C74.9684488,83.7150126 75.0588235,83.5586725 75.0588235,83.4029104 C75.0132201,83.2471483 74.8785734,83.1302545 74.7454247,83.1302545 C74.5204034,83.0529514 74.3416512,83.0919641 74.2063389,83.1692672 Z M68.5934537,85.8721288 C68.4323363,85.9134616 68.2329423,85.9552605 68.0730118,86.0396352 C68.352371,84.9926427 68.5928603,83.8612755 68.6722321,82.8136614 C68.6722321,82.7299082 68.6333621,82.6048223 68.5928603,82.5204475 C68.5528034,82.4366944 68.3928729,82.3529412 68.3123142,82.3529412 C68.0730118,82.3529412 67.8730244,82.5204475 67.8730244,82.7717071 C67.7936526,83.9450286 67.5936652,85.1177286 67.1539304,86.207297 C66.9950384,86.207297 66.7946059,86.207297 66.6346754,86.2497174 C66.3952247,86.2497174 66.2352941,86.4591781 66.2352941,86.6678618 C66.2352941,86.9192767 66.4352815,87.0867831 66.6745839,87.0867831 L66.8345144,87.0867831 C66.6745839,87.505549 66.4757834,87.9249365 66.2753509,88.3438578 C66.1947922,88.5531631 66.2753509,88.8044227 66.4751899,88.9301301 C66.6745839,89.0138833 66.9144797,88.9720844 67.0345018,88.7626238 C67.313861,88.1757299 67.5936652,87.5893022 67.7936526,87.0030299 C68.1529771,86.9604541 68.512895,86.8359897 68.8722195,86.751615 C69.1121153,86.7098161 69.2313956,86.4591781 69.1520237,86.207297 C69.1121153,85.9140831 68.8321626,85.7465768 68.5928603,85.8721288 L68.5934537,85.8721288 Z M65.0750467,86.7297237 C65.2872086,86.7297237 65.5,86.5931146 65.5,86.3861581 C65.4919731,86.2040976 65.3358421,86.0494867 65.117542,86.0070995 C64.2286026,85.9387949 63.3369876,85.6635339 62.4474186,85.3193298 C62.224869,85.2515359 61.9739892,85.324309 61.8546875,85.4914318 C61.7711133,85.6724709 61.8603535,85.8759803 62.0662198,85.9731387 C63.041409,86.3516866 64.0158112,86.6274584 64.990843,86.7647059 L65.0750467,86.7297237 C65.0750467,86.7647059 65.0750467,86.7297237 65.0750467,86.7297237 Z M58.3436434,81.7232401 C58.1236844,81.9002748 58.0796273,82.1629715 58.2556924,82.3827556 C58.7393411,83.086489 59.4424593,83.8347666 60.1888187,84.4944453 C60.4526716,84.7143925 60.8039859,84.9782314 61.0678388,85.1986682 C61.2871451,85.3740712 61.550998,85.2859618 61.7269,85.1100692 C61.9041073,84.8909378 61.8155036,84.6269358 61.638949,84.4503905 L60.8039859,83.7913645 C60.1015204,83.1750879 59.4858637,82.5154092 59.0459457,81.8557306 C58.8261499,81.5912391 58.5627865,81.5471843 58.3442961,81.7232401 L58.3436434,81.7232401 Z M57.6726129,80.3588807 C57.5868158,80.0115065 57.5868158,79.6651317 57.6305964,79.3187569 L58.061667,78.0489064 C58.2565148,77.7332285 58.4876058,77.4365398 58.752695,77.1636947 C58.9255723,77.0020722 58.9255723,76.7482163 58.752695,76.586451 C58.5716389,76.4319673 58.2852207,76.4319673 58.104325,76.586451 C56.8957878,77.7025317 56.4209366,79.1268659 56.8087077,80.5898924 C56.8526486,80.8201902 57.1113231,80.9355533 57.3699975,80.858597 C57.5861743,80.8201902 57.7596931,80.5507717 57.6726129,80.3588807 Z M59.9852867,75.7346893 C60.029961,75.7346893 60.0751316,75.7346893 60.2083271,75.6940175 C61.5002405,75.1642256 62.9268386,75.041303 64.129569,75.3272153 C64.3971182,75.3678871 64.6194967,75.2857875 64.7540159,75.041303 C64.7978628,74.7968186 64.7093416,74.5936108 64.4417924,74.4714441 C62.9713474,74.1040371 61.3665487,74.2263549 59.8961037,74.8382464 C59.6737251,74.9197412 59.5845421,75.1234026 59.6285545,75.3678871 C59.5845421,75.5310279 59.7629082,75.7352941 59.9852867,75.7352941 L59.9852867,75.7346893 Z M67.5383439,80.4778092 C67.5383439,80.6452609 67.6229015,80.7715488 67.7932812,80.8557407 C67.964293,80.8964386 68.0908924,80.8964386 68.2619043,80.813334 C68.3470941,80.7289868 68.4749579,80.5621564 68.4329161,80.3940833 C68.2193884,78.38373 67.4525219,76.8341022 66.2609706,75.8286149 C66.0485492,75.6617844 65.793612,75.7455103 65.6226001,75.8705555 C65.5374103,75.9566114 65.4929978,76.0743558 65.5009003,76.1945855 C65.508961,76.3140386 65.5688625,76.4251035 65.665116,76.4991986 C66.7295937,77.2952935 67.3679642,78.6774696 67.5383439,80.4778092 Z M65.3075653,90.5262575 C65.0903639,90.3701699 64.8280403,90.4482137 64.6543439,90.6043012 C63.8709312,91.5805001 62.9985677,92.5171703 61.9542869,93.4153254 C61.7799436,93.5787974 61.7799436,93.836675 61.9542869,94.000147 C62.1375253,94.1568137 62.4249168,94.1568137 62.6081552,94.000147 C63.6959409,93.0636216 64.6549909,92.0878571 65.4384036,91.0336145 C65.4819086,90.9555707 65.5255753,90.8384326 65.4819086,90.7598096 C65.5255753,90.7220185 65.4384036,90.6043012 65.3075653,90.5262575 Z M61.1058018,94.9245266 C60.2303589,95.6105927 59.3137442,96.3389417 58.3548743,96.9388521 C58.1637194,97.089704 58.0954609,97.3529412 58.1878653,97.5808865 C58.3548743,97.7951629 58.6045365,97.8385587 58.8136459,97.7528799 C59.8130686,97.1095738 60.7720934,96.3818606 61.6475362,95.6956356 C61.7315824,95.6105927 61.8561814,95.4379635 61.8156287,95.2672417 C61.8156287,95.0958842 61.6475362,94.9672866 61.5641091,94.8809719 C61.397874,94.838212 61.2304007,94.838212 61.1058018,94.9245266 Z M56.3049736,97.7941176 C54.4043875,98.7291144 53,99.2519471 53,99.2519471 L53.2894364,100 C53.3306968,100 54.7350843,99.477306 56.6764706,98.504865 L56.3049736,97.7941176 Z M87.282193,67.6470588 L86.8235294,73.5294118 L89.7647059,69.1936969 L87.2816257,67.6470588 L87.282193,67.6470588 Z M76.5294118,62.1108223 L84.0121652,65.5298698 L96.3453661,55.7386906 L86.9803981,65.9523203 L96.3453661,69.1176471 L101.529412,50 L76.5294118,62.1108223 Z" id="Fill-11" fill="#008DFE"></path>
            </g>
        </g>
    </g>
</svg>